<svg xmlns="http://www.w3.org/2000/svg" version="1.1" xmlns:xlink="http://www.w3.org/1999/xlink" xmlns:svgjs="http://svgjs.dev/svgjs" viewBox="0 0 1920 1080"><rect width="1920" height="1080" fill="#0000ff"></rect><g transform="matrix(1.1108147002324285,0.29764190186789885,-0.29764190186789885,1.1108147002324285,54.3445147855341,-345.5761639186942)"><path d="M0,-1080C10.710629763571674,-953.1369968906369,56.30050132172673,-526.5272602152415,64.26377858143005,-318.821981343821C72.22705584113336,-111.11670247240048,54.19401043316612,-15.489676239246734,47.77966355821991,166.23167322852314C41.3653166832737,347.95302269629303,13.060258345348695,548.0230102534664,25.777697331752762,771.5061154627982C38.49513631815683,994.98922067213,128.38058036526976,1275.7146570616474,124.08429747664431,1507.1303044845142C119.78801458801885,1738.545951907381,20.680716246107384,2051.1883840807523,0,2160L 1920 2160 L 1920 -1080 Z" fill="url(&quot;#SvgjsLinearGradient1017&quot;)"></path><path d="M960,-1080C978.3797688121476,-975.189958734012,1070.2289931651553,-612.4819672124659,1070.2786128728858,-451.1397524040719C1070.3282325806163,-289.7975375956779,959.4773343390572,-296.75169706711347,960.2977182463826,-111.94671114963617C961.118102153708,72.85827476784112,1079.1860936150192,472.354854079667,1075.2009163168382,657.6901631007918C1071.2157390186571,843.0254721219166,938.7075463515886,847.2386758527862,936.3866544572959,1000.0651429771125C934.0657625630032,1152.8916101014388,1057.3400073606313,1381.3264896762687,1061.2755649510818,1574.64896584675C1065.2111225415324,1767.971442017231,976.8792608251803,2062.441494307792,960,2160L 1920 2160 L 1920 -1080 Z" fill="url(&quot;#SvgjsLinearGradient1018&quot;)"></path></g><defs><linearGradient x1="0.1" y1="0" x2="0" y2="1" id="SvgjsLinearGradient1017"><stop stop-color="#0000ff" offset="0"></stop><stop stop-color="#002bff" offset="0"></stop></linearGradient><linearGradient x1="0.1" y1="0" x2="0" y2="1" id="SvgjsLinearGradient1018"><stop stop-color="#e2e2ff" offset="0"></stop><stop stop-color="#e2e7ff" offset="0.5"></stop></linearGradient></defs></svg>