<svg width="426" height="306" viewBox="0 0 426 306" fill="none" xmlns="http://www.w3.org/2000/svg">
<path d="M54.8271 189.109L91.6067 97.6658C94.6562 90.0841 101.357 84.5775 109.381 83.0317C170.227 71.311 220.901 60.7196 266.5 53.4998C368.129 37.4086 387.274 24.1864 411.711 34.4864C420.824 38.3275 424.604 48.8596 422.483 58.5189L388.771 212.048C386.295 223.327 376.137 231.244 364.594 230.89L76.3581 222.053C59.6803 221.542 48.6007 204.589 54.8271 189.109Z" fill="#002bff"/>
<path d="M39.3866 189.461L76.0569 98.2897C79.1335 90.6405 85.9212 85.1059 94.0332 83.6321L378.451 31.9585C395.335 28.8911 409.89 44.0197 406.171 60.7723L372.786 211.188C370.297 222.403 360.209 230.282 348.725 229.98L61.0216 222.408C44.2976 221.968 33.1437 204.982 39.3866 189.461Z" fill="#0d6efd"/>
<path opacity="0.3" d="M174.958 82.467C141.812 90.6043 115.645 116.442 107.968 149.629C102.265 174.329 107.269 199.788 145.677 209.047C228.72 229.068 318.414 222.463 329.159 182.421C339.904 142.379 319.993 73.685 272.481 69.4381C245.448 67.0189 204.861 75.0728 174.958 82.467Z" fill="#E6E6E6"/>
<path opacity="0.25" d="M203 275.906C280.286 275.906 342.938 269.89 342.938 262.468C342.938 255.046 280.286 249.029 203 249.029C125.714 249.029 63.062 255.046 63.062 262.468C63.062 269.89 125.714 275.906 203 275.906Z" fill="#E6E6E6"/>
<path d="M108.646 259.352H166.673L166.673 73.4949H108.646L108.646 259.352Z" fill="#E6E6E6"/>
<path opacity="0.57" d="M154.615 259.352H166.673L166.673 73.4949H154.615L154.615 259.352Z" fill="#C9C9C9"/>
<path d="M108.656 83.1172H154.615V81.5033H108.656V83.1172Z" fill="#C9C9C9"/>
<path d="M108.656 92.8613H154.615V91.2475H108.656V92.8613Z" fill="#C9C9C9"/>
<path d="M108.656 102.605H154.615V100.991H108.656V102.605Z" fill="#C9C9C9"/>
<path d="M108.656 112.349H154.615V110.736H108.656V112.349Z" fill="#C9C9C9"/>
<path d="M108.656 122.093H154.615V120.479H108.656V122.093Z" fill="#C9C9C9"/>
<path d="M108.656 131.837H154.615V130.223H108.656V131.837Z" fill="#C9C9C9"/>
<path d="M108.656 141.581H154.615V139.967H108.656V141.581Z" fill="#C9C9C9"/>
<path d="M108.656 151.325H154.615V149.711H108.656V151.325Z" fill="#C9C9C9"/>
<path d="M108.656 161.069H154.615V159.455H108.656V161.069Z" fill="#C9C9C9"/>
<path d="M108.656 170.813H154.615V169.199H108.656V170.813Z" fill="#C9C9C9"/>
<path d="M108.656 180.557H154.615V178.944H108.656V180.557Z" fill="#C9C9C9"/>
<path d="M108.656 190.301H154.615V188.687H108.656V190.301Z" fill="#C9C9C9"/>
<path d="M108.656 200.045H154.615V198.431H108.656V200.045Z" fill="#C9C9C9"/>
<path d="M108.656 209.789H154.615V208.175H108.656V209.789Z" fill="#C9C9C9"/>
<path d="M108.656 219.533H154.615V217.919H108.656V219.533Z" fill="#C9C9C9"/>
<path d="M108.656 229.277H154.615V227.663H108.656V229.277Z" fill="#C9C9C9"/>
<path d="M108.656 239.031H154.615V237.418H108.656V239.031Z" fill="#C9C9C9"/>
<path d="M108.656 248.775H154.615V247.162H108.656V248.775Z" fill="#C9C9C9"/>
<path d="M124.896 211.342H91.8879V259.037H124.896V211.342Z" fill="#C9C9C9"/>
<path d="M121.567 197.366H95.2172V211.352H121.567V197.366Z" fill="#C9C9C9"/>
<path opacity="0.44" d="M124.896 211.342H91.8879V215.017H124.896V211.342Z" fill="white"/>
<path d="M115.994 191.783H105.814V197.366H115.994V191.783Z" fill="#C9C9C9"/>
<path d="M201.508 122.347H160.999V169.017H201.508V122.347Z" fill="#C9C9C9"/>
<path opacity="0.44" d="M201.508 122.347H160.999V169.017H201.508V122.347Z" fill="white"/>
<path d="M201.508 122.347H160.999V169.017H201.508V122.347Z" fill="#CCCCCC"/>
<path d="M218.174 169.067H160.999V259.352H218.174V169.067Z" fill="#E6E6E6"/>
<path opacity="0.34" d="M209.922 217.412H166.673V222.061H209.922V217.412Z" fill="white"/>
<path opacity="0.18" d="M209.922 226.801H166.673V231.449H209.922V226.801Z" fill="white"/>
<path opacity="0.52" d="M195.245 130.467H166.673V144.17H195.245V130.467Z" fill="white"/>
<path d="M118.146 202.512H98.8712V206.227H118.146V202.512Z" fill="white"/>
<path d="M209.922 177.685H166.673V182.334H209.922V177.685Z" fill="white"/>
<path d="M113.335 220.498C113.984 220.498 114.606 220.755 115.065 221.214C115.523 221.673 115.781 222.295 115.781 222.944V233.185H110.899V222.944C110.899 222.297 111.155 221.676 111.612 221.218C112.068 220.759 112.688 220.5 113.335 220.498Z" fill="white"/>
<path d="M103.439 220.467C104.087 220.467 104.71 220.725 105.168 221.184C105.627 221.642 105.885 222.264 105.885 222.913V233.114H100.992V222.913C100.992 222.264 101.25 221.642 101.709 221.184C102.168 220.725 102.79 220.467 103.439 220.467Z" fill="white"/>
<path opacity="0.52" d="M113.335 241.701C113.984 241.701 114.606 241.959 115.065 242.417C115.523 242.876 115.781 243.498 115.781 244.147V254.348H110.899V244.147C110.899 243.5 111.155 242.879 111.612 242.421C112.068 241.963 112.688 241.704 113.335 241.701Z" fill="white"/>
<path opacity="0.52" d="M103.439 241.67C104.087 241.67 104.71 241.928 105.168 242.387C105.627 242.846 105.885 243.468 105.885 244.117V254.317H100.992V244.117C100.992 243.468 101.25 242.846 101.709 242.387C102.168 241.928 102.79 241.67 103.439 241.67Z" fill="white"/>
<path d="M190.13 154.462C190.13 154.928 188.993 158.43 190.13 160.856C190.817 162.318 191.751 163.65 192.891 164.794C192.891 164.794 190.455 165.718 191.256 166.51C192.058 167.301 192.708 168.793 196.636 166.936C200.564 165.078 201.64 163.789 201.417 161.861C201.193 159.932 196.281 151.64 196.281 151.64L190.13 154.462Z" fill="#002bff"/>
<path d="M234.78 96.4138C234.78 96.4138 175.595 98.9716 172.032 110.37C166.318 128.874 189.034 156.898 189.034 156.898L198.169 153.508C198.169 153.508 186.354 126.478 189.572 122.895C199.63 111.781 223.3 120.52 223.3 120.52L234.78 96.4138Z" fill="#002bff"/>
<path opacity="0.46" d="M234.78 96.4138C234.78 96.4138 175.595 98.9716 172.032 110.37C166.318 128.874 189.034 156.898 189.034 156.898L198.169 153.508C198.169 153.508 186.354 126.478 189.572 122.895C199.63 111.781 223.3 120.52 223.3 120.52L234.78 96.4138Z" fill="white"/>
<path d="M234.353 251.15C234.353 251.15 232.973 254.977 229.522 255.271C226.071 255.566 225.157 258.946 228.273 259.829C231.39 260.712 239.388 256.713 239.388 256.713L239.164 251.719L234.353 251.15Z" fill="#002bff"/>
<path d="M281.155 251.15C281.155 251.15 282.525 254.977 285.986 255.271C289.448 255.566 290.341 258.946 287.235 259.829C284.129 260.712 276.07 256.713 276.07 256.713L276.293 251.719L281.155 251.15Z" fill="#002bff"/>
<path d="M240.007 95.8859C255.394 96.1649 270.582 99.4114 284.738 105.447C286.908 106.366 288.867 107.72 290.494 109.425C292.121 111.131 293.382 113.151 294.198 115.363C295.014 117.574 295.368 119.929 295.239 122.282C295.11 124.635 294.5 126.937 293.447 129.046L269.087 177.604L223.96 174.934C223.96 174.934 215.748 147.641 217.403 116.775C217.733 111.044 220.273 105.664 224.489 101.768C228.705 97.872 234.268 95.7634 240.007 95.8859Z" fill="#002bff"/>
<path d="M269.107 177.604L282.596 251.851H275.857L258.947 211.535C252.96 197.262 242.408 185.378 228.943 177.746L223.98 174.934L269.107 177.604Z" fill="#24285B"/>
<path d="M223.98 174.934L230.953 251.851H239.905C239.905 251.851 237.814 193.996 253.983 181.653L223.98 174.934Z" fill="#24285B"/>
<path opacity="0.08" d="M272.101 109.02C272.101 109.02 260.571 116.43 264.204 139.216C265.262 145.876 264.833 152.687 262.946 159.161C261.06 165.635 257.763 171.611 253.293 176.66L269.107 177.604C269.107 177.604 279.257 156.451 281.957 151.965C284.657 147.478 272.101 109.02 272.101 109.02Z" fill="black"/>
<path d="M269.757 115.922C269.757 105.599 282.607 100.839 289.509 108.502C295.534 115.033 299.376 123.277 300.501 132.091C303.241 154.756 300.227 204.237 300.227 204.237H292.016C292.016 204.237 286.474 154.786 274.385 132.091C271.005 125.767 269.777 120.388 269.757 115.922Z" fill="#002bff"/>
<path opacity="0.46" d="M269.757 115.922C269.757 105.599 282.607 100.839 289.509 108.502C295.534 115.033 299.376 123.277 300.501 132.091C303.241 154.756 300.227 204.237 300.227 204.237H292.016C292.016 204.237 286.474 154.786 274.385 132.091C271.005 125.767 269.777 120.388 269.757 115.922Z" fill="white"/>
<path d="M303.15 218.518V215.027C303.15 213.753 302.644 212.532 301.744 211.632C300.844 210.731 299.622 210.226 298.349 210.226H293.863C292.59 210.226 291.368 210.731 290.468 211.632C289.568 212.532 289.062 213.753 289.062 215.027V218.782" stroke="#24285B" stroke-width="2.03" stroke-miterlimit="10"/>
<path d="M278.455 239.427H312.671V217.138H278.455V239.427Z" fill="#FFD200"/>
<path opacity="0.08" d="M312.671 227.592C312.671 227.592 299.851 238.605 278.455 235.367V239.427H312.671V227.592Z" fill="black"/>
<path d="M298.796 204.237C298.796 204.237 301.262 212.357 298.024 212.357C294.786 212.357 290.919 213.91 293.355 204.237H298.796Z" fill="#002bff"/>
<path d="M241.793 74.906C241.211 77.8796 241.033 80.9183 241.266 83.9395C241.316 84.2959 241.437 84.6387 241.621 84.9481C241.805 85.2576 242.048 85.5276 242.337 85.7427C242.626 85.9578 242.954 86.1137 243.303 86.2014C243.652 86.2891 244.015 86.3069 244.371 86.2537C245.534 86.1455 246.641 85.7053 247.561 84.9854C248.481 84.2656 249.174 83.2965 249.558 82.1937L251.72 77.677C252.049 76.7207 252.073 75.686 251.789 74.7154C251.506 73.7448 250.928 72.8859 250.137 72.2569C247.274 69.7701 242.26 71.6174 241.793 74.906Z" fill="#002bff"/>
<path d="M250.573 78.9355L253.557 96.5255L243.752 97.4796L245.518 84.2947L250.573 78.9355Z" fill="#002bff"/>
<path d="M241.306 78.3062L239.54 80.2346C239.444 80.3439 239.376 80.4756 239.344 80.6176C239.311 80.7596 239.315 80.9074 239.354 81.0477C239.394 81.1879 239.468 81.3161 239.569 81.4205C239.671 81.525 239.797 81.6023 239.936 81.6455L241.966 82.2646L241.306 78.3062Z" fill="#002bff"/>
<path opacity="0.31" d="M245.315 86.01C245.315 86.01 246.574 85.9085 248.979 84.051C248.979 84.051 248.979 87.6137 244.757 89.8873L245.315 86.01Z" fill="#CE8172"/>
<path d="M248.573 79.098C248.481 79.5653 248.226 79.985 247.855 80.2838C247.484 80.5826 247.02 80.7413 246.543 80.7321C244.498 80.5446 242.46 81.1679 240.87 82.4678C238.139 85.0459 241.712 89.1059 245.112 87.5428C248.513 85.9797 252.623 79.2299 252.623 79.2299C252.623 79.2299 255.262 73.7083 253.892 70.6938C252.522 67.6792 243.823 64.3703 241.215 70.3588C239.54 74.1854 243.245 75.3628 246.148 75.718C246.531 75.767 246.9 75.8934 247.233 76.0894C247.566 76.2854 247.855 76.547 248.084 76.8584C248.313 77.1697 248.476 77.5242 248.564 77.9005C248.651 78.2768 248.662 78.6669 248.594 79.0472L248.573 79.098Z" fill="#24285B"/>
<path d="M246.716 78.692C246.716 78.692 246.98 76.6112 248.523 76.9462C250.066 77.2811 249.71 80.2754 247.508 80.3363L246.716 78.692Z" fill="#002bff"/>
<path d="M238.667 98.4741C238.667 98.4741 229.461 144.768 241.59 167.322C241.59 167.322 246.868 118.003 262.144 98.3016C262.144 98.3422 250.705 93.6224 238.667 98.4741Z" fill="white"/>
<path opacity="0.27" d="M238.667 98.4741L226.112 123.636L231.917 137.298L227.654 149.234L241.57 167.322C241.57 167.322 229.867 153.853 238.667 98.4741Z" fill="white"/>
<path d="M243.884 97.2764C244.097 95.9366 244.95 96.2614 246.29 96.0787C247.477 95.896 249.132 94.6069 250.096 95.9873C251.953 98.6466 247.579 102.686 247.579 102.686L244.047 102.25C243.782 100.606 243.727 98.9344 243.884 97.2764Z" fill="#24285B"/>
<path d="M244.047 102.25L247.579 102.686C247.579 102.686 244.534 130.091 244.838 146.545L241.57 167.322C241.57 167.322 235.226 156.218 235.632 143.043C235.653 143.043 239.185 117.475 244.047 102.25Z" fill="#24285B"/>
<path d="M238.667 98.4743L242.585 102.078L246.645 97.4897L249.69 102.412L262.103 98.3525C262.103 98.3525 248.675 90.8415 238.667 98.4743Z" fill="#002bff"/>
<path opacity="0.55" d="M238.667 98.4743L242.585 102.078L246.645 97.4897L249.69 102.412L262.103 98.3525C262.103 98.3525 248.675 90.8415 238.667 98.4743Z" fill="white"/>
<path opacity="0.27" d="M262.144 98.3423L259.779 133.38L249.964 137.704L253.953 149.701L241.57 167.322C241.57 167.322 247.122 117.759 262.144 98.3423Z" fill="white"/>
</svg>
