<svg width="735" height="495" viewBox="0 0 735 495" fill="none" xmlns="http://www.w3.org/2000/svg">
<path d="M62.574 138.829C45.3085 91.8341 80.0909 42 130.157 42L639.138 42C687.097 42 721.651 88.0058 708.286 134.065L640.034 369.28C630.465 402.256 598.943 423.887 564.732 420.952L198.89 389.57C171.045 387.182 147.098 368.896 137.46 342.663L62.574 138.829Z" fill="#243E90"/>
<path opacity="0.3" d="M135.534 138.132C88.0134 166.816 59.8525 219.423 64.2614 274.411C66.5985 302.471 77.1402 329.596 105.003 344.373C179.309 383.779 503.715 384.518 551.716 314.818C599.717 245.119 581.866 145.964 477.46 104.654C386.96 68.8272 258.272 64.0984 135.534 138.132Z" fill="#E6E6E6"/>
<path d="M470.216 339.447V297.808C470.216 295.786 471.026 293.847 472.468 292.415C473.909 290.984 475.866 290.178 477.907 290.173H508.554C510.595 290.178 512.552 290.984 513.993 292.415C515.435 293.847 516.245 295.786 516.245 297.808V339.447" stroke="#FFD200" stroke-width="2.03" stroke-miterlimit="10"/>
<path opacity="0.08" d="M470.216 339.447V297.808C470.216 295.786 471.026 293.847 472.468 292.415C473.909 290.984 475.866 290.178 477.907 290.173H508.554C510.595 290.178 512.552 290.984 513.993 292.415C515.435 293.847 516.245 295.786 516.245 297.808V339.447" stroke="black" stroke-width="2.03" stroke-miterlimit="10"/>
<path d="M263.973 240.505C263.973 240.505 233.575 252.59 243.404 287.595C253.233 322.601 254.144 326.394 276.073 324.243C298.002 322.092 283.797 287.595 283.797 287.595L263.973 240.505Z" fill="#FFD200"/>
<path d="M252.553 132.435C252.553 132.435 168.253 151.793 146.076 200.722L220.746 206.304L239.873 194.811L252.553 132.435Z" fill="#68E1FD"/>
<path opacity="0.46" d="M252.553 132.435C252.553 132.435 168.253 151.793 146.076 200.722L220.746 206.304L239.873 194.811L252.553 132.435Z" fill="white"/>
<path opacity="0.45" d="M332.196 467.828C473.243 467.828 587.584 459.132 587.584 448.404C587.584 437.677 473.243 428.981 332.196 428.981C191.149 428.981 76.8085 437.677 76.8085 448.404C76.8085 459.132 191.149 467.828 332.196 467.828Z" fill="#E6E6E6"/>
<path d="M223.415 405.665C223.415 405.665 216.039 410.952 209.26 407.16C202.48 403.367 196.547 408.424 201.188 413.941C205.829 419.457 225.719 422.15 225.719 422.15L233.194 410.197L223.415 405.665Z" fill="#68E1FD"/>
<path d="M356.495 429.03C356.495 429.03 359.71 437.486 367.467 438.011C375.225 438.536 377.412 446.024 370.434 448.092C363.456 450.161 345.373 441.525 345.373 441.525L345.804 427.454L356.495 429.03Z" fill="#68E1FD"/>
<path opacity="0.58" d="M131.258 428.242C131.258 428.242 113.705 423.48 109.893 407.307C109.893 407.307 137.092 401.856 137.855 429.67L131.258 428.242Z" fill="#68E1FD"/>
<path opacity="0.73" d="M133.412 426.468C133.412 426.468 121.147 407.258 131.937 389.295C131.937 389.295 152.622 402.316 143.423 426.501L133.412 426.468Z" fill="#68E1FD"/>
<path d="M136.578 426.468C136.578 426.468 143.042 406.191 162.634 402.349C162.634 402.349 166.297 415.484 149.954 426.534L136.578 426.468Z" fill="#68E1FD"/>
<path d="M123.848 426.058L127.395 450.178L149.805 450.276L153.103 426.189L123.848 426.058Z" fill="#24285B"/>
<path d="M258.901 89.4988C258.901 89.4988 261.785 99.8429 265.979 105.918C266.386 106.502 266.907 107 267.51 107.384C268.113 107.768 268.786 108.03 269.492 108.155C270.197 108.28 270.921 108.266 271.621 108.113C272.321 107.96 272.983 107.672 273.57 107.264C276.603 105.13 280.084 101.37 279.222 95.6396L278.973 85.7881C278.716 83.8064 277.845 81.9525 276.479 80.4821C275.114 79.0117 273.321 77.9972 271.349 77.5786C264.106 75.559 256.912 83.3088 258.901 89.4988Z" fill="#F4A28C"/>
<path d="M280.83 90.9109L294.869 123.207L276.355 129.594L273.57 103.537L280.83 90.9109Z" fill="#F4A28C"/>
<path d="M283.2 93.0289C283.277 93.2401 283.282 93.4704 283.213 93.6842C283.144 93.898 283.005 94.0833 282.819 94.2111C281.55 95.1292 280.012 95.6102 278.44 95.5806C276.869 95.5509 275.35 95.0122 274.117 94.0469C272.701 93.0132 271.621 91.5925 271.008 89.9592C270.396 88.3258 270.278 86.5509 270.67 84.8522C267.815 86.5766 264.766 87.9652 261.587 88.9898C260.52 89.3498 259.399 89.5275 258.272 89.5152L252.835 82.9476C252.835 82.9476 245.824 76.9382 249.702 73.638C253.581 70.3377 257.592 74.6395 259.83 69.6317C262.067 64.6239 262.382 62.9491 266.907 63.5238C271.432 64.0985 268.283 68.6465 274.416 66.315C280.548 63.9835 281.642 66.4464 282.703 69.1884C282.941 70.1817 282.871 71.2229 282.504 72.1767C280.454 79.0191 280.698 86.3356 283.2 93.0289V93.0289Z" fill="#24285B"/>
<path d="M272.924 94.1454C272.924 94.1454 271.548 90.2541 274.582 89.466C277.615 88.6779 279.654 94.3917 275.858 96.2963L272.924 94.1454Z" fill="#F4A28C"/>
<path d="M261.056 95.9187L259.681 100.844C259.575 101.125 259.549 101.429 259.604 101.723C259.66 102.017 259.796 102.29 259.998 102.513C260.199 102.737 260.458 102.901 260.747 102.989C261.036 103.077 261.343 103.085 261.637 103.012L265.797 102.306L261.056 95.9187Z" fill="#F4A28C"/>
<path d="M506.714 286.463H479.598V295.165H506.714V286.463Z" fill="#24285B"/>
<path opacity="0.31" d="M274.002 107.002C274.002 107.002 276.388 106.197 280.167 101.534C280.167 101.534 281.908 108.348 274.764 114.669L274.002 107.002Z" fill="#CE8172"/>
<path d="M268.714 127.017L279.372 125.112C284.355 124.221 289.289 123.081 294.156 121.697C312.389 116.541 366.042 104.407 381.308 135.16C399.806 172.415 368.926 293.277 368.926 293.277H284.394C284.394 293.277 267.139 242.935 242.476 211.805C217.812 180.674 200.557 146.046 268.714 127.017Z" fill="#68E1FD"/>
<path opacity="0.08" d="M252.553 132.435C252.553 132.435 248.31 159.231 285.471 139.002L275.94 125.867C267.896 127.067 260.037 129.274 252.553 132.435V132.435Z" fill="black"/>
<path d="M157.33 230.588C140.49 225.4 137.97 202.676 153.236 193.859C158.776 190.768 164.955 188.971 171.303 188.605C199.613 186.536 247.846 183.925 247.846 183.925C247.846 183.925 276.885 193.284 272.327 207.306C267.769 221.328 247.332 198.998 247.332 198.998C247.332 198.998 193.364 241.688 157.33 230.588Z" fill="#F4A28C"/>
<path d="M248.199 182.14L238.283 183.508L241.096 203.511L251.011 202.142L248.199 182.14Z" fill="#24285B"/>
<path d="M248.214 179.757L238.301 181.146L239.188 187.356L249.1 185.968L248.214 179.757Z" fill="#FFD200"/>
<path d="M275.94 125.736C275.94 125.736 263.078 137.459 277.946 139.971C292.814 142.483 294.156 121.697 294.156 121.697L275.94 125.736Z" fill="#F4A28C"/>
<path d="M284.477 293.277L220.746 405.665L237.205 417.011C237.205 417.011 272.41 358.805 314.328 329.563C315.684 328.626 317.242 328.018 318.878 327.785C320.515 327.553 322.183 327.704 323.749 328.226C325.316 328.749 326.737 329.627 327.899 330.791C329.061 331.956 329.931 333.374 330.439 334.932C341.777 369.658 342.738 430.163 342.738 430.163H362.164L368.926 293.326L284.477 293.277Z" fill="#24285B"/>
<path opacity="0.08" d="M284.476 293.277C284.476 293.277 316.218 268.648 327.439 233.495C328.036 231.71 329.094 230.111 330.508 228.857C331.921 227.602 333.641 226.735 335.497 226.342C337.353 225.949 339.28 226.043 341.088 226.615C342.896 227.187 344.522 228.217 345.804 229.603L375.97 261.916L382.053 228.142L359.992 158.985L318.24 132.435L309.952 164.469L284.476 293.277Z" fill="black"/>
<path d="M270.769 262.179C270.769 262.179 290.345 242.935 294.157 178.671C297.323 125.21 305.063 114.768 321.224 111.024C346.186 105.212 352.136 112.568 359.993 123.552C359.993 123.552 320.08 125.999 321.472 150.742C322.865 175.486 317.312 263.624 284.477 293.277C284.477 293.277 269.245 292.012 270.769 262.179Z" fill="#FFD200"/>
<path opacity="0.46" d="M270.769 262.179C270.769 262.179 290.345 242.935 294.157 178.671C297.323 125.21 305.063 114.768 321.224 111.024C346.186 105.212 352.136 112.568 359.993 123.552C359.993 123.552 320.08 125.999 321.472 150.742C322.865 175.486 317.312 263.624 284.477 293.277C284.477 293.277 269.245 292.012 270.769 262.179Z" fill="white"/>
<path d="M325.484 155.159C317.196 135.456 340.285 110.597 360.291 118.282C377.397 124.849 395.679 139.364 405.607 168.59C429.194 238.059 482.333 271.636 482.333 271.636C482.333 271.636 509.45 276.069 509.45 285.839C509.45 295.608 477.394 285.839 477.394 285.839C477.394 285.839 394.187 251.638 351.026 196.683C338.13 180.182 330.208 166.373 325.484 155.159Z" fill="#F4A28C"/>
<path d="M375.175 222.149C375.175 222.149 408.225 211.066 416.612 194.86C416.612 194.86 404.645 130.974 362.13 117.231C348.141 112.715 332.511 117.789 325.185 130.366C316.3 145.701 318.24 173.975 375.175 222.149Z" fill="#68E1FD"/>
<path opacity="0.46" d="M375.175 222.149C375.175 222.149 408.225 211.066 416.612 194.86C416.612 194.86 404.645 130.974 362.13 117.231C348.141 112.715 332.511 117.789 325.185 130.366C316.3 145.701 318.24 173.975 375.175 222.149Z" fill="white"/>
<path d="M536.45 327.067H449.995V437.945H536.45V327.067Z" fill="#FFD200"/>
<path d="M472.123 437.945H461.564V448.404H472.123V437.945Z" fill="#24285B"/>
<path d="M523.438 437.945H512.88V448.404H523.438V437.945Z" fill="#24285B"/>
<path opacity="0.08" d="M476.349 347.673H464.332V413.924H476.349V347.673Z" fill="black"/>
<path opacity="0.08" d="M499.239 347.673H487.222V413.924H499.239V347.673Z" fill="black"/>
<path opacity="0.08" d="M520.737 347.673H508.72V413.924H520.737V347.673Z" fill="black"/>
</svg>
