<svg width="338" height="247" viewBox="0 0 338 247" fill="none" xmlns="http://www.w3.org/2000/svg">
<path opacity="0.45" d="M175.143 220.587C242.844 220.587 297.727 213.185 297.727 204.053C297.727 194.922 242.844 187.52 175.143 187.52C107.442 187.52 52.559 194.922 52.559 204.053C52.559 213.185 107.442 220.587 175.143 220.587Z" fill="#E6E6E6"/>
<path d="M99.1692 204.832C99.1692 204.832 98.3242 207.502 95.9244 207.83C93.5246 208.158 93.0007 210.501 95.223 210.984C97.4454 211.468 102.938 208.445 102.938 208.445L102.583 205.045L99.1692 204.832Z" fill="#68E1FD"/>
<path opacity="0.58" d="M241.121 191.182C241.121 191.182 233.355 189.159 231.64 182.17C231.64 182.17 243.647 179.769 244.044 191.797L241.121 191.182Z" fill="#68E1FD"/>
<path opacity="0.73" d="M242.076 190.428C242.076 190.428 236.617 182.145 241.349 174.354C241.349 174.354 250.517 179.95 246.503 190.428H242.076Z" fill="#68E1FD"/>
<path d="M243.47 190.429C243.47 190.429 246.292 181.646 254.945 179.95C254.945 179.95 256.635 185.636 249.385 190.429H243.47Z" fill="#68E1FD"/>
<path d="M237.842 190.256L239.456 200.686H249.368L250.779 190.256H237.842Z" fill="#24285B"/>
<path d="M222.852 39.0142H126.412V204.053H222.852V39.0142Z" fill="#C9C9C9"/>
<path d="M214.216 58.1365H134.389V176.156H214.216V58.1365Z" fill="white"/>
<path d="M197.831 97.6511H151.669V160.098H197.831V97.6511Z" fill="#E6E6E6"/>
<path opacity="0.08" d="M178.084 109.359L179.985 100.445L188.435 107.688L196.674 134.765L199.209 133.536L201.516 138.854L197.84 140.705L204.701 154.322C204.701 154.322 185.266 182.563 147.664 170.331L142.171 176.992L163.719 204.029H126.412L127.02 165.055L126.412 122.943V100.412C126.412 100.412 133.865 98.7737 136.966 103.37C138.804 106.089 139.46 109.402 138.791 112.587L135.623 113.021L136.966 128.457L149.776 145.572L159.494 161.597L174.636 161.393L189.069 156.272L194.223 148.669L187.801 135.56L178.084 109.359Z" fill="black"/>
<path opacity="0.56" d="M174.636 198.785C179.849 198.785 184.075 194.688 184.075 189.634C184.075 184.579 179.849 180.482 174.636 180.482C169.423 180.482 165.198 184.579 165.198 189.634C165.198 194.688 169.423 198.785 174.636 198.785Z" fill="white"/>
<path opacity="0.12" d="M193.513 45.5684H166.473V49.3945H193.513V45.5684Z" fill="black"/>
<path d="M156.68 52.1718C159.111 52.1718 161.082 50.2608 161.082 47.9033C161.082 45.5459 159.111 43.6348 156.68 43.6348C154.249 43.6348 152.277 45.5459 152.277 47.9033C152.277 50.2608 154.249 52.1718 156.68 52.1718Z" fill="white"/>
<path d="M113.103 106.459C113.103 106.459 111.979 111.006 112.309 114.185C112.342 114.492 112.436 114.79 112.588 115.061C112.739 115.333 112.945 115.573 113.192 115.768C113.439 115.963 113.723 116.108 114.028 116.197C114.334 116.285 114.654 116.314 114.971 116.282C116.001 116.235 116.995 115.9 117.834 115.319C118.674 114.738 119.322 113.934 119.703 113.005L121.748 109.171C122.073 108.362 122.131 107.475 121.915 106.633C121.698 105.791 121.218 105.034 120.539 104.468C118.139 102.198 113.636 103.657 113.103 106.459Z" fill="#F4A28C"/>
<path d="M121.672 111.014L124.291 123.656L116.289 125.581L117.599 113.316L121.672 111.014Z" fill="#F4A28C"/>
<path d="M117.556 111.153C117.556 111.153 117.869 109.375 119.246 109.711C120.624 110.047 120.176 112.611 118.266 112.587L117.556 111.153Z" fill="#F4A28C"/>
<path d="M112.546 109.359L110.949 110.948C110.857 111.038 110.791 111.149 110.755 111.27C110.72 111.391 110.717 111.519 110.746 111.642C110.776 111.765 110.837 111.878 110.924 111.972C111.011 112.065 111.121 112.136 111.244 112.177L113.019 112.775L112.546 109.359Z" fill="#F4A28C"/>
<path opacity="0.31" d="M117.387 115.307C118.281 114.761 119.077 114.077 119.745 113.283C119.745 113.283 120.911 117.912 116.94 119.526L117.387 115.307Z" fill="#CE8172"/>
<path d="M112.85 100.38C112.85 100.38 109.292 103.583 113.424 105.574C117.556 107.565 117.877 106.713 117.877 106.713C117.877 106.713 115.748 112.12 119.703 113.021L121.883 112.202C121.883 112.202 126.682 106.18 124.367 103.435C124.367 103.419 121.105 94.9721 112.85 100.38Z" fill="#24285B"/>
<path d="M117.362 124.319C117.362 124.319 143.397 118.871 147.926 129.923C152.455 140.976 134.642 175.804 134.642 175.804L109.85 174.526C109.85 174.526 79.5652 138.698 117.362 124.319Z" fill="#68E1FD"/>
<path opacity="0.08" d="M121.68 139.665L130.4 144.056C130.4 144.056 130.257 162.417 116.931 174.895L109.842 174.526C109.184 173.78 108.58 172.992 108.033 172.166C107.442 171.175 121.68 139.665 121.68 139.665Z" fill="black"/>
<path d="M117.202 111.759C117.202 111.759 118.984 108.408 120.582 110.121C122.179 111.833 119.187 115.028 117.202 111.759Z" fill="#F4A28C"/>
<path d="M73.1178 129.456L100.555 118.297L122.086 136.65C122.086 136.65 120.218 161.671 105.515 174.706C103.797 176.255 101.762 177.437 99.5429 178.174C97.3235 178.912 94.9691 179.189 92.6322 178.987C90.2953 178.785 88.0282 178.11 85.978 177.004C83.9278 175.898 82.1402 174.386 80.7313 172.568C74.7402 164.874 69.29 151.495 73.1178 129.456Z" fill="#FFD200"/>
<path opacity="0.57" d="M80.5623 135.855L98.7382 128.481L113.019 140.648C113.019 140.648 111.777 157.255 102.034 165.899C100.893 166.928 99.5415 167.712 98.0675 168.201C96.5935 168.69 95.0297 168.873 93.478 168.738C91.9263 168.603 90.4213 168.152 89.0608 167.416C87.7004 166.68 86.5149 165.675 85.5816 164.465C81.6354 159.353 78.0104 150.48 80.5623 135.855Z" fill="white"/>
<path d="M133.789 126.032C135.49 124.876 137.532 124.286 139.608 124.35C141.684 124.413 143.683 125.127 145.306 126.384C148.94 129.112 154.052 134.421 157.432 144.073C163.153 160.458 175.329 161.491 189.702 149.226L193.454 153.92C193.454 153.92 161.902 184.038 137.735 149.717C127.494 135.2 129.809 128.834 133.789 126.032Z" fill="#68E1FD"/>
<path opacity="0.2" d="M133.789 126.032C135.49 124.876 137.532 124.286 139.608 124.35C141.684 124.413 143.683 125.127 145.306 126.384C148.94 129.112 154.052 134.421 157.432 144.073C163.153 160.458 175.329 161.491 189.702 149.226L193.454 153.92C193.454 153.92 161.902 184.038 137.735 149.717C127.494 135.2 129.809 128.834 133.789 126.032Z" fill="white"/>
<path d="M109.85 174.526L99.1016 182.719C96.5893 184.634 94.7987 187.3 94.0073 190.302C93.216 193.305 93.4681 196.477 94.7245 199.326L97.5975 205.831H102.668L101.189 197.294C100.876 195.499 101.142 193.655 101.949 192.011C102.757 190.368 104.067 189.006 105.701 188.11V188.11C112.762 184.234 120.141 180.932 127.764 178.237L134.668 175.779L109.85 174.526Z" fill="#24285B"/>
<path d="M187.531 140.722L170.208 112.825L170.944 102.567L180.281 108.294L192.635 138.845L187.531 140.722Z" fill="#FFD200"/>
<path d="M185.427 141.123L187.1 144.236L189.669 142.934L195.803 154.338L199.226 152.61L193.091 141.205L195.66 139.91L193.987 136.797L185.427 141.123Z" fill="#FFD200"/>
<path opacity="0.57" d="M185.427 141.123L187.1 144.236L189.669 142.934L195.803 154.338L199.226 152.61L193.091 141.205L195.66 139.91L193.987 136.797L185.427 141.123Z" fill="white"/>
<path opacity="0.08" d="M170.943 102.567L189.922 138.854L192.178 137.715L180.281 108.294L170.943 102.567Z" fill="black"/>
<path d="M134.642 175.796L156.781 204.422L151.179 207.183C151.179 207.183 133.29 184.431 117.142 179.663L134.642 175.796Z" fill="#24285B"/>
<path d="M190.615 150.365C190.615 150.365 192.956 145.719 194.95 145.236C196.944 144.753 201.279 150.873 192.778 153.077L190.615 150.365Z" fill="#F4A28C"/>
<path d="M155.252 205.43C155.252 205.43 157.009 207.625 159.392 207.068C161.775 206.511 163.119 208.543 161.226 209.772C159.333 211.001 153.08 210.091 153.08 210.091L152.142 206.814L155.252 205.43Z" fill="#68E1FD"/>
<path opacity="0.45" d="M62.3356 114.979C76.6487 114.979 88.2518 103.729 88.2518 89.8515C88.2518 75.9738 76.6487 64.7236 62.3356 64.7236C48.0225 64.7236 36.4195 75.9738 36.4195 89.8515C36.4195 103.729 48.0225 114.979 62.3356 114.979Z" fill="#E6E6E6"/>
<path d="M74.36 84.993C73.9641 82.991 73.0445 81.1211 71.6894 79.5624C70.3344 78.0038 68.5892 76.8087 66.6211 76.0915C64.6531 75.3744 62.528 75.1593 60.4496 75.4668C58.3712 75.7743 56.4091 76.5942 54.7512 77.8479C53.0933 79.1015 51.7952 80.747 50.9813 82.6265C50.1674 84.5061 49.865 86.5568 50.1029 88.5823C50.3409 90.6077 51.1113 92.5399 52.3403 94.1939C53.5693 95.8478 55.2158 97.168 57.122 98.0281L58.567 105.303L62.1329 104.64L61.0344 99.085C61.6267 99.1425 62.2226 99.1589 62.8173 99.1341L63.8482 104.32L67.4141 103.657L66.3917 98.4705C67.0243 98.2448 67.6374 97.9708 68.2253 97.6512L69.3407 103.272L72.9066 102.608L71.4363 95.1769C72.7013 93.8134 73.6236 92.1845 74.1308 90.4177C74.6381 88.6508 74.7165 86.7942 74.36 84.993V84.993ZM58.1276 92.6699C56.0742 93.0549 54.0462 91.5228 53.5984 89.2452C53.1505 86.9676 54.4434 84.821 56.4967 84.4359C58.5501 84.0509 60.5696 85.5911 61.0259 87.8606C61.4822 90.13 60.2063 92.2848 58.1529 92.6617L58.1276 92.6699ZM68.0563 90.8182C66.0114 91.2033 63.9834 89.6712 63.5271 87.3936C63.0708 85.1159 64.3721 82.9694 66.4255 82.5843C68.4788 82.1992 70.4984 83.7395 70.9547 86.009C71.411 88.2784 70.135 90.4332 68.0817 90.8101L68.0563 90.8182Z" fill="#C9C9C9"/>
<path opacity="0.45" d="M271.684 122.779C285.997 122.779 297.601 111.529 297.601 97.6513C297.601 83.7736 285.997 72.5234 271.684 72.5234C257.371 72.5234 245.768 83.7736 245.768 97.6513C245.768 111.529 257.371 122.779 271.684 122.779Z" fill="#E6E6E6"/>
<path d="M284.697 98.6754C285.291 96.7198 285.357 94.6491 284.889 92.6616C284.421 90.6742 283.434 88.8367 282.023 87.3251C280.613 85.8135 278.825 84.6785 276.832 84.0288C274.839 83.3792 272.707 83.2367 270.641 83.6149C268.575 83.9932 266.644 84.8796 265.033 86.1891C263.421 87.4986 262.184 89.1875 261.439 91.0938C260.693 93.0001 260.466 95.06 260.777 97.0761C261.089 99.0923 261.929 100.997 263.217 102.608L261.105 109.728L264.595 110.719L266.243 105.287C266.74 105.595 267.26 105.869 267.797 106.106L266.226 111.211L269.716 112.202L271.245 107.114C271.911 107.207 272.584 107.242 273.256 107.221L271.566 112.718L275.056 113.71L277.253 106.451C279.031 105.803 280.629 104.764 281.921 103.414C283.213 102.065 284.163 100.442 284.697 98.6754V98.6754ZM266.64 98.2985C264.637 97.725 263.555 95.4637 264.231 93.2434C264.907 91.0231 267.071 89.6795 269.073 90.253C271.076 90.8265 272.158 93.0878 271.482 95.3081C270.806 97.5284 268.642 98.872 266.64 98.2985V98.2985ZM276.315 101.06C274.312 100.486 273.231 98.2248 273.907 96.0045C274.583 93.7842 276.746 92.4405 278.749 93.014C280.751 93.5876 281.833 95.8406 281.165 98.0691C280.498 100.298 278.343 101.625 276.315 101.06Z" fill="#C9C9C9"/>
<path opacity="0.45" d="M198.617 70.4751H151.669V86.0172H198.617V70.4751Z" fill="#E6E6E6"/>
<path d="M158.936 80.2985C160.126 80.2985 161.091 79.3632 161.091 78.2093C161.091 77.0555 160.126 76.1201 158.936 76.1201C157.746 76.1201 156.781 77.0555 156.781 78.2093C156.781 79.3632 157.746 80.2985 158.936 80.2985Z" fill="#C9C9C9"/>
<path d="M166.473 80.2985C167.663 80.2985 168.628 79.3632 168.628 78.2093C168.628 77.0555 167.663 76.1201 166.473 76.1201C165.283 76.1201 164.319 77.0555 164.319 78.2093C164.319 79.3632 165.283 80.2985 166.473 80.2985Z" fill="#C9C9C9"/>
<path d="M174.357 80.2985C175.547 80.2985 176.512 79.3632 176.512 78.2093C176.512 77.0555 175.547 76.1201 174.357 76.1201C173.167 76.1201 172.203 77.0555 172.203 78.2093C172.203 79.3632 173.167 80.2985 174.357 80.2985Z" fill="#C9C9C9"/>
<path d="M181.895 80.2985C183.085 80.2985 184.049 79.3632 184.049 78.2093C184.049 77.0555 183.085 76.1201 181.895 76.1201C180.705 76.1201 179.74 77.0555 179.74 78.2093C179.74 79.3632 180.705 80.2985 181.895 80.2985Z" fill="#C9C9C9"/>
<path d="M190.024 80.2985C191.214 80.2985 192.178 79.3632 192.178 78.2093C192.178 77.0555 191.214 76.1201 190.024 76.1201C188.834 76.1201 187.869 77.0555 187.869 78.2093C187.869 79.3632 188.834 80.2985 190.024 80.2985Z" fill="#C9C9C9"/>
</svg>
