<svg width="338" height="251" viewBox="0 0 338 251" fill="none" xmlns="http://www.w3.org/2000/svg">
<path opacity="0.18" d="M134.18 39.5378C125.421 41.005 84.7674 49.1319 77.3743 69.6893C71.7852 85.2553 97.2554 126.257 87.4801 151.212C67.8212 201.404 129.91 206.349 146.338 202.552C157.79 199.907 169.247 196.815 181.332 195.97C193.995 195.088 206.597 197.054 219.355 196.532C251.64 195.211 282.341 179.005 290.297 159.087C293.703 150.563 297.287 143.543 296.831 134.904C295.902 117.374 292.894 75.8263 243.891 58.4354C235.13 55.3273 228.413 50.4263 220.132 46.8732C209.042 42.1007 195.863 39.3346 182.327 38.0091C166.549 36.4544 149.962 36.8959 134.18 39.5378Z" fill="#E6E6E6"/>
<path d="M144.803 221.919C146.868 222.943 149.047 223.727 151.296 224.254C156.205 225.551 161.18 226.594 166.2 227.379C170.812 228.104 175.57 229.002 180.213 228.959L212.415 228.647L224.01 228.534C227.741 228.499 231.525 228.456 235.12 227.457C238.715 226.459 242.169 224.376 243.931 221.151C244.396 220.416 244.625 219.559 244.587 218.694C244.38 216.827 242.358 215.764 240.565 215.139C232.34 212.283 223.539 211.814 214.9 211.541C210.596 211.402 206.288 211.832 201.97 211.845C197.292 211.845 192.614 211.749 187.935 211.931C179.728 212.257 171.583 213.503 163.389 214.015C156.486 214.449 149.468 214.379 142.803 216.185C141.975 216.411 141.041 216.784 140.816 217.6C140.618 218.342 141.129 219.076 141.666 219.627C142.587 220.545 143.645 221.318 144.803 221.919V221.919Z" fill="url(#paint0_linear)"/>
<path opacity="0.5" d="M175.936 26.4116C175.936 26.4116 190.914 33.0265 197.121 47.5366C203.328 62.0468 203.478 64.842 203.478 64.842C203.478 64.842 215.716 43.717 234.575 47.2805C253.434 50.8441 256.271 61.2785 256.271 61.2785C256.271 61.2785 222.931 72.9978 213.641 72.9978H204.35V165.745H197.033L199.782 72.4769C199.782 72.4769 184.711 72.2208 169.605 52.1158C154.5 32.0108 150.883 28.9551 142.381 29.2025C142.381 29.2025 160.442 21.3203 175.936 26.4116Z" fill="#68E1FD"/>
<path d="M221.27 220.118L168.059 218.846L158.244 168.987H231.605L221.27 220.118Z" fill="white"/>
<path d="M221.27 220.118L168.059 218.846L158.244 168.987H231.605L221.27 220.118Z" fill="url(#paint1_linear)"/>
<path d="M221.27 220.118L178.394 219.093L170.473 183.914H228.376L221.27 220.118Z" fill="white"/>
<path d="M202.777 106.754C201.664 107.251 200.643 107.931 199.759 108.763C199.323 109.184 198.98 109.689 198.753 110.247C198.525 110.806 198.418 111.404 198.438 112.005C198.552 113.46 199.614 114.662 200.729 115.621C202.01 116.724 203.561 117.882 203.662 119.554C204.579 118.889 205.403 118.104 206.345 117.47C207.997 116.363 209.936 115.769 211.751 114.948C213.566 114.128 215.358 112.978 216.222 111.207C216.686 110.089 216.952 108.902 217.01 107.695C217.198 106.402 217.234 105.091 217.116 103.789C216.993 102.479 216.412 101.252 215.473 100.317C214.779 99.7441 213.991 99.2934 213.143 98.9841C212.336 98.6008 211.466 98.3612 210.574 98.2766C208.689 98.1941 206.61 99.748 205.936 101.48C205.566 102.456 205.742 103.568 205.372 104.518C204.936 105.69 203.812 106.241 202.777 106.754Z" fill="#FF681C"/>
<path d="M161.763 165.745C161.406 165.741 161.05 165.795 160.711 165.905C160.541 165.962 160.392 166.066 160.281 166.203C160.169 166.341 160.1 166.507 160.081 166.682C160.094 166.854 160.151 167.02 160.247 167.165C160.342 167.31 160.473 167.429 160.627 167.511C160.918 167.698 161.257 167.811 161.548 167.997C161.795 168.203 162.06 168.386 162.34 168.544C162.843 168.688 163.379 168.668 163.869 168.488C166.15 167.941 168.51 167.794 170.843 168.054C171.069 168.084 171.299 168.084 171.526 168.054C172.208 167.95 172.666 167.307 172.922 166.678C173.468 165.315 173.442 163.8 173.323 162.337C173.324 162.175 173.283 162.015 173.204 161.873C173.116 161.755 172.997 161.662 172.86 161.604C170.658 160.527 169.442 162.68 167.816 163.731C166.011 164.91 163.925 165.604 161.763 165.745Z" fill="#FFBAA8"/>
<path d="M215.169 133.73C215.169 133.73 215.724 141.877 208.336 144.333C200.948 146.79 187.711 144.767 187.711 144.767C187.711 144.767 182.376 154.829 176.935 159.616L173.442 163.015C173.442 163.015 171.164 163.718 169.605 161.374C169.605 161.374 179.944 141.156 181.288 139.646C182.859 137.779 184.961 136.419 187.323 135.739C190.363 134.802 202.063 131.169 202.063 131.169L215.169 133.73Z" fill="#473F47"/>
<path d="M165.856 107.036L173.772 123.586L188.389 123.486L188.27 122.24L174.825 122.093L167.38 106.432L165.856 107.036Z" fill="#473F47"/>
<path d="M204.557 96.3407C204.279 96.7747 203.72 97.0612 203.539 97.556C203.323 98.1593 203.746 98.7757 203.979 99.379C204.283 100.212 204.186 101.15 204.482 101.983C204.534 102.166 204.638 102.33 204.781 102.456C204.914 102.544 205.064 102.604 205.222 102.63C205.853 102.761 206.5 102.799 207.142 102.743C207.269 102.714 207.402 102.731 207.517 102.791C207.613 102.872 207.673 102.987 207.684 103.112C208.054 104.702 208.028 106.356 207.609 107.934C207.473 108.451 207.319 109.084 207.711 109.462C207.85 109.586 208.02 109.67 208.204 109.705C209.424 110 210.601 109.11 211.42 108.177C212.156 107.343 212.791 106.427 213.31 105.447C213.467 105.178 213.576 104.884 213.631 104.579C213.654 104.175 213.598 103.772 213.464 103.39C213.116 102.079 212.905 100.736 212.834 99.3833C212.742 97.6471 212.869 95.8415 212.195 94.2355C211.998 93.6835 211.624 93.2097 211.129 92.8857C210.538 92.6094 209.879 92.5054 209.231 92.5862C207.953 92.6339 206.548 92.8032 205.675 93.732C205.42 93.9968 204.896 95.7807 204.557 96.3407Z" fill="#FFBAA8"/>
<path d="M213.521 104.683C213.521 104.683 208.235 107.37 206.671 109.458C205.107 111.545 202.473 113.121 203.477 117.11C204.482 121.099 203.253 127.184 203.253 127.184C203.253 127.184 205.539 134.276 211.151 136.073C216.764 137.87 215.235 137.293 215.235 137.293C215.235 137.293 218.226 124.15 219.389 120.487C220.552 116.823 218.658 104.097 213.521 104.683Z" fill="#68E1FD"/>
<path d="M206.257 93.5498C206.358 94.4052 206.772 95.1951 207.42 95.7722C208.041 96.3494 208.817 96.7401 209.46 97.2913C210.103 97.8426 210.627 98.6542 210.482 99.4615C210.73 99.361 211.005 99.3494 211.26 99.4287C211.516 99.5081 211.734 99.6733 211.878 99.8956C211.946 100.052 211.968 100.224 211.942 100.392C211.916 100.56 211.842 100.717 211.729 100.846C211.613 100.972 211.471 101.071 211.311 101.137C211.152 101.202 210.98 101.232 210.808 101.224C211.474 101.489 212.046 101.942 212.451 102.526C212.892 103.181 213.121 103.967 213.53 104.648C213.971 105.408 214.733 105.864 215.416 106.385C215.755 106.604 216.035 106.902 216.231 107.253C216.382 107.776 216.566 108.289 216.782 108.789C217.178 109.484 217.817 110.013 218.288 110.66C218.905 111.528 219.539 113.143 219.482 114.184C219.447 113.812 219.447 113.437 219.482 113.065C219.614 112.839 219.742 112.631 219.861 112.383C220.066 111.976 220.224 111.548 220.332 111.107C220.583 110.087 220.412 109.08 220.416 108.069C220.416 105.898 222.508 101.766 220.83 99.8956C220.249 99.2532 219.372 98.9581 218.702 98.4068C217.218 97.2002 217.006 95.069 216.059 93.411C215.645 92.6823 215.088 92.0422 214.42 91.528C213.752 91.0138 212.987 90.6358 212.169 90.416C209.962 89.8388 205.971 90.5159 206.257 93.5498Z" fill="#FF681C"/>
<path d="M211.491 111.519C211.491 111.519 208.165 120.383 207.526 121.029C206.887 121.676 213.931 125.595 213.931 125.595C213.931 125.595 218.535 116.98 218.336 113.242C218.138 109.505 214.085 107.999 211.491 111.519Z" fill="#68E1FD"/>
<path d="M213.913 124.393C213.913 124.393 213.667 127.249 210.116 127.197C206.565 127.145 194.314 126.98 194.314 126.98C193.239 126.433 191.764 126.342 190.962 125.452C190.579 125.018 190.38 124.463 190.01 124.024C189.507 123.478 188.826 123.121 188.085 123.013C187.356 122.913 186.617 122.894 185.883 122.957C185.738 122.792 185.659 122.582 185.659 122.364C185.659 122.147 185.738 121.936 185.883 121.772C186.192 121.455 186.594 121.241 187.032 121.16C188.847 120.702 190.771 120.97 192.385 121.906C192.849 122.236 193.358 122.501 193.896 122.692C194.293 122.774 194.699 122.797 195.103 122.761C199.658 122.544 204.151 121.589 208.706 121.39C209.774 121.285 210.851 121.396 211.874 121.715C212.404 121.971 212.866 122.347 213.22 122.813C213.575 123.278 213.812 123.82 213.913 124.393V124.393Z" fill="#FFBAA8"/>
<path d="M215.552 145.444H195.129C194.647 145.444 194.257 145.829 194.257 146.304V149.807C194.257 150.281 194.647 150.666 195.129 150.666H215.552C216.034 150.666 216.424 150.281 216.424 149.807V146.304C216.424 145.829 216.034 145.444 215.552 145.444Z" fill="#473F47"/>
<path d="M198.605 150.662H194.856L192.984 167.741H196.732L198.605 150.662Z" fill="#473F47"/>
<path d="M215.177 150.662H211.433L213.913 167.741H217.658L215.177 150.662Z" fill="#473F47"/>
<path d="M223.178 116.797H219.816L212.23 145.57H215.592L223.178 116.797Z" fill="#473F47"/>
<path d="M237.632 165.749H149.116V180.359H237.632V165.749Z" fill="white"/>
<path d="M237.632 165.749H149.116V180.359H237.632V165.749Z" fill="url(#paint2_linear)"/>
<path d="M237.632 165.749H149.116V177.737H237.632V165.749Z" fill="white"/>
<path d="M163.107 125.344H160.869V165.749H163.107V125.344Z" fill="white"/>
<path d="M157.451 158.301C160.575 158.301 163.107 155.806 163.107 152.728C163.107 149.65 160.575 147.155 157.451 147.155C154.327 147.155 151.794 149.65 151.794 152.728C151.794 155.806 154.327 158.301 157.451 158.301Z" fill="#F4A28C"/>
<path d="M188.389 125.344H186.151V165.749H188.389V125.344Z" fill="white"/>
<path d="M189.627 123.586H158.244V127.097H189.627V123.586Z" fill="#68E1FD"/>
<path d="M160.869 79.2481C163.4 79.2481 165.451 77.2271 165.451 74.734C165.451 72.241 163.4 70.22 160.869 70.22C158.339 70.22 156.288 72.241 156.288 74.734C156.288 77.2271 158.339 79.2481 160.869 79.2481Z" fill="#F4A28C"/>
<path d="M193.372 81.6309C195.902 81.6309 197.953 79.6099 197.953 77.1169C197.953 74.6238 195.902 72.6028 193.372 72.6028C190.841 72.6028 188.79 74.6238 188.79 77.1169C188.79 79.6099 190.841 81.6309 193.372 81.6309Z" fill="#F4A28C"/>
<path d="M123.601 103.872C125.068 103.872 126.257 102.7 126.257 101.254C126.257 99.8088 125.068 98.637 123.601 98.637C122.134 98.637 120.944 99.8088 120.944 101.254C120.944 102.7 122.134 103.872 123.601 103.872Z" fill="#F4A28C"/>
<path d="M114.385 115.009C115.852 115.009 117.041 113.837 117.041 112.392C117.041 110.946 115.852 109.775 114.385 109.775C112.918 109.775 111.728 110.946 111.728 112.392C111.728 113.837 112.918 115.009 114.385 115.009Z" fill="#F4A28C"/>
<path d="M114.385 114.241C115.421 114.241 116.261 113.413 116.261 112.392C116.261 111.371 115.421 110.543 114.385 110.543C113.348 110.543 112.508 111.371 112.508 112.392C112.508 113.413 113.348 114.241 114.385 114.241Z" fill="#FFD200"/>
<path d="M118.288 111.276C119.755 111.276 120.944 110.105 120.944 108.659C120.944 107.214 119.755 106.042 118.288 106.042C116.821 106.042 115.631 107.214 115.631 108.659C115.631 110.105 116.821 111.276 118.288 111.276Z" fill="#F4A28C"/>
<path d="M129.482 111.276C130.949 111.276 132.138 110.105 132.138 108.659C132.138 107.214 130.949 106.042 129.482 106.042C128.015 106.042 126.826 107.214 126.826 108.659C126.826 110.105 128.015 111.276 129.482 111.276Z" fill="#F4A28C"/>
<path d="M134.045 96.6838C135.512 96.6838 136.702 95.512 136.702 94.0665C136.702 92.621 135.512 91.4492 134.045 91.4492C132.578 91.4492 131.389 92.621 131.389 94.0665C131.389 95.512 132.578 96.6838 134.045 96.6838Z" fill="#F4A28C"/>
<path d="M144.636 101.918C146.103 101.918 147.292 100.746 147.292 99.3009C147.292 97.8554 146.103 96.6836 144.636 96.6836C143.168 96.6836 141.979 97.8554 141.979 99.3009C141.979 100.746 143.168 101.918 144.636 101.918Z" fill="#F4A28C"/>
<path d="M140.901 82.3471C142.368 82.3471 143.557 81.1753 143.557 79.7298C143.557 78.2844 142.368 77.1125 140.901 77.1125C139.434 77.1125 138.244 78.2844 138.244 79.7298C138.244 81.1753 139.434 82.3471 140.901 82.3471Z" fill="#F4A28C"/>
<path d="M231.975 95.2254C235.099 95.2254 237.632 92.7302 237.632 89.6522C237.632 86.5743 235.099 84.0791 231.975 84.0791C228.851 84.0791 226.319 86.5743 226.319 89.6522C226.319 92.7302 228.851 95.2254 231.975 95.2254Z" fill="#F4A28C"/>
<path d="M231.975 94.0101C234.418 94.0101 236.398 92.059 236.398 89.6523C236.398 87.2455 234.418 85.2944 231.975 85.2944C229.532 85.2944 227.552 87.2455 227.552 89.6523C227.552 92.059 229.532 94.0101 231.975 94.0101Z" fill="#FFD200"/>
<path d="M238.662 152.728C241.786 152.728 244.319 150.232 244.319 147.154C244.319 144.076 241.786 141.581 238.662 141.581C235.538 141.581 233.006 144.076 233.006 147.154C233.006 150.232 235.538 152.728 238.662 152.728Z" fill="#F4A28C"/>
<path d="M169.605 100.798C172.729 100.798 175.262 98.3032 175.262 95.2253C175.262 92.1473 172.729 89.6521 169.605 89.6521C166.481 89.6521 163.949 92.1473 163.949 95.2253C163.949 98.3032 166.481 100.798 169.605 100.798Z" fill="#F4A28C"/>
<path d="M151.147 127.228C154.271 127.228 156.803 124.732 156.803 121.654C156.803 118.576 154.271 116.081 151.147 116.081C148.023 116.081 145.49 118.576 145.49 121.654C145.49 124.732 148.023 127.228 151.147 127.228Z" fill="#F4A28C"/>
<path d="M151.147 127.228C154.271 127.228 156.803 124.732 156.803 121.654C156.803 118.576 154.271 116.081 151.147 116.081C148.023 116.081 145.49 118.576 145.49 121.654C145.49 124.732 148.023 127.228 151.147 127.228Z" fill="#F4A28C"/>
<path d="M151.147 125.595C153.356 125.595 155.147 123.831 155.147 121.654C155.147 119.478 153.356 117.713 151.147 117.713C148.937 117.713 147.147 119.478 147.147 121.654C147.147 123.831 148.937 125.595 151.147 125.595Z" fill="#FFD200"/>
<path d="M169.605 99.1665C171.814 99.1665 173.605 97.4019 173.605 95.2253C173.605 93.0487 171.814 91.2842 169.605 91.2842C167.396 91.2842 165.605 93.0487 165.605 95.2253C165.605 97.4019 167.396 99.1665 169.605 99.1665Z" fill="#FFD200"/>
<path d="M193.371 80.3115C195.162 80.3115 196.614 78.8813 196.614 77.1169C196.614 75.3526 195.162 73.9224 193.371 73.9224C191.581 73.9224 190.129 75.3526 190.129 77.1169C190.129 78.8813 191.581 80.3115 193.371 80.3115Z" fill="#FFD200"/>
<path d="M160.869 77.9287C162.66 77.9287 164.112 76.4984 164.112 74.7341C164.112 72.9698 162.66 71.5396 160.869 71.5396C159.079 71.5396 157.627 72.9698 157.627 74.7341C157.627 76.4984 159.079 77.9287 160.869 77.9287Z" fill="#FFD200"/>
<path d="M157.451 156.508C159.57 156.508 161.288 154.816 161.288 152.728C161.288 150.64 159.57 148.947 157.451 148.947C155.332 148.947 153.614 150.64 153.614 152.728C153.614 154.816 155.332 156.508 157.451 156.508Z" fill="#FFD200"/>
<path d="M169.882 92.6558C169.658 94.0925 169.464 95.5335 169.292 96.9962" stroke="#F4A28C" stroke-width="0.550322" stroke-miterlimit="10" stroke-linecap="round"/>
<path d="M170.746 94.3485C170.685 94.0738 170.538 93.8248 170.327 93.6364C170.115 93.448 169.849 93.3297 169.565 93.2981C169.471 93.284 169.376 93.289 169.284 93.3129C169.192 93.3368 169.106 93.3791 169.032 93.437C168.936 93.5389 168.87 93.6651 168.843 93.8016C168.796 94.0023 168.787 94.2097 168.816 94.4136C168.825 94.5139 168.858 94.6107 168.913 94.6957C169.063 94.8954 169.354 94.8997 169.591 94.9778C169.784 95.0464 169.951 95.1704 170.071 95.3337C170.192 95.497 170.259 95.6921 170.266 95.8937C170.268 95.9805 170.25 96.0667 170.213 96.1454C170.162 96.2188 170.096 96.2809 170.019 96.3277C169.757 96.5382 169.427 96.6504 169.089 96.6446C168.922 96.6349 168.765 96.5641 168.649 96.446C168.532 96.3279 168.465 96.1712 168.459 96.0065" stroke="#F4A28C" stroke-width="0.550322" stroke-miterlimit="10" stroke-linecap="round"/>
<path d="M193.618 75.1377C193.427 76.3617 193.261 77.5872 193.12 78.8141" stroke="#F4A28C" stroke-width="0.465657" stroke-miterlimit="10" stroke-linecap="round"/>
<path d="M194.363 76.5788C194.311 76.3451 194.187 76.1332 194.006 75.9729C193.826 75.8125 193.6 75.7117 193.359 75.6846C193.281 75.6746 193.202 75.6798 193.126 75.6999C193.051 75.7201 192.98 75.7547 192.918 75.8018C192.834 75.8882 192.777 75.9968 192.755 76.1143C192.715 76.2851 192.707 76.4617 192.733 76.6352C192.739 76.7207 192.768 76.8032 192.817 76.8739C192.94 77.0432 193.187 77.0475 193.389 77.1126C193.552 77.1723 193.693 77.2778 193.795 77.416C193.897 77.5542 193.955 77.7189 193.962 77.8896C193.966 77.963 193.951 78.0362 193.918 78.1023C193.876 78.1658 193.821 78.2192 193.755 78.2585C193.533 78.4381 193.254 78.5335 192.967 78.5276C192.824 78.5221 192.688 78.4628 192.588 78.3618C192.488 78.2609 192.431 78.1261 192.429 77.9851" stroke="#F4A28C" stroke-width="0.465657" stroke-miterlimit="10" stroke-linecap="round"/>
<path d="M232.248 87.3257C232.024 88.7624 231.808 90.2078 231.658 91.6661" stroke="#F4A28C" stroke-width="0.550322" stroke-miterlimit="10" stroke-linecap="round"/>
<path d="M233.13 89.0228C233.069 88.7481 232.922 88.4991 232.711 88.3107C232.499 88.1223 232.233 88.004 231.949 87.9724C231.856 87.9574 231.76 87.9617 231.668 87.9848C231.577 88.008 231.491 88.0495 231.416 88.1069C231.32 88.2106 231.254 88.3382 231.227 88.4759C231.178 88.6764 231.169 88.8841 231.2 89.0879C231.207 89.1886 231.241 89.2857 231.297 89.37C231.447 89.5697 231.738 89.574 231.975 89.6522C232.169 89.7197 232.337 89.8434 232.457 90.0069C232.577 90.1704 232.644 90.3661 232.649 90.568C232.653 90.654 232.633 90.7394 232.592 90.8154C232.544 90.8909 232.479 90.9547 232.403 91.002C232.14 91.2109 231.811 91.3229 231.473 91.3189C231.307 91.3083 231.15 91.2371 231.034 91.1193C230.917 91.0014 230.85 90.8452 230.843 90.6808" stroke="#F4A28C" stroke-width="0.550322" stroke-miterlimit="10" stroke-linecap="round"/>
<path d="M238.662 151.512C241.105 151.512 243.085 149.561 243.085 147.154C243.085 144.748 241.105 142.797 238.662 142.797C236.219 142.797 234.239 144.748 234.239 147.154C234.239 149.561 236.219 151.512 238.662 151.512Z" fill="#FFD200"/>
<path d="M238.953 144.828C238.73 146.275 238.533 147.722 238.363 149.169" stroke="#F4A28C" stroke-width="0.550322" stroke-miterlimit="10" stroke-linecap="round"/>
<path d="M239.817 146.525C239.755 146.25 239.608 146.001 239.395 145.813C239.183 145.624 238.916 145.506 238.632 145.475C238.55 145.457 238.467 145.457 238.385 145.473C238.304 145.489 238.227 145.522 238.159 145.57C238.092 145.617 238.035 145.678 237.992 145.748C237.95 145.819 237.923 145.897 237.913 145.978C237.866 146.179 237.855 146.386 237.883 146.59C237.893 146.691 237.928 146.788 237.984 146.872C238.134 147.072 238.424 147.076 238.662 147.155C238.855 147.223 239.022 147.347 239.142 147.51C239.262 147.674 239.33 147.869 239.336 148.07C239.34 148.158 239.32 148.244 239.279 148.322C239.229 148.394 239.164 148.456 239.09 148.504C238.827 148.714 238.498 148.826 238.16 148.821C237.993 148.814 237.834 148.743 237.717 148.625C237.6 148.506 237.533 148.349 237.53 148.183" stroke="#F4A28C" stroke-width="0.550322" stroke-miterlimit="10" stroke-linecap="round"/>
<path d="M161.16 72.4075C160.936 73.8442 160.72 75.2895 160.57 76.7479" stroke="#F4A28C" stroke-width="0.550322" stroke-miterlimit="10" stroke-linecap="round"/>
<path d="M162.024 74.1002C161.963 73.8261 161.816 73.5777 161.604 73.39C161.393 73.2024 161.126 73.0849 160.843 73.0542C160.75 73.0392 160.654 73.0434 160.562 73.0666C160.471 73.0897 160.385 73.1313 160.31 73.1887C160.213 73.2917 160.147 73.4196 160.121 73.5577C160.072 73.7581 160.063 73.9659 160.094 74.1697C160.102 74.2703 160.135 74.3675 160.191 74.4518C160.341 74.6515 160.632 74.6558 160.87 74.7339C161.062 74.8012 161.23 74.9243 161.35 75.0869C161.47 75.2496 161.538 75.4443 161.544 75.6454C161.547 75.7314 161.527 75.8167 161.486 75.8928C161.438 75.9683 161.374 76.0322 161.297 76.0795C161.033 76.2864 160.705 76.3982 160.367 76.3963C160.199 76.3876 160.041 76.3164 159.924 76.1973C159.807 76.0781 159.741 75.9197 159.737 75.7539" stroke="#F4A28C" stroke-width="0.550322" stroke-miterlimit="10" stroke-linecap="round"/>
<path d="M151.438 119.328C151.213 120.765 150.997 122.21 150.847 123.668" stroke="#F4A28C" stroke-width="0.550322" stroke-miterlimit="10" stroke-linecap="round"/>
<path d="M152.301 121.025C152.24 120.75 152.092 120.501 151.88 120.312C151.667 120.124 151.4 120.006 151.116 119.974C151.023 119.96 150.929 119.964 150.838 119.987C150.747 120.01 150.661 120.052 150.588 120.109C150.49 120.211 150.424 120.34 150.398 120.478C150.35 120.678 150.34 120.886 150.367 121.09C150.378 121.191 150.413 121.287 150.469 121.372C150.618 121.572 150.909 121.576 151.147 121.654C151.34 121.722 151.508 121.846 151.628 122.009C151.749 122.173 151.816 122.368 151.821 122.57C151.825 122.656 151.805 122.742 151.764 122.817C151.714 122.892 151.65 122.956 151.574 123.004C151.311 123.213 150.983 123.325 150.645 123.321C150.478 123.312 150.32 123.242 150.203 123.124C150.086 123.005 150.019 122.848 150.015 122.683" stroke="#F4A28C" stroke-width="0.550322" stroke-miterlimit="10" stroke-linecap="round"/>
<path d="M158.521 150.566C158.297 152.003 158.103 153.444 157.931 154.907" stroke="#F4A28C" stroke-width="0.550322" stroke-miterlimit="10" stroke-linecap="round"/>
<path d="M159.385 152.259C159.324 151.984 159.178 151.735 158.966 151.547C158.754 151.359 158.488 151.24 158.204 151.209C158.111 151.194 158.016 151.199 157.925 151.223C157.834 151.247 157.749 151.289 157.676 151.348C157.576 151.447 157.51 151.574 157.486 151.712C157.436 151.912 157.426 152.12 157.455 152.324C157.464 152.425 157.497 152.521 157.552 152.606C157.702 152.806 157.993 152.81 158.231 152.888C158.423 152.957 158.59 153.081 158.711 153.244C158.831 153.408 158.898 153.603 158.905 153.804C158.908 153.891 158.889 153.977 158.852 154.056C158.802 154.13 158.736 154.193 158.658 154.238C158.396 154.449 158.067 154.561 157.728 154.555C157.562 154.545 157.404 154.475 157.288 154.357C157.171 154.238 157.104 154.082 157.099 153.917" stroke="#F4A28C" stroke-width="0.550322" stroke-miterlimit="10" stroke-linecap="round"/>
<defs>
<linearGradient id="paint0_linear" x1="197.345" y1="162.407" x2="186.536" y2="297.009" gradientUnits="userSpaceOnUse">
<stop offset="0.01"/>
<stop offset="0.08" stop-opacity="0.69"/>
<stop offset="0.21" stop-opacity="0.32"/>
<stop offset="1" stop-opacity="0"/>
</linearGradient>
<linearGradient id="paint1_linear" x1="35683.4" y1="17548.8" x2="37403.2" y2="31350.4" gradientUnits="userSpaceOnUse">
<stop offset="0.01"/>
<stop offset="0.08" stop-opacity="0.69"/>
<stop offset="0.21" stop-opacity="0.32"/>
<stop offset="1" stop-opacity="0"/>
</linearGradient>
<linearGradient id="paint2_linear" x1="43391.5" y1="5020.94" x2="43397.2" y2="7225.96" gradientUnits="userSpaceOnUse">
<stop offset="0.01"/>
<stop offset="0.08" stop-opacity="0.69"/>
<stop offset="0.21" stop-opacity="0.32"/>
<stop offset="1" stop-opacity="0"/>
</linearGradient>
</defs>
</svg>
