<svg width="338" height="251" viewBox="0 0 338 251" fill="none" xmlns="http://www.w3.org/2000/svg">
<path opacity="0.3" d="M92.5106 42.6097C62.8173 49.6033 39.1995 66.6126 35.0083 98.4499C31.4762 125.267 35.1182 172.773 84.7873 181.215C181.438 197.65 256.973 205.451 286.742 159.743C314.07 117.799 311.991 55.0899 257.852 43.5922C219.565 35.458 156.139 27.6236 92.5106 42.6097Z" fill="#E6E6E6"/>
<path opacity="0.45" d="M169 222.419C234.704 222.419 287.967 216.757 287.967 209.772C287.967 202.788 234.704 197.125 169 197.125C103.296 197.125 50.0323 202.788 50.0323 209.772C50.0323 216.757 103.296 222.419 169 222.419Z" fill="#E6E6E6"/>
<path opacity="0.58" d="M80.1144 178.676C80.1144 178.676 72.822 176.744 71.2081 170.067C71.2081 170.067 82.4888 167.769 82.8606 179.226L80.1144 178.676Z" fill="#68E1FD"/>
<path opacity="0.73" d="M81.0017 177.952C81.0017 177.952 75.881 170.042 80.3257 162.607C80.3257 162.607 88.9362 167.944 85.1675 177.952H81.0017Z" fill="#68E1FD"/>
<path d="M82.32 177.952C82.32 177.952 84.9733 169.568 93.0938 167.961C93.0938 167.961 94.6401 173.389 87.8717 177.952H82.32Z" fill="#68E1FD"/>
<path d="M77.0303 177.793L78.5513 187.743H87.8547L89.1814 177.793H77.0303Z" fill="#24285B"/>
<path opacity="0.58" d="M80.1144 178.676C80.1144 178.676 72.822 176.744 71.2081 170.067C71.2081 170.067 82.4888 167.769 82.8606 179.226L80.1144 178.676Z" fill="#68E1FD"/>
<path opacity="0.73" d="M81.0017 177.952C81.0017 177.952 75.881 170.042 80.3257 162.607C80.3257 162.607 88.9362 167.944 85.1675 177.952H81.0017Z" fill="#68E1FD"/>
<path d="M82.32 177.952C82.32 177.952 84.9733 169.568 93.0938 167.961C93.0938 167.961 94.6401 173.389 87.8717 177.952H82.32Z" fill="#68E1FD"/>
<path d="M77.0303 177.793L78.5513 187.743H87.8547L89.1814 177.793H77.0303Z" fill="#24285B"/>
<path d="M64.3046 207.408H106.25V197.5H64.3046V207.408Z" fill="#CCCCCC"/>
<path opacity="0.43" d="M73.4642 197.717H115.41V187.809H73.4642V197.717Z" fill="#E6E6E6"/>
<path d="M246.385 28.5894H94.6906V207.416H246.385V28.5894Z" fill="#E6E6E6"/>
<path opacity="0.12" d="M192.178 35.5747H163.803V39.6543H192.178V35.5747Z" fill="black"/>
<path d="M153.528 42.6097C156.081 42.6097 158.15 40.5708 158.15 38.0556C158.15 35.5404 156.081 33.5015 153.528 33.5015C150.975 33.5015 148.906 35.5404 148.906 38.0556C148.906 40.5708 150.975 42.6097 153.528 42.6097Z" fill="white"/>
<path opacity="0.08" d="M232.434 49.7031H108.642V189.957H232.434V49.7031Z" fill="black"/>
<g opacity="0.12">
<path opacity="0.12" d="M138.301 147.904H121.232V177.402H138.301V147.904Z" fill="black"/>
<path opacity="0.12" d="M166.127 137.114H149.058V177.402H166.127V137.114Z" fill="black"/>
<path opacity="0.12" d="M193.953 119.83H176.884V177.402H193.953V119.83Z" fill="black"/>
<path opacity="0.12" d="M221.77 104.103H204.701V177.402H221.77V104.103Z" fill="black"/>
</g>
<path opacity="0.12" d="M170.538 204.069C173.539 204.069 175.971 201.672 175.971 198.716C175.971 195.759 173.539 193.362 170.538 193.362C167.537 193.362 165.104 195.759 165.104 198.716C165.104 201.672 167.537 204.069 170.538 204.069Z" fill="black"/>
<path opacity="0.08" d="M197.73 148.062C197.73 148.062 176.242 152.808 167.8 167.528C159.358 182.248 193.995 207.649 193.995 207.649L217.951 207.732L223.477 183.064L210.988 165.513L197.73 148.062Z" fill="black"/>
<path d="M241.551 145.482C241.551 145.482 269.622 142.551 268.591 157.188C267.561 171.824 251.793 202.979 251.793 202.979H217.283C217.283 202.979 191.088 163.432 203.848 150.71C216.607 137.989 219.48 148.904 241.551 145.482Z" fill="#68E1FD"/>
<path d="M251.818 207.733L230.829 213.311L212.213 203.994L209.383 199.032H228.15H258.012L251.818 207.733Z" fill="#24285B"/>
<path d="M255.088 161.3C252.46 152.633 257.429 143.167 266.825 150.102C273.264 154.856 280.912 170.009 281.3 184.038C282.213 216.275 242.075 181.59 237.09 163.124L242.033 160.251C242.033 160.251 250.348 175.72 259.423 179.067C265.964 181.498 258.975 174.113 255.088 161.3Z" fill="#68E1FD"/>
<path opacity="0.46" d="M255.088 161.3C252.46 152.633 257.429 143.167 266.825 150.102C273.264 154.856 280.912 170.009 281.3 184.038C282.213 216.275 242.075 181.59 237.09 163.124L242.033 160.251C242.033 160.251 250.348 175.72 259.423 179.067C265.964 181.498 258.975 174.113 255.088 161.3Z" fill="white"/>
<path d="M240.563 145.665C240.368 146.897 240.244 148.14 240.191 149.386C240.132 151.101 239.575 153.641 236.811 154.14C232.586 154.914 231.454 148.312 231.454 148.312C231.454 148.312 228.792 142.135 233.372 141.294C237.521 140.544 241.408 139.995 240.563 145.665Z" fill="#F4A28C"/>
<path opacity="0.08" d="M224.263 154.956C224.263 154.956 226.891 160.384 220.258 171.508C216.464 177.877 228.15 188.5 228.15 188.5L257.235 191.373L251.81 202.97H217.283C217.283 202.97 202.133 178.693 200.966 166.196C199.8 153.699 224.263 154.956 224.263 154.956Z" fill="black"/>
<path d="M231.75 148.595C231.75 148.595 231.504 146.589 229.73 146.681C227.955 146.772 228.657 150.477 231.75 148.595Z" fill="#F4A28C"/>
<path d="M239.541 147.48C239.541 147.48 238.924 145.556 240.571 144.915C242.219 144.274 243.157 147.979 239.541 147.48Z" fill="#F4A28C"/>
<path d="M250.45 197.267L252.883 175.429H215.661L219.371 198.383L218.838 201.33L250.847 201.58L250.45 197.267Z" fill="#FFD200"/>
<path d="M235.468 207.732C235.468 207.732 228.404 210.164 230.829 213.311C233.254 216.458 237.09 211.229 237.09 211.229L235.468 207.732Z" fill="#68E1FD"/>
<path opacity="0.08" d="M215.661 175.454L223.08 185.028C227.388 190.631 233.205 194.929 239.87 197.434L250.855 201.596L221.339 201.363H218.847L219.379 198.416L215.661 175.454Z" fill="black"/>
<path d="M240.656 145.415C241.032 145.566 241.439 145.626 241.843 145.59C242.248 145.554 242.637 145.422 242.98 145.207C243.309 144.856 243.49 144.394 243.487 143.916C243.723 141.61 243.233 138.305 241.737 136.423C240.242 134.542 236.887 134.692 234.758 135.008C233.659 135.128 232.593 135.45 231.614 135.957C230.499 136.667 229.618 137.683 229.079 138.879C227.727 141.693 227.533 146.206 231.116 147.205C236.312 148.645 239.008 143.042 239.008 143.042C239.338 143.821 239.779 144.55 240.318 145.207C240.418 145.294 240.533 145.364 240.656 145.415Z" fill="#24285B"/>
<path d="M235.248 206.517C235.248 206.517 263.8 192.155 266.234 199.79C268.668 207.424 248.988 211.87 236.287 212.328L235.248 206.517Z" fill="#24285B"/>
<path d="M233.904 190.332C235.664 190.332 237.09 188.926 237.09 187.193C237.09 185.459 235.664 184.054 233.904 184.054C232.145 184.054 230.719 185.459 230.719 187.193C230.719 188.926 232.145 190.332 233.904 190.332Z" fill="white"/>
<path d="M228.311 207.641C228.311 207.641 205.546 185.411 200.873 191.964C196.201 198.516 213.548 208.615 225.531 212.869L228.311 207.641Z" fill="#24285B"/>
<path d="M227.423 209.314C227.423 209.314 234.183 215.234 230.263 216.982C226.342 218.731 225.531 212.87 225.531 212.87L227.423 209.314Z" fill="#68E1FD"/>
<path d="M224.263 154.956C224.516 152.458 223.756 149.963 222.15 148.015C220.543 146.067 218.22 144.824 215.686 144.557C210.54 144.016 203.772 144.349 197.755 148.063C186.086 155.273 173.174 161.026 176.36 174.089C179.546 187.152 202.707 192.638 202.707 192.638L205.791 187.643C205.791 187.643 185.376 180.849 189.094 170.225C192.44 160.676 222.066 176.678 224.263 154.956Z" fill="#68E1FD"/>
<path opacity="0.46" d="M224.263 154.956C224.516 152.458 223.756 149.963 222.15 148.015C220.543 146.067 218.22 144.824 215.686 144.557C210.54 144.016 203.772 144.349 197.755 148.063C186.086 155.273 173.174 161.026 176.36 174.089C179.546 187.152 202.707 192.638 202.707 192.638L205.791 187.643C205.791 187.643 185.376 180.849 189.094 170.225C192.44 160.676 222.066 176.678 224.263 154.956Z" fill="white"/>
<path d="M205.284 188.5C205.284 188.5 211.723 192.796 209.383 193.979C207.042 195.161 203.096 192.014 203.096 192.014L205.284 188.5Z" fill="#F4A28C"/>
<path d="M237.893 149.128C237.775 148.513 237.483 147.944 237.052 147.485C236.62 147.026 236.066 146.696 235.453 146.533C234.839 146.369 234.192 146.38 233.584 146.563C232.977 146.746 232.434 147.093 232.018 147.566C231.602 148.039 231.33 148.618 231.232 149.236C231.134 149.854 231.216 150.487 231.466 151.062C231.717 151.637 232.127 152.131 232.649 152.487C233.172 152.843 233.785 153.047 234.42 153.075L235.89 160.659L237.411 160.376L235.941 152.792C236.638 152.487 237.21 151.96 237.564 151.295C237.919 150.63 238.034 149.866 237.893 149.128ZM234.918 151.626C234.551 151.695 234.17 151.655 233.826 151.512C233.481 151.368 233.187 151.127 232.981 150.818C232.776 150.51 232.668 150.149 232.671 149.78C232.673 149.411 232.787 149.051 232.998 148.746C233.208 148.441 233.505 148.204 233.852 148.066C234.199 147.927 234.58 147.893 234.947 147.968C235.314 148.043 235.649 148.223 235.912 148.486C236.175 148.749 236.352 149.082 236.423 149.445C236.502 149.925 236.388 150.417 236.106 150.816C235.824 151.216 235.395 151.491 234.91 151.584L234.918 151.626Z" fill="#24285B"/>
<path d="M241.163 160.776C241.163 160.776 238.856 155.197 235.696 155.655C232.536 156.113 237.445 162.965 237.445 162.965L241.163 160.776Z" fill="#F4A28C"/>
<path opacity="0.46" d="M161.336 110.697H137.11V114.718H161.336V110.697Z" fill="white"/>
<path opacity="0.46" d="M161.336 121.287H137.11V125.308H161.336V121.287Z" fill="white"/>
<path d="M129.564 110.697H122.415V114.718H129.564V110.697Z" fill="#68E1FD"/>
<path d="M129.564 121.287H122.415V125.308H129.564V121.287Z" fill="#FFD200"/>
<path d="M191.629 79.0845C191.64 84.4208 189.57 89.5574 185.848 93.4334C182.125 97.3093 177.034 99.6283 171.625 99.9115C166.217 100.195 160.905 98.4204 156.786 94.9551C152.667 91.4897 150.057 86.5982 149.494 81.2908C148.931 75.9833 150.458 70.6656 153.76 66.4359C157.062 62.2062 161.887 59.3878 167.238 58.5628C172.589 57.7378 178.057 58.9693 182.513 62.0028C186.969 65.0363 190.072 69.6402 191.181 74.8634C191.291 75.4295 191.384 75.9957 191.468 76.5285C191.574 77.3765 191.628 78.2301 191.629 79.0845Z" fill="#68E1FD"/>
<path d="M170.538 58.3121V79.1262L191.189 74.8968C191.189 74.8968 188.308 58.1789 170.538 58.3121Z" fill="#FFD200"/>
<path opacity="0.46" d="M191.629 79.0844C191.612 82.8366 190.567 86.5146 188.602 89.7292C186.638 92.9438 183.828 95.5755 180.471 97.3457C177.113 99.1159 173.332 99.9589 169.527 99.7854C165.723 99.6119 162.037 98.4284 158.86 96.3601L170.58 79.0844L191.223 74.855C191.333 75.4211 191.426 75.9873 191.511 76.5201C191.603 77.3717 191.642 78.2281 191.629 79.0844Z" fill="white"/>
<path opacity="0.08" d="M140.118 59.7356H94.6906V98.4499H140.118V59.7356Z" fill="black"/>
<path d="M136.028 55.4231H88.1081V94.1374H136.028V55.4231Z" fill="#24285B"/>
<path d="M113.07 61.9253C113.779 61.9253 113.999 62.1667 113.999 62.8661V64.3564C116.838 64.7477 118.469 66.1464 119.677 68.5775C120.049 69.3101 119.897 69.7098 119.061 70.0678L117.548 70.7422C116.838 71.0752 116.5 70.9253 116.095 70.1927C115.779 69.4369 115.225 68.8012 114.514 68.3799C113.804 67.9585 112.974 67.7738 112.148 67.8532C109.521 67.8532 108.321 68.6108 108.321 70.3509C108.378 70.8823 108.623 71.3771 109.011 71.7497C109.4 72.1222 109.909 72.349 110.45 72.3906C111.182 72.551 111.925 72.6622 112.672 72.7237C114.075 72.8073 115.457 73.0876 116.779 73.5562C117.44 73.7698 118.055 74.0999 118.596 74.5303C119.143 75.0978 119.57 75.7671 119.851 76.499C120.133 77.2309 120.263 78.0108 120.235 78.7931C120.235 82.1233 117.979 84.3546 113.999 84.9291V86.5109C113.999 87.2103 113.779 87.4601 113.07 87.4601H111.38C110.67 87.4601 110.425 87.2103 110.425 86.5109V84.9624C109.042 84.87 107.719 84.3763 106.621 83.5435C105.523 82.7108 104.7 81.5764 104.256 80.2834C104.188 80.1475 104.153 79.998 104.154 79.8467C104.154 79.6953 104.19 79.5461 104.259 79.4107C104.328 79.2752 104.427 79.1573 104.55 79.0661C104.673 78.9748 104.815 78.9127 104.966 78.8847L106.479 78.3352C107.247 78.0604 107.585 78.2436 107.923 79.0012C108.611 80.7052 109.999 81.5572 112.089 81.5572C114.929 81.5572 116.314 80.6747 116.314 78.8847C116.339 78.4689 116.222 78.057 115.982 77.7145C115.741 77.3719 115.391 77.1186 114.988 76.9947C114.016 76.6419 112.996 76.4343 111.963 76.3786C110.545 76.2907 109.15 75.9932 107.822 75.4961C107.169 75.2679 106.562 74.9267 106.031 74.4887C105.471 73.9487 105.031 73.2996 104.74 72.5828C104.449 71.866 104.313 71.0974 104.341 70.3259C104.341 67.0456 106.445 64.8559 110.391 64.3397V62.8661C110.391 62.1667 110.636 61.9253 111.346 61.9253H113.07Z" fill="white"/>
<path opacity="0.46" d="M221.779 61.2759H200.358V65.2888H221.779V61.2759Z" fill="white"/>
<path opacity="0.46" d="M221.779 70.0513H200.358V74.0642H221.779V70.0513Z" fill="white"/>
<path opacity="0.46" d="M221.779 78.8264H200.358V82.8394H221.779V78.8264Z" fill="white"/>
<path opacity="0.46" d="M221.779 87.6016H209.476V91.6145H221.779V87.6016Z" fill="white"/>
</svg>
