<svg width="620" height="459" viewBox="0 0 620 459" fill="none" xmlns="http://www.w3.org/2000/svg">
<path d="M499.1 104.381H120.915V365.688H499.1V104.381Z" fill="#E6E6E6"/>
<path d="M154.194 137.48C158.149 137.48 161.355 134.331 161.355 130.446C161.355 126.561 158.149 123.412 154.194 123.412C150.239 123.412 147.033 126.561 147.033 130.446C147.033 134.331 150.239 137.48 154.194 137.48Z" fill="#24285B"/>
<path d="M175.507 137.48C179.462 137.48 182.668 134.331 182.668 130.446C182.668 126.561 179.462 123.412 175.507 123.412C171.552 123.412 168.346 126.561 168.346 130.446C168.346 134.331 171.552 137.48 175.507 137.48Z" fill="#68E1FD"/>
<path d="M195.594 137.48C199.549 137.48 202.755 134.331 202.755 130.446C202.755 126.561 199.549 123.412 195.594 123.412C191.64 123.412 188.433 126.561 188.433 130.446C188.433 134.331 191.64 137.48 195.594 137.48Z" fill="#FFD200"/>
<path opacity="0.08" d="M326.399 166.788C326.399 166.788 342.302 163.53 334.428 191.148C326.554 218.766 335.513 246.476 357.771 250.754C380.029 255.032 412.021 266.345 417.461 300.662C422.902 334.979 395.761 365.703 395.761 365.703H294.267L304.59 195.594C304.59 195.594 302.095 162.799 326.399 166.788Z" fill="black"/>
<path d="M319.067 176.212C319.067 176.212 319.594 187.403 317.362 194.741C317.148 195.453 316.792 196.116 316.315 196.692C315.838 197.268 315.249 197.745 314.583 198.096C313.917 198.447 313.187 198.665 312.435 198.737C311.683 198.81 310.924 198.735 310.201 198.517C306.466 197.36 301.738 194.741 300.715 188.773L297.708 178.862C297.319 176.813 297.588 174.696 298.476 172.803C299.365 170.91 300.829 169.335 302.668 168.295C309.287 164.032 319.098 169.407 319.067 176.212Z" fill="#F4A28C"/>
<path d="M298.499 183.947L294.267 220.441L314.898 221.294L309.705 194.406L298.499 183.947Z" fill="#F4A28C"/>
<path d="M316.2 176.593C312.676 176.584 309.166 176.175 305.737 175.375C306.689 176.939 307.156 178.742 307.079 180.562C307.001 182.382 306.384 184.141 305.303 185.622C304.282 187.073 302.779 188.13 301.052 188.613C299.324 189.097 297.479 188.975 295.833 188.271L296.608 173.898C296.653 171.839 297.263 169.831 298.373 168.083C299.484 166.336 301.053 164.916 302.916 163.972C304.533 163.15 306.2 162.428 307.907 161.81C312.201 160.287 318.261 163.332 322.152 160.698C322.545 160.436 323 160.277 323.473 160.238C323.947 160.199 324.422 160.281 324.854 160.475C325.286 160.67 325.659 160.97 325.938 161.348C326.217 161.726 326.392 162.168 326.445 162.632C326.91 167.032 325.825 173.898 319.703 176.045C318.574 176.418 317.39 176.603 316.2 176.593Z" fill="#24285B"/>
<path d="M306.559 185.347C306.559 185.347 306.652 181.039 303.335 181.237C300.018 181.435 299.847 187.662 304.311 188.423L306.559 185.347Z" fill="#F4A28C"/>
<path d="M319.021 183.307L322.028 187.753C322.195 188.006 322.295 188.296 322.318 188.596C322.341 188.897 322.286 189.198 322.16 189.472C322.033 189.747 321.838 189.986 321.593 190.167C321.348 190.348 321.061 190.465 320.757 190.509L316.371 191.148L319.021 183.307Z" fill="#F4A28C"/>
<path opacity="0.31" d="M310.202 198.548L301.956 193.097C301.956 193.097 302.25 199.887 311.256 204.501L310.202 198.548Z" fill="#CE8172"/>
<path d="M226.889 265.157C227.448 253.414 232.477 242.305 240.98 234.032C249.483 225.759 260.84 220.924 272.8 220.487C302.25 219.451 330.708 214.016 361.274 229.957C404.984 252.794 356.624 365.703 356.624 365.703L255.672 366.89C255.672 366.89 224.145 322.677 226.889 265.157Z" fill="#68E1FD"/>
<path d="M538.857 278.052H459.342V335.07H538.857V278.052Z" fill="#24285B"/>
<path d="M549.367 60.0458H395.684V235.042H549.367V60.0458Z" fill="#F7F7F7"/>
<path opacity="0.08" d="M499.1 235.316H395.684V254.667H499.1V235.316Z" fill="black"/>
<path d="M493.892 317.668H493.784C493.446 317.653 493.116 317.567 492.816 317.414C492.517 317.262 492.254 317.047 492.048 316.785L484.158 306.813C483.971 306.575 483.833 306.303 483.753 306.013C483.672 305.722 483.651 305.419 483.69 305.121C483.729 304.823 483.827 304.535 483.979 304.274C484.131 304.013 484.334 303.784 484.577 303.6C484.819 303.416 485.095 303.281 485.391 303.202C485.686 303.123 485.995 303.102 486.298 303.14C486.602 303.178 486.895 303.275 487.161 303.424C487.427 303.574 487.66 303.773 487.847 304.011L494.047 311.837L509.33 295.622C509.518 295.354 509.763 295.129 510.047 294.961C510.331 294.794 510.649 294.688 510.978 294.651C511.307 294.613 511.641 294.646 511.957 294.746C512.272 294.846 512.562 295.01 512.807 295.23C513.053 295.449 513.248 295.717 513.379 296.016C513.51 296.315 513.575 296.638 513.568 296.963C513.562 297.289 513.484 297.609 513.342 297.903C513.199 298.197 512.994 298.458 512.74 298.667L495.597 316.937C495.379 317.167 495.115 317.35 494.822 317.476C494.528 317.602 494.212 317.667 493.892 317.668V317.668Z" fill="white"/>
<path d="M474.191 176.426C464.933 176.429 455.881 173.735 448.181 168.684C440.481 163.634 434.479 156.454 430.933 148.052C427.388 139.651 426.459 130.405 428.263 121.485C430.068 112.565 434.525 104.371 441.071 97.9391C447.617 91.5072 455.957 87.1266 465.038 85.3512C474.119 83.5759 483.531 84.4855 492.086 87.9652C500.64 91.4448 507.952 97.3381 513.096 104.9C518.24 112.461 520.986 121.352 520.986 130.446C520.974 142.634 516.04 154.32 507.267 162.94C498.495 171.56 486.6 176.41 474.191 176.426V176.426ZM474.191 96.875C467.425 96.875 460.81 98.8472 455.185 102.542C449.56 106.236 445.178 111.487 442.592 117.63C440.007 123.772 439.335 130.53 440.662 137.047C441.989 143.565 445.255 149.549 450.046 154.243C454.838 158.936 460.939 162.128 467.578 163.413C474.217 164.699 481.095 164.021 487.341 161.465C493.587 158.909 498.921 154.59 502.667 149.054C506.413 143.519 508.403 137.017 508.384 130.37C508.352 121.481 504.736 112.966 498.328 106.689C491.92 100.412 483.241 96.883 474.191 96.875V96.875Z" fill="#C9C9C9"/>
<path d="M474.191 176.426C462.765 176.424 451.736 172.307 443.191 164.855L451.546 155.583C457.791 161.021 465.846 164.026 474.191 164.033V176.426Z" fill="#24285B"/>
<path d="M361.289 229.957C361.289 229.957 414.191 257.59 403.604 320.759C393.018 383.927 248.108 313.572 248.108 313.572L253.797 295.135C253.797 295.135 320.555 316.77 359.646 311.974C359.6 311.974 309.209 235.118 361.289 229.957Z" fill="#68E1FD"/>
<path opacity="0.08" d="M276.396 246.369C276.396 246.369 299.646 264.746 287.726 295.531C275.807 326.316 325.05 345.773 363.676 347.083L356.593 365.703L255.641 366.89C255.641 366.89 246.062 349.778 242.389 342.652C238.715 335.527 223.665 242.396 276.396 246.369Z" fill="black"/>
<path opacity="0.08" d="M299.661 334.248C299.661 334.248 346.797 299.23 383.547 303.189C383.547 303.189 392.754 317.12 372.542 321.459C352.33 325.798 329.266 342.591 329.266 342.591L299.661 334.248Z" fill="black"/>
<path opacity="0.39" d="M361.289 229.957C361.289 229.957 414.191 257.59 403.604 320.759C393.018 383.927 248.108 313.572 248.108 313.572L253.797 295.135C253.797 295.135 320.555 316.77 359.646 311.974C359.6 311.974 309.209 235.118 361.289 229.957Z" fill="white"/>
<path d="M520.986 130.446H508.4C508.367 121.557 504.751 113.042 498.343 106.765C491.935 100.488 483.257 96.9591 474.207 96.9511V84.4819C486.61 84.502 498.499 89.3516 507.268 97.9677C516.036 106.584 520.97 118.263 520.986 130.446V130.446Z" fill="#68E1FD"/>
<path d="M474.191 176.426V164.033C483.26 164.029 491.956 160.489 498.37 154.192C504.784 147.894 508.392 139.354 508.4 130.446H521.001C520.985 142.636 516.048 154.321 507.273 162.941C498.498 171.56 486.601 176.41 474.191 176.426V176.426Z" fill="#FFD200"/>
<path d="M500.604 193.767H447.749V215.204H500.604V193.767Z" fill="#68E1FD"/>
<path d="M252.991 225.511C252.991 225.511 200.09 253.144 210.676 316.328C221.263 379.512 366.172 309.127 366.172 309.127L360.484 290.689C360.484 290.689 293.725 312.324 254.634 307.528C254.634 307.528 305.071 230.672 252.991 225.511Z" fill="#68E1FD"/>
<path opacity="0.39" d="M252.991 225.511C252.991 225.511 200.09 253.144 210.676 316.328C221.263 379.512 366.172 309.127 366.172 309.127L360.484 290.689C360.484 290.689 293.725 312.324 254.634 307.528C254.634 307.528 305.071 230.672 252.991 225.511Z" fill="white"/>
<path d="M361.367 293.567C361.367 293.567 378.122 288.071 383.067 299.002C388.011 309.934 366.234 309.127 366.234 309.127L361.367 293.567Z" fill="#F4A28C"/>
<path d="M285.572 219.832C285.572 219.832 283.542 211.169 292.098 210.697C300.654 210.225 322.757 204.303 326.554 218.706L285.572 219.832Z" fill="#68E1FD"/>
<path opacity="0.08" d="M196.772 186.763H121.024V266.07H196.772V186.763Z" fill="black"/>
<path opacity="0.39" d="M285.572 219.832C285.572 219.832 283.542 211.169 292.098 210.697C300.654 210.225 322.757 204.303 326.554 218.706L285.572 219.832Z" fill="white"/>
<path d="M179.692 186.763H77.4847V250.739H179.692V186.763Z" fill="#FFD200"/>
<path d="M111.507 224.186H97.6501V237.798H111.507V224.186Z" fill="#24285B"/>
<path d="M134.881 209.555H121.024V237.798H134.881V209.555Z" fill="#24285B"/>
<path d="M159.526 199.72H145.669V237.798H159.526V199.72Z" fill="#24285B"/>
<g clip-path="url(#clip0)">
<path d="M467.278 124.5V144H462.832V116.31H466.326L482.446 136.278V116.349H486.932V144H483.24L467.278 124.5Z" fill="#A8A8A8"/>
<path d="M458.128 126H491.724" stroke="#A8A8A8" stroke-width="2"/>
<path d="M458.128 135H491.724" stroke="#A8A8A8" stroke-width="2"/>
</g>
<defs>
<clipPath id="clip0">
<rect width="33.5961" height="69" fill="white" transform="translate(458.128 96)"/>
</clipPath>
</defs>
</svg>
