<svg width="620" height="459" viewBox="0 0 620 459" fill="none" xmlns="http://www.w3.org/2000/svg">
<path opacity="0.3" d="M313.007 381.552C443.433 381.552 549.165 373.059 549.165 362.582C549.165 352.105 443.433 343.611 313.007 343.611C182.58 343.611 76.8488 352.105 76.8488 362.582C76.8488 373.059 182.58 381.552 313.007 381.552Z" fill="#E6E6E6"/>
<path d="M506.959 351.3H284.394V189.671C284.394 185.936 285.905 182.354 288.593 179.713C291.282 177.072 294.929 175.588 298.732 175.588H506.959C509.574 175.588 512.163 176.094 514.578 177.078C516.994 178.061 519.189 179.502 521.037 181.319C522.885 183.136 524.351 185.293 525.35 187.667C526.349 190.04 526.863 192.584 526.861 195.152V331.721C526.865 334.29 526.353 336.836 525.355 339.211C524.356 341.586 522.891 343.745 521.042 345.563C519.194 347.382 516.999 348.825 514.582 349.809C512.165 350.793 509.575 351.3 506.959 351.3V351.3Z" fill="#68E1FD"/>
<path opacity="0.08" d="M506.959 351.3H284.394V189.671C284.394 185.936 285.905 182.354 288.593 179.713C291.282 177.072 294.929 175.588 298.732 175.588H506.959C509.574 175.588 512.163 176.094 514.578 177.078C516.994 178.061 519.189 179.502 521.037 181.319C522.885 183.136 524.351 185.293 525.35 187.667C526.349 190.04 526.863 192.584 526.861 195.152V331.721C526.865 334.29 526.353 336.836 525.355 339.211C524.356 341.586 522.891 343.745 521.042 345.563C519.194 347.382 516.999 348.825 514.582 349.809C512.165 350.793 509.575 351.3 506.959 351.3V351.3Z" fill="black"/>
<path opacity="0.08" d="M355.493 222.085C378.922 222.085 397.916 203.429 397.916 180.415C397.916 157.4 378.922 138.744 355.493 138.744C332.063 138.744 313.069 157.4 313.069 180.415C313.069 203.429 332.063 222.085 355.493 222.085Z" fill="black"/>
<path d="M355.493 222.085C378.922 222.085 397.916 203.429 397.916 180.415C397.916 157.4 378.922 138.744 355.493 138.744C332.063 138.744 313.069 157.4 313.069 180.415C313.069 203.429 332.063 222.085 355.493 222.085Z" fill="#FFD200"/>
<g opacity="0.08">
<path opacity="0.08" d="M357.554 209.54C380.984 209.54 399.977 190.883 399.977 167.869C399.977 144.855 380.984 126.198 357.554 126.198C334.124 126.198 315.13 144.855 315.13 167.869C315.13 190.883 334.124 209.54 357.554 209.54Z" fill="black"/>
</g>
<path opacity="0.08" d="M355.493 222.085C378.922 222.085 397.916 203.429 397.916 180.415C397.916 157.4 378.922 138.744 355.493 138.744C332.063 138.744 313.069 157.4 313.069 180.415C313.069 203.429 332.063 222.085 355.493 222.085Z" fill="black"/>
<path d="M357.554 209.54C380.984 209.54 399.977 190.883 399.977 167.869C399.977 144.855 380.984 126.198 357.554 126.198C334.124 126.198 315.13 144.855 315.13 167.869C315.13 190.883 334.124 209.54 357.554 209.54Z" fill="#FFD200"/>
<path opacity="0.08" d="M454.414 243.233C477.843 243.233 496.837 224.576 496.837 201.562C496.837 178.548 477.843 159.891 454.414 159.891C430.984 159.891 411.99 178.548 411.99 201.562C411.99 224.576 430.984 243.233 454.414 243.233Z" fill="black"/>
<path d="M454.414 243.233C477.843 243.233 496.837 224.576 496.837 201.562C496.837 178.548 477.843 159.891 454.414 159.891C430.984 159.891 411.99 178.548 411.99 201.562C411.99 224.576 430.984 243.233 454.414 243.233Z" fill="#FFD200"/>
<g opacity="0.08">
<path opacity="0.08" d="M449.19 231.601C472.62 231.601 491.613 212.944 491.613 189.93C491.613 166.916 472.62 148.259 449.19 148.259C425.76 148.259 406.766 166.916 406.766 189.93C406.766 212.944 425.76 231.601 449.19 231.601Z" fill="black"/>
</g>
<path opacity="0.08" d="M454.414 243.233C477.843 243.233 496.837 224.576 496.837 201.562C496.837 178.548 477.843 159.891 454.414 159.891C430.984 159.891 411.99 178.548 411.99 201.562C411.99 224.576 430.984 243.233 454.414 243.233Z" fill="black"/>
<path d="M449.19 231.601C472.62 231.601 491.613 212.944 491.613 189.93C491.613 166.916 472.62 148.259 449.19 148.259C425.76 148.259 406.766 166.916 406.766 189.93C406.766 212.944 425.76 231.601 449.19 231.601Z" fill="#FFD200"/>
<g clip-path="url(#clip0)">
<path d="M439.997 185.149L445.136 203.984L440.84 205.115L433.544 178.368L436.919 177.48L457.751 192.669L452.5 173.42L456.834 172.279L464.12 198.988L460.553 199.926L439.997 185.149Z" fill="white"/>
<path d="M431.554 188.924L464.006 180.383" stroke="white" stroke-width="2"/>
<path d="M433.926 197.617L466.377 189.076" stroke="white" stroke-width="2"/>
</g>
<path d="M284.394 189.671H490.126C495.663 189.671 500.973 191.832 504.889 195.678C508.804 199.524 511.004 204.74 511.004 210.179V344.86C511.004 350.299 508.804 355.515 504.889 359.361C500.973 363.207 495.663 365.368 490.126 365.368H284.394V189.671Z" fill="#68E1FD"/>
<path d="M454.026 259.174H528.69V295.866H454.026C451.573 295.866 449.144 295.391 446.878 294.469C444.612 293.547 442.553 292.196 440.819 290.492C439.085 288.789 437.709 286.766 436.77 284.54C435.832 282.315 435.349 279.929 435.349 277.52V277.52C435.349 272.654 437.316 267.988 440.819 264.547C444.322 261.106 449.072 259.174 454.026 259.174Z" fill="#24285B"/>
<path d="M458.056 286.853C463.303 286.853 467.557 282.674 467.557 277.52C467.557 272.365 463.303 268.187 458.056 268.187C452.808 268.187 448.554 272.365 448.554 277.52C448.554 282.674 452.808 286.853 458.056 286.853Z" fill="#FFD200"/>
<path opacity="0.58" d="M254.463 350.447C254.463 350.447 242.482 347.235 239.878 336.273C239.878 336.273 258.478 332.588 258.974 351.498L254.463 350.447Z" fill="#68E1FD"/>
<path opacity="0.73" d="M255.936 349.275C255.936 349.275 247.566 336.273 254.929 324.123C254.929 324.123 269.049 332.923 262.772 349.305L255.936 349.275Z" fill="#68E1FD"/>
<path d="M258.091 349.29C258.091 349.29 262.524 335.588 275.885 332.954C275.885 332.954 278.396 341.876 267.236 349.321L258.091 349.29Z" fill="#68E1FD"/>
<path d="M249.395 348.986L251.828 365.307L267.127 365.368L269.39 349.062L249.395 348.986Z" fill="#24285B"/>
<path d="M213.358 351.422C213.358 351.422 218.008 355.7 223.045 353.675C228.083 351.65 231.772 355.654 228.052 359.034C224.332 362.414 210.289 362.582 210.289 362.582L206.15 353.69L213.358 351.422Z" fill="#68E1FD"/>
<path d="M135.021 349.427C135.021 349.427 132.742 355.274 136.571 359.095C140.399 362.917 137.997 367.773 133.471 365.672C128.945 363.571 123.442 350.843 123.442 350.843L130.2 343.688L135.021 349.427Z" fill="#68E1FD"/>
<path d="M122.543 239.533C122.543 239.533 117.63 258.61 126.17 268.004C134.711 277.398 147.87 321.87 126.17 344.129L134.726 352.031C134.726 352.031 172.205 333.258 161.51 265.553L188.263 239.548L122.543 239.533Z" fill="#24285B"/>
<path d="M188.263 130.872C188.263 130.872 214.737 137.495 214.923 159.023C215.109 180.552 203.19 218.233 220.209 221.309C237.228 224.384 247.411 177.857 247.411 177.857L259.548 182.668C259.548 182.668 246.636 262.142 202.012 249.034C157.387 235.925 188.263 130.872 188.263 130.872Z" fill="#68E1FD"/>
<path opacity="0.44" d="M188.263 130.872C188.263 130.872 214.737 137.495 214.923 159.023C215.109 180.552 203.19 218.233 220.209 221.309C237.228 224.384 247.411 177.857 247.411 177.857L259.548 182.668C259.548 182.668 246.636 262.142 202.012 249.034C157.387 235.925 188.263 130.872 188.263 130.872Z" fill="white"/>
<path d="M164.455 95.52L156.395 123.443L172.375 126.701L171.833 105.081L164.455 95.52Z" fill="#F4A28C"/>
<path opacity="0.31" d="M172.159 109.801C170.206 109.087 168.509 107.827 167.276 106.177C167.276 106.177 166.873 111.476 172.143 117.383L172.159 109.801Z" fill="#CE8172"/>
<path d="M156.395 123.443L165.85 125.376C165.85 125.376 209.25 129.944 211.002 154.014C212.753 178.085 188.248 239.533 188.248 239.533H122.543C122.543 239.533 69.8742 117.079 156.395 123.443Z" fill="#68E1FD"/>
<path opacity="0.09" d="M150.722 145.762C150.722 145.762 156.023 160.774 142.119 170.579C128.216 180.384 135.005 217.32 150.21 223.227C165.416 229.135 140.709 241.939 130.2 236.717C119.691 231.494 118.156 227.977 118.156 227.977C118.156 227.977 108.376 200.207 107.306 182.485C106.237 164.763 150.722 145.762 150.722 145.762Z" fill="black"/>
<path d="M150.722 145.763C150.722 132.532 137.082 123.504 124.279 127.63C113.15 131.177 99.5722 137.83 91.3262 149.98C75.4852 173.335 39.2617 241.68 131.208 244.238L133.905 234.189C133.905 234.189 78.7092 219.193 103.075 187.479C122.032 162.799 150.769 164.459 150.722 145.763Z" fill="#68E1FD"/>
<path opacity="0.44" d="M150.722 145.763C150.722 132.532 137.082 123.504 124.279 127.63C113.15 131.177 99.5722 137.83 91.3262 149.98C75.4852 173.335 39.2617 241.68 131.208 244.238L133.905 234.189C133.905 234.189 78.7092 219.193 103.075 187.479C122.032 162.799 150.769 164.459 150.722 145.763Z" fill="white"/>
<path d="M250.248 178.983C250.248 178.983 250.945 167.473 255.642 164.215C260.338 160.957 259.548 169.209 259.548 169.209C259.548 169.209 264.198 163.819 268.166 166.331C272.134 168.844 259.548 182.668 259.548 182.668L250.248 178.983Z" fill="#F4A28C"/>
<path d="M181.009 96.327C181.009 96.327 180.203 105.157 177.677 110.669C177.432 111.204 177.082 111.687 176.647 112.088C176.211 112.49 175.699 112.802 175.139 113.007C174.58 113.213 173.984 113.307 173.388 113.285C172.791 113.262 172.204 113.123 171.663 112.877C169.865 112.198 168.306 111.024 167.173 109.495C166.04 107.966 165.382 106.148 165.277 104.259L163.99 96.1747C163.909 94.5295 164.35 92.9001 165.252 91.5118C166.154 90.1235 167.474 89.0449 169.028 88.4252C174.67 85.7608 181.769 90.9526 181.009 96.327Z" fill="#F4A28C"/>
<path d="M180.218 101.869L182.079 105.66C182.183 105.875 182.23 106.112 182.216 106.349C182.203 106.586 182.128 106.817 182 107.019C181.872 107.22 181.694 107.387 181.483 107.504C181.272 107.62 181.034 107.682 180.792 107.685H177.289L180.218 101.869Z" fill="#F4A28C"/>
<path d="M188.263 239.533L215.744 352.015L202.011 353.995C202.011 353.995 174.53 276.895 156.395 261.122L188.263 239.533Z" fill="#24285B"/>
<path d="M133.533 235.59C133.533 235.59 143.344 234.068 146.615 240.721C149.885 247.374 131.208 244.253 131.208 244.253L133.533 235.59Z" fill="#F4A28C"/>
<path d="M161.773 104.792L167.276 103.483L170.624 101.869C170.624 101.869 173.026 101.717 172.174 95.9768C172.174 95.9768 183.985 99.9809 185.535 93.0992C187.24 85.5933 178.42 82.259 172.174 82.8985C170.354 83.1138 168.628 83.8153 167.185 84.9266C165.742 86.0379 164.637 87.5165 163.99 89.2016C163.99 89.2016 154.163 87.6639 161.773 104.792Z" fill="#24285B"/>
<path d="M170.221 102.143C170.221 102.143 170.764 98.7782 168.144 98.5955C165.524 98.4128 164.718 103.27 168.144 104.32L170.221 102.143Z" fill="#F4A28C"/>
<path opacity="0.08" d="M268.274 173.35C291.704 173.35 310.697 154.694 310.697 131.679C310.697 108.665 291.704 90.0085 268.274 90.0085C244.844 90.0085 225.85 108.665 225.85 131.679C225.85 154.694 244.844 173.35 268.274 173.35Z" fill="black"/>
<path d="M268.274 173.35C291.704 173.35 310.697 154.694 310.697 131.679C310.697 108.665 291.704 90.0085 268.274 90.0085C244.844 90.0085 225.85 108.665 225.85 131.679C225.85 154.694 244.844 173.35 268.274 173.35Z" fill="#FFD200"/>
<g opacity="0.08">
<path opacity="0.08" d="M270.351 160.805C293.781 160.805 312.775 142.148 312.775 119.134C312.775 96.1198 293.781 77.4631 270.351 77.4631C246.921 77.4631 227.928 96.1198 227.928 119.134C227.928 142.148 246.921 160.805 270.351 160.805Z" fill="black"/>
</g>
<path opacity="0.08" d="M268.274 173.35C291.704 173.35 310.697 154.694 310.697 131.679C310.697 108.665 291.704 90.0085 268.274 90.0085C244.844 90.0085 225.85 108.665 225.85 131.679C225.85 154.694 244.844 173.35 268.274 173.35Z" fill="black"/>
<path d="M270.351 160.805C293.781 160.805 312.775 142.148 312.775 119.134C312.775 96.1198 293.781 77.4631 270.351 77.4631C246.921 77.4631 227.928 96.1198 227.928 119.134C227.928 142.148 246.921 160.805 270.351 160.805Z" fill="#FFD200"/>
<g clip-path="url(#clip1)">
<path d="M262.648 112.5V132H258.201V104.31H261.695L277.815 124.278V104.349H282.302V132H278.609L262.648 112.5Z" fill="white"/>
<path d="M253.498 114H287.094" stroke="white" stroke-width="2"/>
<path d="M253.498 123H287.094" stroke="white" stroke-width="2"/>
</g>
<g clip-path="url(#clip2)">
<path d="M349.692 162V181.5H345.245V153.81H348.739L364.859 173.778V153.849H369.346V181.5H365.653L349.692 162Z" fill="white"/>
<path d="M340.542 163.5H374.138" stroke="white" stroke-width="2"/>
<path d="M340.542 172.5H374.138" stroke="white" stroke-width="2"/>
</g>
<defs>
<clipPath id="clip0">
<rect width="33.5565" height="69.0842" fill="white" transform="matrix(0.967066 -0.254527 0.263173 0.964749 423.649 159.946)"/>
</clipPath>
<clipPath id="clip1">
<rect width="33.5961" height="69" fill="white" transform="translate(253.498 84)"/>
</clipPath>
<clipPath id="clip2">
<rect width="33.5961" height="69" fill="white" transform="translate(340.542 133.5)"/>
</clipPath>
</defs>
</svg>
