<svg width="338" height="251" viewBox="0 0 338 251" fill="none" xmlns="http://www.w3.org/2000/svg">
<path opacity="0.3" d="M118.376 40.4951C80.3511 49.4119 50.3029 77.5526 41.4811 113.761C34.9239 140.694 40.6361 168.469 84.7874 178.568C180.162 200.431 283.168 193.188 295.513 149.52C307.859 105.851 284.951 30.9206 230.448 26.2999C199.369 23.6523 152.759 32.4359 118.376 40.4951Z" fill="#E6E6E6"/>
<path d="M208.411 87.9762C208.411 93.1048 203.417 93.3712 197.257 93.3712C191.097 93.3712 186.111 93.1048 186.111 87.9762C186.111 82.8476 191.097 74.78 197.257 74.78C203.417 74.78 208.411 82.8393 208.411 87.9762Z" fill="#EDEDED"/>
<path d="M186.111 97.1928C186.963 95.8645 187.915 94.6011 188.959 93.413C190.243 92.0809 194.975 90.0827 195.499 90.9736C196.023 91.8644 193.167 92.8968 193.167 92.8968C193.167 92.8968 204.887 90.0827 204.439 92.2307C203.991 94.3788 194.08 94.5702 192.499 98.1336C190.919 101.697 191.739 99.9986 191.739 99.9986L186.111 97.1928Z" fill="#F4A28C"/>
<path d="M166.575 156.047L80.4355 155.639C80.4355 155.639 63.6285 109.381 73.8699 93.2463C81.2214 81.6487 108.912 78.8763 127.722 83.8716C135.107 85.8198 141.115 88.9669 143.996 93.2297C152.691 106.118 162.95 142.559 165.814 153.124C166.296 154.998 166.575 156.047 166.575 156.047Z" fill="#FFD200"/>
<path opacity="0.08" d="M166.575 156.047L80.4355 155.639C80.4355 155.639 63.6285 109.381 73.8699 93.2463C81.2214 81.6487 108.912 78.8763 127.722 83.8716C135.107 85.8198 141.115 88.9669 143.996 93.2297C152.691 106.118 162.95 142.559 165.814 153.124C166.296 154.998 166.575 156.047 166.575 156.047Z" fill="black"/>
<path d="M165.814 153.141L91.3107 152.8C91.3107 152.8 75.543 109.373 85.1507 94.2288C91.0657 84.8957 111.025 81.6654 127.722 83.8883C135.107 85.8365 141.115 88.9836 143.996 93.2464C152.692 106.134 162.95 142.576 165.814 153.141Z" fill="#FFD200"/>
<path d="M121.764 49.4702C118.815 49.1455 116.061 51.3768 114.886 54.0577C114.19 55.6166 113.944 57.3345 114.176 59.0222C114.407 60.71 115.106 62.3022 116.196 63.6238C116.948 64.5686 118.029 65.2061 119.229 65.4138C119.955 65.4782 120.685 65.3815 121.367 65.1308C124.511 64.0484 126.75 60.202 127.443 57.1215C128.186 53.7996 125.144 49.8365 121.764 49.4702Z" fill="#24285B"/>
<path d="M124.629 84.2881C125.567 82.7229 127.384 78.7183 126.395 72.5073L131.558 72.5739C131.558 72.5739 133.924 81.7904 136.493 83.6887L136.451 83.747L124.629 84.2881Z" fill="#F4A28C"/>
<path opacity="0.09" d="M124.629 84.2881C125.567 82.7229 127.384 78.7183 126.395 72.5073L131.558 72.5739C131.558 72.5739 133.924 81.7904 136.493 83.6887L136.451 83.747L124.629 84.2881Z" fill="black"/>
<path d="M134.135 64.5978C134.135 64.5978 135.825 75.7958 129.91 77.1612C123.995 78.5266 123.995 65.5053 123.995 65.5053C123.995 65.5053 123.708 58.7199 127.156 57.7125C130.603 56.705 134.456 56.397 134.135 64.5978Z" fill="#F4A28C"/>
<path d="M134.355 67.2203C134.355 67.2203 137.38 66.138 137.296 67.7116C137.211 69.2851 137.845 71.3499 134.228 70.6006L134.355 67.2203Z" fill="#F4A28C"/>
<path d="M124.781 67.0704C124.781 67.0704 121.097 66.4294 121.401 67.9863C121.705 69.5432 121.874 71.6079 125.364 70.409L124.781 67.0704Z" fill="#F4A28C"/>
<path d="M134.71 66.8125C134.617 66.9106 134.502 66.9853 134.374 67.0302C134.246 67.0751 134.109 67.089 133.975 67.0706C133.609 66.9496 133.295 66.7087 133.087 66.3879C131.945 65.0027 131.284 63.2923 131.203 61.5091C130.917 62.7806 130.417 63.9962 129.724 65.1058C129.378 65.6614 128.923 66.1438 128.387 66.5254C127.85 66.9069 127.242 67.18 126.598 67.3287C122.745 68.0614 122.601 63.7071 122.652 61.0678C122.652 59.3527 122.897 57.3629 124.215 56.0724C124.768 55.5704 125.483 55.2757 126.235 55.2399C127.172 55.0734 128.043 54.6737 128.998 54.5655C130.09 54.4149 131.203 54.6196 132.166 55.1483C132.937 55.6462 133.577 56.3166 134.034 57.1048C134.793 58.3412 135.297 59.713 135.518 61.1416C135.738 62.5702 135.67 64.0277 135.318 65.4305C135.248 65.9373 135.037 66.4153 134.71 66.8125Z" fill="#24285B"/>
<path d="M144.825 87.5183C145.179 87.7764 173.25 115.742 175.473 114.527C177.695 113.311 185.393 95.2112 185.393 95.2112L193.167 98.3916C193.167 98.3916 185.9 137.081 177.872 135.724C169.845 134.367 149.565 123.002 149.565 123.002L144.825 87.5183Z" fill="#68E1FD"/>
<path opacity="0.46" d="M144.825 87.5183C145.179 87.7764 173.25 115.742 175.473 114.527C177.695 113.311 185.393 95.2112 185.393 95.2112L193.167 98.3916C193.167 98.3916 185.9 137.081 177.872 135.724C169.845 134.367 149.565 123.002 149.565 123.002L144.825 87.5183Z" fill="white"/>
<path d="M111.396 122.927C113.771 131.12 116.542 139.196 118.824 145.457C132.606 145.856 152.142 149.619 152.539 145.14C152.768 142.717 149.379 142.934 150.351 139.587C150.926 137.605 153.106 128.164 154.06 125.941C159.274 113.811 156.384 100.839 150.461 93.0549C140.6 80.1168 122.128 79.0345 109.605 85.9614C103.504 89.3333 106.605 106.351 111.396 122.927Z" fill="#68E1FD"/>
<path d="M136.045 83.1641C136.637 83.5554 144.199 100.748 139.763 123.011C139.763 123.011 133.29 92.5721 126.759 81.5073C126.75 81.5073 132.809 81.6239 136.045 83.1641Z" fill="#24285B"/>
<path opacity="0.08" d="M109.419 127.548L113.889 145.032L118.824 145.448L152.531 148.296C152.751 145.873 149.379 142.926 150.351 139.579C138.217 137.539 123.623 134.4 129.048 118.615C135.023 101.239 125.863 89.2334 125.863 89.2334L111.396 122.919L109.419 127.548Z" fill="black"/>
<path d="M126.378 91.29C126.211 90.0138 125.772 88.7866 125.091 87.6886C124.41 86.5906 123.502 85.6463 122.425 84.9173C121.349 84.1883 120.129 83.691 118.844 83.4578C117.56 83.2246 116.24 83.2607 114.971 83.5638C107.83 85.3122 98.8565 90.8404 97.5214 107.425C95.2484 135.574 103.335 148.862 103.335 148.862H148.052V143.3L116.99 139.562C116.99 139.562 128.829 110.689 126.378 91.29Z" fill="#68E1FD"/>
<path opacity="0.46" d="M126.378 91.29C126.211 90.0138 125.772 88.7866 125.091 87.6886C124.41 86.5906 123.502 85.6463 122.425 84.9173C121.349 84.1883 120.129 83.691 118.844 83.4578C117.56 83.2246 116.24 83.2607 114.971 83.5638C107.83 85.3122 98.8565 90.8404 97.5214 107.425C95.2484 135.574 103.335 148.862 103.335 148.862H148.052V143.3L116.99 139.562C116.99 139.562 128.829 110.689 126.378 91.29Z" fill="white"/>
<path d="M281.055 153.974H51.0718V225.191H281.055V153.974Z" fill="#C9C9C9"/>
<path d="M281.055 148.679H51.0718V158.361H281.055V148.679Z" fill="#E6E6E6"/>
<path opacity="0.58" d="M61.085 142.151C61.085 142.151 55.846 140.744 54.7137 135.94C54.7137 135.94 62.8257 134.325 63.0623 142.601L61.085 142.151Z" fill="#68E1FD"/>
<path opacity="0.73" d="M61.7272 141.627C61.7272 141.627 58.0684 135.924 61.2878 130.595C61.2878 130.595 67.4648 134.458 64.7185 141.635L61.7272 141.627Z" fill="#68E1FD"/>
<path d="M62.6737 141.627C62.6737 141.627 64.6087 135.607 70.4561 134.467C70.4561 134.467 71.5462 138.38 66.6706 141.644L62.6737 141.627Z" fill="#68E1FD"/>
<path d="M58.8712 141.494L59.9359 148.654L66.6283 148.679L67.6085 141.527L58.8712 141.494Z" fill="#24285B"/>
<path d="M147.985 143.483C147.985 143.483 151.542 141.26 154.745 141.61C157.947 141.96 166.279 143.6 163.71 144.999C161.142 146.397 157.145 145.115 155.531 146.173C153.917 147.23 148.458 150.144 147.148 147.571C146.765 146.905 146.638 146.124 146.792 145.373C146.945 144.622 147.369 143.951 147.985 143.483Z" fill="#F4A28C"/>
<path d="M174.374 126.299L166.786 144.849H155.463V148.679H192.694V144.849L200.29 126.299H174.374Z" fill="#C9C9C9"/>
<path d="M154.289 103.654C153.951 103.654 144.825 103.096 144.825 103.096V109.423L153.841 109.981L154.289 103.654Z" fill="white"/>
<path d="M239.245 134.9H210.092V148.679H239.245V134.9Z" fill="#EDEDED"/>
<path opacity="0.08" d="M239.245 137.93H218.154V138.48H239.245V137.93Z" fill="black"/>
<path opacity="0.08" d="M237.437 145.615H216.345V146.164H237.437V145.615Z" fill="black"/>
<path opacity="0.08" d="M229.781 141.585H210.092V142.001H229.781V141.585Z" fill="black"/>
<path d="M226.908 134.9H222.429V148.679H226.908V134.9Z" fill="#68E1FD"/>
<path d="M241.467 121.937H212.315V135.715H241.467V121.937Z" fill="#EDEDED"/>
<path opacity="0.08" d="M241.467 124.967H220.376V125.517H241.467V124.967Z" fill="black"/>
<path opacity="0.08" d="M239.659 132.66H218.568V133.21H239.659V132.66Z" fill="black"/>
<path opacity="0.08" d="M232.003 128.622H212.315V129.038H232.003V128.622Z" fill="black"/>
<path d="M229.13 121.937H224.652V135.715H229.13V121.937Z" fill="#68E1FD"/>
<path d="M239.228 108.158H210.076V121.937H239.228V108.158Z" fill="#EDEDED"/>
<path opacity="0.08" d="M239.228 111.188H218.137V111.738H239.228V111.188Z" fill="black"/>
<path opacity="0.08" d="M237.42 118.873H216.328V119.422H237.42V118.873Z" fill="black"/>
<path opacity="0.08" d="M229.764 114.843H210.076V115.26H229.764V114.843Z" fill="black"/>
<path d="M226.891 108.158H222.412V121.937H226.891V108.158Z" fill="#68E1FD"/>
<path d="M276.509 134.9H247.357V148.679H276.509V134.9Z" fill="#EDEDED"/>
<path opacity="0.08" d="M276.509 137.93H255.418V138.48H276.509V137.93Z" fill="black"/>
<path opacity="0.08" d="M274.701 145.615H253.61V146.164H274.701V145.615Z" fill="black"/>
<path opacity="0.08" d="M267.045 141.585H247.357V142.001H267.045V141.585Z" fill="black"/>
<path d="M264.172 134.9H259.694V148.679H264.172V134.9Z" fill="#68E1FD"/>
<path d="M274 121.937H244.847V135.715H274V121.937Z" fill="#EDEDED"/>
<path opacity="0.08" d="M274 124.967H252.909V125.517H274V124.967Z" fill="black"/>
<path opacity="0.08" d="M272.191 132.66H251.1V133.21H272.191V132.66Z" fill="black"/>
<path opacity="0.08" d="M264.536 128.622H244.847V129.038H264.536V128.622Z" fill="black"/>
<path d="M261.663 121.937H257.184V135.715H261.663V121.937Z" fill="#68E1FD"/>
<path d="M243.47 94.3704H214.317V108.149H243.47V94.3704Z" fill="#EDEDED"/>
<path opacity="0.08" d="M243.47 97.4009H222.379V97.9504H243.47V97.4009Z" fill="black"/>
<path opacity="0.08" d="M241.662 105.094H220.57V105.643H241.662V105.094Z" fill="black"/>
<path opacity="0.08" d="M234.006 101.056H214.317V101.472H234.006V101.056Z" fill="black"/>
<path d="M231.133 94.3704H226.654V108.149H231.133V94.3704Z" fill="#68E1FD"/>
<path d="M275.005 108.158H245.853V121.937H275.005V108.158Z" fill="#EDEDED"/>
<path opacity="0.08" d="M275.005 111.188H253.914V111.738H275.005V111.188Z" fill="black"/>
<path opacity="0.08" d="M273.197 118.873H252.106V119.422H273.197V118.873Z" fill="black"/>
<path opacity="0.08" d="M265.541 114.843H245.853V115.26H265.541V114.843Z" fill="black"/>
<path d="M262.668 108.158H258.19V121.937H262.668V108.158Z" fill="#68E1FD"/>
<g clip-path="url(#clip0)">
<path d="M194.805 83.2566V88.5883H193.592V81.0173H194.545L198.939 86.477V81.028H200.162V88.5883H199.155L194.805 83.2566Z" fill="#C9C9C9"/>
<path d="M192.31 83.6667H201.468" stroke="#C9C9C9" stroke-width="2"/>
<path d="M192.31 86.1274H201.468" stroke="#C9C9C9" stroke-width="2"/>
</g>
<path d="M183.433 139.096C185.323 139.096 186.855 137.586 186.855 135.724C186.855 133.862 185.323 132.352 183.433 132.352C181.543 132.352 180.01 133.862 180.01 135.724C180.01 137.586 181.543 139.096 183.433 139.096Z" fill="#E6E6E6"/>
<path d="M259.136 105.369H249.554V108.158H259.136V105.369Z" fill="#FFD200"/>
<path d="M260.091 102.58H250.509V105.369H260.091V102.58Z" fill="#FFD200"/>
<path d="M258.452 99.7903H248.869V102.579H258.452V99.7903Z" fill="#FFD200"/>
<path d="M257.193 97.0012H247.61V99.7903H257.193V97.0012Z" fill="#FFD200"/>
<path d="M259.136 94.2122H249.554V97.0013H259.136V94.2122Z" fill="#FFD200"/>
<path d="M263.632 108.158H273.214V105.369H263.632V108.158Z" fill="#FFD200"/>
<path d="M262.668 105.369H272.251V102.58H262.668V105.369Z" fill="#FFD200"/>
<path d="M261.308 102.58H270.89V99.7905H261.308V102.58Z" fill="#FFD200"/>
<path d="M262.212 99.7903H271.794V97.0012H262.212V99.7903Z" fill="#FFD200"/>
<path d="M127.553 69.9097C129.041 69.9097 130.248 68.7206 130.248 67.2538C130.248 65.787 129.041 64.5979 127.553 64.5979C126.064 64.5979 124.857 65.787 124.857 67.2538C124.857 68.7206 126.064 69.9097 127.553 69.9097Z" fill="white"/>
<path d="M132.935 69.9097C134.424 69.9097 135.631 68.7206 135.631 67.2538C135.631 65.787 134.424 64.5979 132.935 64.5979C131.447 64.5979 130.24 65.787 130.24 67.2538C130.24 68.7206 131.447 69.9097 132.935 69.9097Z" fill="white"/>
<path d="M195.55 75.2547C195.55 75.2547 192.947 70.4841 193.074 69.5932C193.201 68.7024 195.144 69.5932 195.144 69.5932C195.144 69.5932 195.617 67.7449 196.75 68.3361C197.882 68.9272 199.885 66.7708 200.687 68.2195C201.49 69.6682 198.685 74.88 198.685 74.88L195.55 75.2547Z" fill="#EDEDED"/>
<path d="M198.871 73.781H195.034C194.619 73.781 194.282 74.1128 194.282 74.522C194.282 74.9312 194.619 75.263 195.034 75.263H198.871C199.286 75.263 199.623 74.9312 199.623 74.522C199.623 74.1128 199.286 73.781 198.871 73.781Z" fill="#C9C9C9"/>
<g clip-path="url(#clip1)">
<path d="M157.487 189.159V203.532H154.181V183.123H156.779L168.762 197.84V183.152H172.098V203.532H169.353L157.487 189.159Z" fill="#565656"/>
<path d="M150.685 190.265H175.66" stroke="#565656" stroke-width="2"/>
<path d="M150.685 196.898H175.66" stroke="#565656" stroke-width="2"/>
</g>
<defs>
<clipPath id="clip0">
<rect width="9.15764" height="18.866" fill="white" transform="translate(192.31 75.4641)"/>
</clipPath>
<clipPath id="clip1">
<rect width="24.9754" height="50.8562" fill="white" transform="translate(150.685 168.154)"/>
</clipPath>
</defs>
</svg>
