<svg width="338" height="251" viewBox="0 0 338 251" fill="none" xmlns="http://www.w3.org/2000/svg">
<path d="M231.327 94.0187L214.959 89.6565L214.073 92.5647L234.861 105.933L231.327 94.0187Z" fill="#68E1FD"/>
<path opacity="0.37" d="M231.667 94.2221L215.299 89.8599L214.419 92.768L235.208 106.13L231.667 94.2221Z" fill="url(#paint0_linear)"/>
<path d="M269.218 77.4316C268.258 78.1796 267.335 79.0951 266.133 79.3345C264.377 79.6815 262.719 78.4728 261.414 77.258C259.652 75.6185 257.982 73.7276 257.332 71.4238C256.683 69.12 257.332 66.3195 259.349 65.015C260.679 64.1713 262.355 64.0815 263.94 64.0815C266.735 64.0931 269.526 64.3212 272.285 64.7637C272.935 64.8313 273.567 65.0159 274.149 65.3082C276.19 66.4691 276.384 69.3174 275.552 71.2083C274.216 74.2661 271.732 75.4689 269.218 77.4316Z" fill="url(#paint1_linear)"/>
<path d="M246.146 69.0302C246.146 69.0302 248.708 63.3515 254.836 64.5184C260.964 65.6852 267.305 76.9469 264.942 82.829C263.507 86.4019 261.729 89.8322 259.634 93.0734L257.448 91.5655C257.448 91.5655 262.464 86.1142 262.464 81.5425C262.464 76.9708 254.94 69.9158 254.721 69.7004C254.502 69.485 250.664 66.7085 247.937 71.0049C245.21 75.3013 246.146 69.0302 246.146 69.0302Z" fill="#68E1FD"/>
<path opacity="0.37" d="M246.146 69.0302C246.146 69.0302 248.708 63.3515 254.836 64.5184C260.964 65.6852 267.305 76.9469 264.942 82.829C263.507 86.4019 261.729 89.8322 259.634 93.0734L257.448 91.5655C257.448 91.5655 262.464 86.1142 262.464 81.5425C262.464 76.9708 254.94 69.9158 254.721 69.7004C254.502 69.485 250.664 66.7085 247.937 71.0049C245.21 75.3013 246.146 69.0302 246.146 69.0302Z" fill="url(#paint2_linear)"/>
<path d="M273.736 55.5245C272.922 55.8416 271.945 56.2784 271.86 57.1401C271.837 57.4539 271.893 57.7684 272.024 58.0556C272.552 59.1403 273.197 60.1655 273.949 61.1134C276.008 64.0635 277.398 67.4025 279.105 70.562C279.185 70.7549 279.323 70.9197 279.5 71.0347C279.692 71.1124 279.904 71.1291 280.107 71.0826C281.929 70.8312 283.581 69.7841 285.154 68.7967C289.268 66.2037 293.484 63.7922 297.805 61.5622C298.974 61.0641 300.013 60.3088 300.841 59.3541C301.752 58.1215 301.88 56.4939 301.855 54.962C301.892 52.7564 301.53 50.562 300.786 48.4814C300.019 46.4129 298.599 44.641 296.736 43.4251C295.345 42.5634 293.699 40.8879 292.041 41.7556C290.383 42.6232 289.004 44.1491 287.656 45.298C284.844 47.7813 282.154 50.4142 279.069 52.5684C277.419 53.7622 275.628 54.7548 273.736 55.5245Z" fill="#68E1FD"/>
<path d="M270.256 59.2524C270.031 59.3483 269.849 59.5231 269.746 59.743C269.705 59.9242 269.727 60.1137 269.807 60.2816C270.153 61.1732 270.882 61.8494 271.428 62.6333C271.837 63.2692 272.19 63.9377 272.485 64.6319C273.451 66.7203 274.453 68.8206 275.522 70.8431C275.547 70.9333 275.596 71.0152 275.664 71.0799C275.732 71.1447 275.817 71.19 275.909 71.2109C276.002 71.2318 276.098 71.2276 276.188 71.1986C276.278 71.1697 276.359 71.1171 276.421 71.0466C277.315 70.5412 278.132 69.9147 278.85 69.1856C278.93 69.1147 278.992 69.0267 279.032 68.9283C279.057 68.7978 279.044 68.6632 278.996 68.5394C278.685 67.6529 278.278 66.8022 277.781 66.0022C276.732 64.2158 275.587 62.4859 274.35 60.8201C273.833 60.1021 273.263 58.9532 272.528 58.4266C271.793 57.9 270.858 58.9352 270.256 59.2524Z" fill="white"/>
<path d="M251.782 72.9497C251.22 72.6159 250.779 72.1152 250.524 71.5195C250.401 71.2225 250.347 70.9016 250.368 70.5812C250.389 70.2608 250.484 69.9493 250.646 69.6705C250.885 69.3194 251.19 69.0167 251.545 68.7789C252.549 68.028 253.611 67.3558 254.721 66.7683C255.306 66.4409 255.93 66.1876 256.579 66.0143C257.205 65.8856 257.842 65.8195 258.48 65.8169C259.04 65.7519 259.607 65.8302 260.126 66.0443C260.467 66.2287 260.732 66.5242 260.876 66.88C261.02 67.2359 261.034 67.6301 260.916 67.995C260.576 68.6638 260.038 69.2148 259.373 69.5747C257.94 70.61 256.731 71.9204 255.28 72.9377C254.769 73.2949 254.159 73.4877 253.533 73.4899C252.906 73.492 252.295 73.3033 251.782 72.9497Z" fill="url(#paint3_linear)"/>
<path d="M254.089 76.6058C253.527 76.2746 253.088 75.7729 252.838 75.1756C252.715 74.8787 252.661 74.5583 252.681 74.2381C252.701 73.9179 252.794 73.6064 252.954 73.3266C253.198 72.978 253.505 72.6759 253.859 72.435C254.862 71.6841 255.925 71.0119 257.035 70.4244C257.618 70.0971 258.24 69.8438 258.887 69.6704C259.515 69.542 260.153 69.4759 260.794 69.473C261.354 69.4083 261.92 69.4866 262.44 69.7004C262.779 69.8865 263.043 70.1821 263.187 70.5375C263.331 70.8928 263.346 71.2861 263.23 71.6511C262.897 72.3266 262.363 72.886 261.699 73.2548C260.266 74.29 259.057 75.6005 257.606 76.6177C257.091 76.9754 256.476 77.1664 255.846 77.1643C255.216 77.1621 254.602 76.9669 254.089 76.6058Z" fill="url(#paint4_linear)"/>
<path d="M256.78 79.8249C256.217 79.4937 255.778 78.992 255.529 78.3948C255.405 78.0979 255.352 77.7774 255.372 77.4573C255.392 77.1371 255.485 76.8255 255.644 76.5457C255.887 76.1976 256.194 75.8972 256.549 75.6601C257.551 74.9053 258.614 74.231 259.725 73.6436C260.308 73.3163 260.93 73.0629 261.578 72.8896C262.205 72.7602 262.844 72.696 263.485 72.6981C264.044 72.6285 264.611 72.7048 265.131 72.9195C265.47 73.1067 265.734 73.4034 265.878 73.7598C266.022 74.1161 266.037 74.5104 265.92 74.8762C265.577 75.5408 265.04 76.0889 264.377 76.45C262.938 77.4852 261.73 78.7957 260.278 79.8129C259.767 80.1701 259.157 80.363 258.531 80.3651C257.905 80.3673 257.293 80.1786 256.78 79.8249Z" fill="url(#paint5_linear)"/>
<path d="M259.877 82.7631C259.315 82.4335 258.877 81.934 258.626 81.339C258.503 81.041 258.45 80.7196 258.47 80.3985C258.49 80.0775 258.582 79.7649 258.741 79.484C258.986 79.1392 259.29 78.8394 259.64 78.5984C260.646 77.8467 261.71 77.1744 262.823 76.5878C263.396 76.2609 264.008 76.0056 264.645 75.8278C265.273 75.704 265.911 75.6399 266.552 75.6363C267.11 75.5727 267.676 75.6488 268.197 75.8577C268.537 76.0449 268.801 76.3417 268.945 76.698C269.089 77.0543 269.103 77.4486 268.987 77.8145C268.645 78.4836 268.105 79.0346 267.438 79.3942C266.005 80.4294 264.796 81.7399 263.345 82.7572C262.839 83.1117 262.233 83.3027 261.612 83.3038C260.991 83.3049 260.385 83.116 259.877 82.7631Z" fill="url(#paint6_linear)"/>
<path d="M261.183 59.5995C260.749 59.573 260.314 59.6196 259.895 59.7371C259.276 60.0023 258.731 60.4132 258.31 60.9339L254.836 64.5242C254.465 64.8714 254.153 65.2756 253.913 65.721C253.691 66.2608 253.575 66.8377 253.573 67.4204C253.47 68.9463 253.421 70.4782 253.421 72.0041C253.4 72.2157 253.456 72.4277 253.579 72.6025C253.67 72.6809 253.778 72.7379 253.895 72.769C254.012 72.8001 254.135 72.8045 254.253 72.782C255.025 72.688 255.752 72.3707 256.341 71.8701C256.93 71.3695 257.355 70.7082 257.563 69.9695C257.656 69.4732 257.814 68.9905 258.031 68.5334C258.463 67.9633 259.054 67.5289 259.731 67.2828C259.836 67.2239 259.952 67.1872 260.072 67.1751C260.256 67.1818 260.434 67.2445 260.582 67.3546C261.602 67.953 262.628 68.5514 263.697 69.066C264.996 69.7848 266.459 70.1678 267.949 70.179C269.661 70.0524 271.297 69.4276 272.649 68.3838C273.095 68.0096 273.453 67.5445 273.698 67.0207C273.943 66.4969 274.07 65.9269 274.07 65.35C274.004 63.7822 272.807 62.5136 271.684 61.4006C271.167 60.892 270.718 60.2038 269.959 60.1141C268.993 60.0363 267.997 60.1141 267.019 60.0423C265.076 59.8867 263.132 59.5995 261.183 59.5995Z" fill="url(#paint7_linear)"/>
<path d="M222.332 74.5473L224.689 77.0187L234.127 107.237L234.424 109.852L264.062 97.3579L261.11 94.4497L246.364 66.9956L246.662 65.1047L222.332 74.5473Z" fill="#68E1FD"/>
<path d="M215.542 89.513C215.542 90.4012 215.363 91.2806 215.017 92.1007C214.671 92.9208 214.164 93.6657 213.525 94.2926C212.887 94.9195 212.129 95.4163 211.296 95.7543C210.462 96.0924 209.569 96.2652 208.667 96.2629C208.245 96.2625 207.824 96.2204 207.41 96.1372L210.41 82.9727C211.882 83.3453 213.186 84.1907 214.115 85.3753C215.045 86.5598 215.547 88.0158 215.542 89.513Z" fill="#68E1FD"/>
<path opacity="0.37" d="M228.254 75.2294L246.316 67.0913L261.092 94.4556L256.033 96.2927L248.338 82.5297C246.669 79.5373 244.063 77.156 240.909 75.7404C237.755 74.3247 234.222 73.9503 230.835 74.6729L228.254 75.2294Z" fill="url(#paint8_linear)"/>
<path d="M210.721 89.8921C211.485 86.2444 211.263 83.1163 210.225 82.9052C209.187 82.6942 207.726 85.4801 206.962 89.1278C206.198 92.7754 206.42 95.9035 207.458 96.1146C208.496 96.3256 209.957 93.5397 210.721 89.8921Z" fill="#68E1FD"/>
<path opacity="0.37" d="M210.721 89.8921C211.485 86.2444 211.263 83.1163 210.225 82.9052C209.187 82.6942 207.726 85.4801 206.962 89.1278C206.198 92.7754 206.42 95.9035 207.458 96.1146C208.496 96.3256 209.957 93.5397 210.721 89.8921Z" fill="url(#paint9_linear)"/>
<path d="M224.689 77.0185L243.243 68.671L243.905 66.3433L222.332 74.5472L224.689 77.0185Z" fill="url(#paint10_linear)"/>
<path d="M206.208 85.9406H206.165H205.843C205.797 85.9383 205.752 85.927 205.711 85.9074C205.669 85.8877 205.632 85.86 205.602 85.826C205.571 85.792 205.548 85.7524 205.533 85.7094C205.518 85.6664 205.512 85.6209 205.515 85.5756C205.516 85.5297 205.526 85.4844 205.546 85.4427C205.565 85.4009 205.593 85.3636 205.628 85.3332C205.663 85.3027 205.704 85.2798 205.748 85.2659C205.793 85.252 205.84 85.2474 205.886 85.2525H206.244C206.329 85.267 206.405 85.3117 206.459 85.378C206.513 85.4444 206.54 85.5277 206.535 85.6124C206.531 85.6971 206.495 85.7773 206.435 85.8378C206.374 85.8982 206.294 85.9348 206.208 85.9406Z" fill="#68E1FD"/>
<path d="M168.45 130.58C168.357 130.577 168.269 130.539 168.205 130.473C168.14 130.407 168.104 130.319 168.104 130.227V129.539C168.106 129.45 168.143 129.364 168.208 129.302C168.273 129.239 168.36 129.204 168.45 129.204C168.497 129.205 168.542 129.216 168.584 129.235C168.626 129.254 168.664 129.281 168.696 129.314C168.728 129.347 168.752 129.386 168.768 129.429C168.785 129.472 168.792 129.517 168.791 129.563V130.245C168.787 130.333 168.751 130.417 168.688 130.479C168.624 130.541 168.54 130.577 168.45 130.58ZM168.748 125.135H168.718C168.672 125.131 168.627 125.118 168.586 125.097C168.545 125.076 168.508 125.047 168.479 125.012C168.45 124.977 168.428 124.936 168.414 124.893C168.401 124.849 168.397 124.803 168.402 124.758L168.463 124.076C168.466 124.03 168.478 123.985 168.499 123.945C168.52 123.904 168.55 123.868 168.585 123.839C168.621 123.809 168.663 123.788 168.708 123.775C168.752 123.762 168.799 123.759 168.845 123.765C168.891 123.768 168.936 123.781 168.977 123.802C169.018 123.823 169.054 123.852 169.084 123.887C169.113 123.923 169.135 123.963 169.149 124.007C169.162 124.05 169.166 124.096 169.161 124.142L169.094 124.818C169.089 124.899 169.054 124.976 168.996 125.034C168.938 125.092 168.861 125.128 168.778 125.135H168.748ZM169.41 119.749H169.386C169.294 119.735 169.212 119.685 169.158 119.611C169.103 119.537 169.08 119.445 169.094 119.354L169.21 118.678C169.216 118.633 169.232 118.59 169.256 118.551C169.28 118.512 169.311 118.478 169.349 118.451C169.386 118.425 169.428 118.406 169.473 118.395C169.518 118.385 169.565 118.383 169.61 118.391C169.702 118.407 169.784 118.458 169.837 118.533C169.891 118.609 169.912 118.702 169.896 118.792L169.787 119.462C169.766 119.548 169.713 119.623 169.639 119.672C169.564 119.721 169.474 119.74 169.386 119.725L169.41 119.749ZM170.503 114.4H170.418C170.328 114.377 170.251 114.32 170.203 114.242C170.155 114.164 170.141 114.07 170.163 113.981C170.218 113.754 170.278 113.532 170.333 113.317C170.359 113.228 170.418 113.153 170.498 113.106C170.578 113.06 170.673 113.045 170.764 113.065C170.854 113.089 170.931 113.147 170.978 113.227C171.025 113.307 171.037 113.401 171.013 113.49C170.959 113.706 170.898 113.927 170.843 114.148C170.819 114.217 170.772 114.276 170.711 114.317C170.65 114.358 170.577 114.379 170.503 114.376V114.4ZM172.107 109.188C172.067 109.197 172.025 109.197 171.985 109.188C171.897 109.157 171.826 109.093 171.786 109.01C171.746 108.927 171.741 108.832 171.772 108.745L172.015 108.105C172.032 108.062 172.056 108.022 172.088 107.989C172.12 107.955 172.158 107.928 172.2 107.91C172.242 107.891 172.288 107.88 172.335 107.879C172.381 107.877 172.427 107.885 172.471 107.901C172.514 107.917 172.553 107.941 172.586 107.972C172.619 108.003 172.646 108.04 172.665 108.081C172.684 108.123 172.694 108.167 172.695 108.212C172.696 108.257 172.688 108.302 172.671 108.344L172.422 108.919C172.401 108.986 172.359 109.045 172.303 109.089C172.246 109.133 172.178 109.159 172.107 109.164V109.188ZM174.299 104.185C174.242 104.186 174.185 104.171 174.135 104.143C174.094 104.123 174.058 104.095 174.028 104.061C173.999 104.026 173.976 103.987 173.963 103.944C173.949 103.901 173.944 103.855 173.949 103.81C173.954 103.766 173.967 103.722 173.989 103.683L174.311 103.084C174.363 103.023 174.435 102.981 174.515 102.966C174.595 102.951 174.677 102.964 174.749 103.002C174.82 103.04 174.876 103.101 174.907 103.175C174.938 103.249 174.942 103.331 174.918 103.407L174.597 104.006C174.564 104.054 174.52 104.094 174.468 104.121C174.416 104.148 174.358 104.162 174.299 104.161V104.185ZM177.153 99.5179C177.082 99.5184 177.012 99.4975 176.953 99.458C176.878 99.404 176.827 99.3232 176.811 99.2327C176.795 99.1422 176.815 99.0491 176.868 98.9733L177.281 98.4168C177.339 98.3489 177.42 98.3053 177.51 98.2949C177.599 98.2845 177.689 98.3081 177.761 98.3608C177.833 98.4136 177.882 98.4915 177.898 98.5787C177.914 98.6658 177.895 98.7556 177.846 98.8297L177.439 99.3742C177.404 99.4147 177.36 99.4466 177.31 99.4674C177.261 99.4881 177.207 99.4972 177.153 99.4939V99.5179ZM180.712 95.3291C180.641 95.3304 180.572 95.3104 180.513 95.272C180.453 95.2336 180.407 95.1785 180.38 95.1138C180.353 95.0491 180.347 94.978 180.362 94.9096C180.377 94.8413 180.412 94.7789 180.463 94.7307C180.627 94.5632 180.797 94.4076 180.961 94.2461C181.028 94.1824 181.117 94.1469 181.21 94.1469C181.303 94.1469 181.393 94.1824 181.459 94.2461C181.525 94.3111 181.562 94.3994 181.562 94.4914C181.562 94.5834 181.525 94.6717 181.459 94.7367L180.967 95.2095C180.936 95.2458 180.897 95.2748 180.853 95.2945C180.809 95.3141 180.761 95.3239 180.712 95.3232V95.3291ZM184.964 91.8166C184.907 91.8154 184.851 91.8013 184.8 91.7754C184.75 91.7495 184.706 91.7124 184.672 91.667C184.62 91.5914 184.601 91.4988 184.618 91.4093C184.635 91.3197 184.687 91.2403 184.763 91.1883L185.334 90.7993C185.412 90.7481 185.507 90.7289 185.599 90.7456C185.69 90.7624 185.772 90.8139 185.826 90.8891C185.876 90.9668 185.894 91.0604 185.875 91.1505C185.857 91.2407 185.805 91.3206 185.729 91.3738L185.164 91.7508C185.098 91.7948 185.019 91.8159 184.939 91.8106L184.964 91.8166ZM189.743 89.076C189.665 89.0738 189.589 89.0457 189.528 88.9962C189.468 88.9468 189.426 88.8788 189.409 88.803C189.392 88.7273 189.402 88.6482 189.436 88.5784C189.47 88.5086 189.527 88.452 189.597 88.4178L190.235 88.1305C190.278 88.1075 190.325 88.0936 190.374 88.0896C190.423 88.0857 190.472 88.0917 190.518 88.1074C190.564 88.1231 190.607 88.1481 190.643 88.1808C190.678 88.2135 190.707 88.2532 190.726 88.2974C190.746 88.3415 190.756 88.3892 190.756 88.4374C190.755 88.4855 190.745 88.5331 190.725 88.577C190.705 88.621 190.676 88.6604 190.64 88.6927C190.604 88.7251 190.561 88.7496 190.515 88.7648L189.907 89.0461C189.847 89.0679 189.783 89.0761 189.719 89.07L189.743 89.076ZM194.93 87.1731C194.854 87.1741 194.779 87.1499 194.719 87.1044C194.658 87.0588 194.615 86.9945 194.596 86.9218C194.583 86.8782 194.579 86.8325 194.584 86.7873C194.59 86.7422 194.604 86.6986 194.627 86.659C194.649 86.6194 194.68 86.5847 194.716 86.5569C194.752 86.529 194.794 86.5087 194.839 86.4969C195.065 86.4291 195.29 86.3693 195.513 86.3174C195.557 86.3049 195.604 86.3013 195.649 86.307C195.695 86.3126 195.739 86.3273 195.779 86.3503C195.819 86.3732 195.853 86.4039 195.881 86.4404C195.908 86.4769 195.927 86.5186 195.938 86.5627C195.962 86.6516 195.949 86.7463 195.903 86.826C195.856 86.9056 195.779 86.9638 195.689 86.9876L195.027 87.1611C194.984 87.1751 194.938 87.1772 194.893 87.1671L194.93 87.1731ZM200.396 86.108C200.31 86.1032 200.228 86.0675 200.167 86.0075C200.106 85.9475 200.069 85.8674 200.064 85.7825C200.059 85.6976 200.085 85.6138 200.138 85.5469C200.192 85.4801 200.268 85.4348 200.353 85.4198L201.052 85.348C201.097 85.3437 201.143 85.3482 201.187 85.3614C201.23 85.3745 201.271 85.396 201.306 85.4246C201.341 85.4533 201.371 85.4884 201.392 85.5282C201.414 85.5679 201.427 85.6114 201.431 85.6562C201.436 85.701 201.431 85.7462 201.418 85.7892C201.404 85.8323 201.382 85.8723 201.353 85.907C201.324 85.9417 201.289 85.9705 201.248 85.9916C201.208 86.0128 201.164 86.0259 201.118 86.0302L200.438 86.108H200.396Z" fill="#68E1FD"/>
<path d="M168.456 135.798C168.365 135.798 168.277 135.764 168.212 135.701C168.146 135.638 168.107 135.553 168.104 135.463V135.11C168.104 135.019 168.141 134.932 168.205 134.867C168.27 134.802 168.358 134.765 168.45 134.763C168.542 134.763 168.63 134.798 168.695 134.861C168.761 134.923 168.8 135.008 168.803 135.098V135.445C168.804 135.491 168.797 135.536 168.78 135.578C168.764 135.621 168.739 135.659 168.708 135.692C168.676 135.725 168.638 135.751 168.596 135.77C168.554 135.788 168.509 135.798 168.463 135.798H168.456Z" fill="#68E1FD"/>
<path d="M206.961 89.477C206.961 89.477 207.028 89.477 206.615 89.477C206.521 89.4739 206.433 89.4356 206.367 89.3698C206.301 89.3041 206.264 89.2161 206.262 89.1239C206.273 89.0345 206.314 88.9513 206.38 88.8882C206.445 88.8251 206.53 88.7858 206.621 88.7769C206.858 88.7769 206.985 88.7769 206.985 88.7769C207.031 88.7791 207.076 88.7904 207.118 88.8101C207.159 88.8298 207.196 88.8574 207.227 88.8914C207.258 88.9254 207.281 88.9651 207.296 89.0081C207.31 89.0511 207.316 89.0966 207.313 89.1419C207.31 89.2318 207.271 89.3171 207.206 89.3796C207.14 89.4421 207.052 89.477 206.961 89.477Z" fill="#68E1FD"/>
<path d="M176.4 129.707C176.354 129.705 176.308 129.694 176.266 129.675C176.224 129.656 176.186 129.628 176.154 129.594C176.123 129.56 176.099 129.52 176.084 129.477C176.069 129.433 176.063 129.387 176.066 129.342V128.665C176.067 128.619 176.077 128.573 176.097 128.531C176.117 128.489 176.145 128.451 176.181 128.42C176.217 128.39 176.258 128.367 176.303 128.354C176.349 128.34 176.396 128.336 176.443 128.342C176.537 128.348 176.625 128.391 176.687 128.46C176.75 128.53 176.782 128.621 176.777 128.713L176.728 129.401C176.72 129.482 176.682 129.558 176.622 129.614C176.562 129.67 176.483 129.703 176.4 129.707ZM176.904 124.201H176.862C176.815 124.196 176.771 124.182 176.73 124.16C176.689 124.137 176.653 124.107 176.624 124.071C176.596 124.035 176.574 123.993 176.562 123.949C176.55 123.904 176.546 123.858 176.552 123.812L176.643 123.118C176.666 123.035 176.718 122.963 176.791 122.915C176.864 122.868 176.952 122.848 177.038 122.86C177.125 122.871 177.204 122.914 177.261 122.979C177.318 123.044 177.349 123.128 177.348 123.214L177.281 123.878C177.278 123.924 177.266 123.968 177.245 124.009C177.224 124.05 177.196 124.087 177.161 124.117C177.126 124.147 177.085 124.17 177.041 124.184C176.997 124.199 176.951 124.205 176.904 124.201ZM177.797 118.738H177.73C177.684 118.73 177.64 118.712 177.601 118.686C177.562 118.661 177.529 118.628 177.503 118.59C177.477 118.551 177.459 118.508 177.45 118.463C177.441 118.417 177.441 118.37 177.451 118.325L177.597 117.649C177.605 117.603 177.622 117.56 177.648 117.521C177.673 117.482 177.707 117.449 177.746 117.424C177.786 117.399 177.83 117.382 177.876 117.374C177.923 117.366 177.97 117.368 178.016 117.38C178.107 117.4 178.187 117.454 178.238 117.531C178.289 117.609 178.307 117.702 178.289 117.793L178.149 118.463C178.131 118.541 178.087 118.612 178.023 118.662C177.958 118.712 177.879 118.739 177.797 118.738ZM179.158 113.353C179.125 113.358 179.093 113.358 179.06 113.353C178.971 113.326 178.895 113.266 178.85 113.186C178.805 113.105 178.793 113.011 178.817 112.922L179.03 112.252C179.044 112.208 179.066 112.167 179.096 112.132C179.126 112.097 179.162 112.068 179.204 112.047C179.245 112.026 179.29 112.013 179.336 112.009C179.383 112.005 179.429 112.01 179.473 112.024C179.518 112.038 179.559 112.06 179.595 112.089C179.63 112.119 179.66 112.155 179.681 112.195C179.702 112.236 179.716 112.28 179.72 112.326C179.724 112.371 179.718 112.417 179.704 112.461L179.498 113.119C179.477 113.193 179.432 113.257 179.371 113.304C179.31 113.35 179.235 113.376 179.158 113.377V113.353ZM181.077 108.153C181.031 108.164 180.983 108.164 180.937 108.153C180.894 108.136 180.855 108.11 180.821 108.078C180.788 108.046 180.762 108.007 180.745 107.965C180.727 107.922 180.719 107.877 180.719 107.831C180.72 107.785 180.73 107.74 180.749 107.698L181.04 107.058C181.059 107.015 181.086 106.977 181.119 106.945C181.153 106.913 181.193 106.889 181.237 106.873C181.28 106.856 181.327 106.849 181.373 106.851C181.42 106.853 181.466 106.864 181.508 106.884C181.592 106.923 181.658 106.993 181.691 107.079C181.724 107.165 181.721 107.261 181.684 107.345L181.399 107.943C181.376 108.01 181.333 108.068 181.275 108.11C181.218 108.152 181.148 108.175 181.077 108.177V108.153ZM183.652 103.24C183.585 103.239 183.52 103.221 183.464 103.186C183.424 103.162 183.39 103.131 183.362 103.094C183.335 103.057 183.316 103.015 183.305 102.97C183.294 102.926 183.292 102.88 183.3 102.835C183.307 102.789 183.324 102.746 183.348 102.707C183.47 102.51 183.597 102.312 183.725 102.109C183.749 102.07 183.781 102.036 183.818 102.009C183.856 101.982 183.899 101.963 183.944 101.953C183.99 101.943 184.037 101.942 184.082 101.951C184.128 101.959 184.172 101.976 184.211 102.001C184.289 102.05 184.345 102.128 184.366 102.218C184.386 102.308 184.37 102.402 184.32 102.48C184.198 102.671 184.071 102.863 183.949 103.078C183.921 103.132 183.878 103.178 183.826 103.21C183.774 103.243 183.714 103.261 183.652 103.264V103.24ZM186.962 98.7818C186.877 98.7816 186.795 98.752 186.731 98.6981C186.696 98.6683 186.667 98.6319 186.646 98.5911C186.625 98.5503 186.613 98.5058 186.609 98.4602C186.606 98.4146 186.612 98.3688 186.626 98.3254C186.641 98.282 186.664 98.2419 186.694 98.2074L187.168 97.6808C187.234 97.6158 187.324 97.5792 187.417 97.5792C187.511 97.5792 187.6 97.6158 187.666 97.6808C187.7 97.7126 187.726 97.7507 187.744 97.7929C187.763 97.835 187.772 97.8804 187.772 97.9262C187.772 97.9719 187.763 98.0173 187.744 98.0594C187.726 98.1016 187.7 98.1397 187.666 98.1715C187.514 98.339 187.356 98.5066 187.205 98.6801C187.143 98.7516 187.056 98.7967 186.962 98.8058V98.7818ZM191.037 94.9821C190.983 94.984 190.929 94.973 190.881 94.9501C190.832 94.9272 190.79 94.893 190.758 94.8504C190.728 94.8144 190.707 94.7731 190.694 94.7288C190.682 94.6845 190.678 94.6382 190.684 94.5926C190.689 94.5469 190.704 94.5028 190.727 94.4629C190.75 94.4229 190.781 94.3878 190.818 94.3598L191.383 93.9349C191.46 93.8821 191.555 93.8607 191.648 93.8752C191.741 93.8897 191.824 93.939 191.881 94.0127C191.908 94.0496 191.928 94.0915 191.938 94.1358C191.949 94.1802 191.951 94.2261 191.943 94.2712C191.936 94.3162 191.92 94.3593 191.896 94.3981C191.871 94.4369 191.84 94.4707 191.802 94.4974L191.249 94.9103C191.192 94.9655 191.117 94.9994 191.037 95.006V94.9821ZM195.792 92.062C195.711 92.064 195.631 92.0381 195.567 91.9888C195.502 91.9394 195.457 91.8696 195.44 91.7913C195.422 91.7129 195.432 91.6308 195.469 91.5591C195.505 91.4873 195.566 91.4303 195.64 91.3977L196.284 91.0985C196.326 91.0797 196.372 91.0692 196.418 91.0677C196.465 91.0662 196.511 91.0738 196.554 91.0899C196.598 91.106 196.638 91.1304 196.672 91.1616C196.705 91.1929 196.733 91.2304 196.752 91.2721C196.771 91.3137 196.782 91.3587 196.783 91.4044C196.785 91.4501 196.777 91.4956 196.761 91.5384C196.744 91.5812 196.719 91.6204 196.688 91.6537C196.656 91.6871 196.618 91.714 196.576 91.7328L195.968 92.0261C195.916 92.0612 195.855 92.0819 195.792 92.0859V92.062ZM201.064 90.1651C200.974 90.1713 200.885 90.1432 200.815 90.0866C200.745 90.0299 200.7 89.9491 200.689 89.8608C200.679 89.7725 200.702 89.6834 200.756 89.6119C200.81 89.5405 200.89 89.4922 200.979 89.4769L201.677 89.3154C201.723 89.3049 201.77 89.3036 201.816 89.3116C201.862 89.3195 201.906 89.3366 201.945 89.3618C201.984 89.3869 202.018 89.4197 202.044 89.458C202.07 89.4963 202.088 89.5393 202.096 89.5846C202.106 89.6294 202.107 89.6757 202.098 89.7208C202.09 89.7658 202.072 89.8088 202.047 89.8472C202.022 89.8856 201.989 89.9186 201.95 89.9444C201.912 89.9702 201.869 89.9883 201.823 89.9975L201.149 90.1531L201.064 90.1651Z" fill="#68E1FD"/>
<path d="M176.224 134.979C176.178 134.979 176.132 134.969 176.089 134.952C176.046 134.934 176.007 134.907 175.975 134.874C175.943 134.842 175.917 134.803 175.901 134.76C175.884 134.717 175.876 134.671 175.878 134.626V134.272C175.881 134.181 175.92 134.094 175.987 134.031C176.054 133.967 176.143 133.931 176.236 133.931C176.282 133.932 176.328 133.942 176.371 133.96C176.413 133.978 176.451 134.004 176.484 134.037C176.516 134.07 176.541 134.109 176.558 134.151C176.575 134.194 176.583 134.239 176.582 134.284V134.649C176.578 134.739 176.538 134.824 176.471 134.885C176.404 134.947 176.315 134.98 176.224 134.979Z" fill="#68E1FD"/>
<path d="M206.961 94.6589H206.663C206.583 94.6589 206.506 94.6274 206.449 94.5713C206.392 94.5152 206.36 94.4391 206.36 94.3597C206.36 94.2804 206.392 94.2043 206.449 94.1482C206.506 94.0921 206.583 94.0605 206.663 94.0605H206.979C207.06 94.0605 207.137 94.0921 207.194 94.1482C207.251 94.2043 207.283 94.2804 207.283 94.3597C207.283 94.4391 207.251 94.5152 207.194 94.5713C207.137 94.6274 207.06 94.6589 206.979 94.6589H206.961Z" fill="#68E1FD"/>
<path d="M184.569 135.762C184.489 135.756 184.415 135.721 184.361 135.663C184.307 135.605 184.277 135.53 184.277 135.451V134.853C184.275 134.813 184.282 134.773 184.297 134.735C184.313 134.698 184.336 134.665 184.367 134.638C184.397 134.611 184.433 134.591 184.472 134.579C184.511 134.568 184.553 134.565 184.593 134.572C184.633 134.573 184.672 134.582 184.708 134.599C184.745 134.615 184.777 134.639 184.804 134.668C184.831 134.697 184.852 134.73 184.866 134.767C184.88 134.804 184.886 134.843 184.885 134.883V135.481C184.88 135.559 184.844 135.633 184.785 135.685C184.726 135.738 184.648 135.766 184.569 135.762ZM184.824 131.161C184.784 131.158 184.745 131.147 184.709 131.129C184.674 131.111 184.642 131.087 184.616 131.056C184.59 131.026 184.57 130.992 184.558 130.954C184.546 130.917 184.541 130.877 184.544 130.838L184.593 130.239C184.594 130.2 184.603 130.161 184.619 130.125C184.636 130.089 184.661 130.057 184.691 130.031C184.722 130.005 184.757 129.985 184.796 129.974C184.834 129.962 184.875 129.959 184.915 129.964C184.955 129.967 184.994 129.978 185.029 129.996C185.065 130.014 185.097 130.038 185.123 130.068C185.149 130.098 185.168 130.133 185.181 130.171C185.193 130.208 185.198 130.248 185.194 130.287L185.152 130.886C185.146 130.964 185.108 131.037 185.048 131.088C184.988 131.14 184.909 131.166 184.83 131.161H184.824ZM185.267 126.577H185.231C185.191 126.573 185.154 126.561 185.119 126.542C185.085 126.523 185.054 126.497 185.03 126.466C185.006 126.436 184.988 126.401 184.978 126.363C184.967 126.326 184.964 126.287 184.97 126.248L185.036 125.65C185.046 125.57 185.087 125.498 185.151 125.449C185.215 125.399 185.296 125.377 185.376 125.386C185.457 125.396 185.53 125.437 185.58 125.499C185.631 125.562 185.653 125.642 185.644 125.721L185.577 126.32C185.565 126.391 185.529 126.456 185.473 126.503C185.417 126.55 185.347 126.577 185.273 126.577H185.267ZM185.935 122.017H185.881C185.841 122.011 185.803 121.997 185.77 121.976C185.736 121.955 185.707 121.927 185.684 121.895C185.662 121.862 185.646 121.826 185.638 121.787C185.63 121.749 185.63 121.709 185.638 121.67L185.741 121.072C185.747 121.034 185.762 120.997 185.783 120.964C185.804 120.932 185.831 120.903 185.863 120.881C185.895 120.859 185.932 120.843 185.97 120.835C186.009 120.826 186.048 120.826 186.087 120.833C186.166 120.847 186.236 120.892 186.283 120.956C186.329 121.021 186.348 121.101 186.336 121.18L186.233 121.748C186.227 121.821 186.194 121.888 186.14 121.938C186.086 121.988 186.015 122.016 185.941 122.017H185.935ZM186.864 117.506H186.798C186.759 117.497 186.722 117.481 186.689 117.458C186.656 117.436 186.629 117.407 186.608 117.373C186.587 117.34 186.573 117.302 186.567 117.263C186.561 117.224 186.563 117.185 186.573 117.147L186.706 116.584C186.728 116.508 186.778 116.443 186.848 116.403C186.917 116.362 186.999 116.35 187.077 116.369C187.115 116.378 187.152 116.394 187.184 116.417C187.216 116.44 187.242 116.469 187.263 116.503C187.283 116.536 187.297 116.573 187.302 116.612C187.308 116.651 187.306 116.69 187.296 116.728L187.162 117.29C187.143 117.352 187.104 117.406 187.052 117.445C186.999 117.483 186.936 117.505 186.87 117.506H186.864ZM188.115 113.066C188.085 113.071 188.054 113.071 188.024 113.066C187.986 113.054 187.95 113.035 187.92 113.01C187.889 112.984 187.864 112.953 187.846 112.918C187.828 112.883 187.817 112.844 187.814 112.805C187.811 112.765 187.817 112.726 187.83 112.689L188.012 112.138C188.025 112.101 188.044 112.066 188.07 112.037C188.096 112.007 188.128 111.983 188.164 111.966C188.199 111.948 188.238 111.938 188.278 111.936C188.318 111.934 188.357 111.939 188.395 111.953C188.47 111.978 188.533 112.032 188.569 112.102C188.605 112.173 188.612 112.254 188.589 112.329C188.522 112.509 188.468 112.689 188.407 112.874C188.385 112.931 188.346 112.979 188.295 113.014C188.244 113.048 188.183 113.066 188.122 113.066H188.115ZM189.767 108.763C189.725 108.762 189.684 108.752 189.646 108.733C189.609 108.718 189.576 108.696 189.548 108.668C189.521 108.641 189.499 108.608 189.484 108.571C189.469 108.535 189.462 108.496 189.463 108.457C189.463 108.418 189.472 108.38 189.488 108.344L189.725 107.812C189.761 107.744 189.822 107.693 189.895 107.668C189.968 107.643 190.048 107.647 190.118 107.678C190.189 107.71 190.244 107.766 190.274 107.837C190.304 107.907 190.305 107.986 190.278 108.057L190.041 108.578C190.019 108.63 189.982 108.676 189.935 108.709C189.887 108.742 189.831 108.761 189.773 108.763H189.767ZM191.899 104.664C191.844 104.665 191.789 104.651 191.741 104.622C191.673 104.581 191.624 104.516 191.605 104.44C191.586 104.364 191.598 104.283 191.638 104.215L191.948 103.719C191.969 103.685 191.996 103.656 192.029 103.633C192.061 103.611 192.098 103.594 192.137 103.585C192.176 103.576 192.216 103.575 192.256 103.582C192.295 103.588 192.333 103.602 192.367 103.623C192.401 103.644 192.43 103.671 192.453 103.703C192.477 103.735 192.493 103.771 192.502 103.81C192.511 103.848 192.512 103.888 192.506 103.926C192.499 103.965 192.485 104.002 192.464 104.036C192.361 104.197 192.257 104.359 192.16 104.521C192.134 104.564 192.096 104.6 192.052 104.625C192.007 104.65 191.957 104.663 191.905 104.664H191.899ZM194.626 100.936C194.589 100.937 194.552 100.93 194.518 100.917C194.483 100.904 194.452 100.884 194.426 100.858C194.395 100.833 194.37 100.802 194.352 100.767C194.334 100.732 194.324 100.694 194.321 100.655C194.318 100.616 194.323 100.577 194.336 100.54C194.349 100.503 194.369 100.469 194.395 100.44L194.79 100.003C194.815 99.9676 194.847 99.9382 194.884 99.9163C194.921 99.8945 194.963 99.8808 195.006 99.876C195.049 99.8713 195.093 99.8758 195.134 99.889C195.175 99.9023 195.213 99.9241 195.245 99.953C195.277 99.9819 195.302 100.017 195.319 100.056C195.336 100.096 195.344 100.138 195.343 100.181C195.342 100.224 195.332 100.265 195.313 100.304C195.294 100.342 195.267 100.376 195.233 100.404C195.108 100.539 194.98 100.683 194.851 100.834C194.823 100.865 194.79 100.89 194.752 100.908C194.714 100.925 194.674 100.935 194.632 100.936H194.626ZM198.027 97.7887C197.98 97.7882 197.934 97.7772 197.892 97.7564C197.849 97.7357 197.813 97.7058 197.784 97.669C197.76 97.6372 197.743 97.6011 197.734 97.5628C197.725 97.5245 197.723 97.4848 197.729 97.4459C197.735 97.4069 197.749 97.3696 197.77 97.336C197.791 97.3024 197.819 97.2732 197.851 97.2501L198.331 96.909C198.397 96.8686 198.476 96.8547 198.552 96.8702C198.629 96.8858 198.696 96.9295 198.74 96.9925C198.785 97.0554 198.803 97.1327 198.791 97.2085C198.779 97.2843 198.738 97.3527 198.677 97.3997L198.209 97.7288C198.159 97.7676 198.097 97.7887 198.033 97.7887H198.027ZM202.102 95.5626C202.022 95.5761 201.939 95.5576 201.872 95.511C201.806 95.4644 201.761 95.3937 201.747 95.3143C201.733 95.235 201.752 95.1535 201.799 95.0879C201.847 95.0222 201.918 94.9777 201.999 94.9643L202.558 94.7668C202.63 94.7516 202.706 94.7631 202.771 94.7993C202.835 94.8355 202.884 94.8937 202.908 94.963C202.932 95.0323 202.93 95.1079 202.901 95.1754C202.872 95.2429 202.819 95.2976 202.752 95.3293L202.211 95.5267L202.102 95.5626Z" fill="#68E1FD"/>
<path d="M184.484 140.161C184.444 140.16 184.405 140.151 184.368 140.135C184.332 140.12 184.298 140.097 184.271 140.069C184.243 140.04 184.222 140.007 184.207 139.97C184.192 139.934 184.185 139.895 184.186 139.855V139.556C184.188 139.478 184.221 139.403 184.277 139.348C184.334 139.294 184.41 139.263 184.49 139.263C184.57 139.263 184.648 139.294 184.705 139.351C184.762 139.407 184.794 139.483 184.794 139.562V139.861C184.794 139.901 184.787 139.941 184.772 139.978C184.756 140.015 184.733 140.049 184.704 140.077C184.675 140.105 184.641 140.127 184.603 140.141C184.565 140.156 184.524 140.162 184.484 140.161Z" fill="#68E1FD"/>
<path d="M174.845 230.176C212.634 230.176 243.267 226.144 243.267 221.17C243.267 216.197 212.634 212.165 174.845 212.165C137.057 212.165 106.424 216.197 106.424 221.17C106.424 226.144 137.057 230.176 174.845 230.176Z" fill="url(#paint11_linear)"/>
<path d="M164.527 140.119C166.956 137.21 170.054 134.733 173.716 133.698C177.967 132.501 182.467 133.291 186.858 132.95C186.02 136.57 184.471 139.993 182.297 143.027C181.209 144.649 179.813 146.049 178.186 147.15C173.904 149.866 168.365 149.166 163.276 148.903C161.94 148.831 160.44 148.861 159.505 149.801C159.092 150.219 157.409 151.476 157.634 150.082C157.707 149.639 159.353 148.155 159.65 147.61C161.036 144.969 162.669 142.461 164.527 140.119Z" fill="#68E1FD"/>
<path d="M153.923 138.282C152.925 136.434 151.527 134.825 149.828 133.569C148.129 132.312 146.17 131.439 144.091 131.011C141.018 130.413 137.823 130.802 134.72 130.341C137.276 134.811 138.613 140.346 142.931 143.206C146.69 145.696 151.725 145.438 155.308 148.221C156.31 148.999 157.063 150.285 157.561 148.43C157.834 147.425 157.373 146.689 156.954 145.833C155.727 143.404 155.205 140.693 153.923 138.282Z" fill="#68E1FD"/>
<path opacity="0.37" d="M164.527 140.119C166.956 137.21 170.054 134.733 173.716 133.698C177.967 132.501 182.467 133.291 186.858 132.95C186.02 136.57 184.471 139.993 182.297 143.027C181.209 144.649 179.813 146.049 178.186 147.15C173.904 149.866 168.365 149.166 163.276 148.903C161.94 148.831 160.44 148.861 159.505 149.801C159.092 150.219 157.409 151.476 157.634 150.082C157.707 149.639 159.353 148.155 159.65 147.61C161.036 144.969 162.669 142.461 164.527 140.119Z" fill="url(#paint12_linear)"/>
<path opacity="0.37" d="M153.923 138.282C152.925 136.434 151.527 134.825 149.828 133.569C148.129 132.312 146.17 131.439 144.091 131.011C141.018 130.413 137.823 130.802 134.72 130.341C137.276 134.811 138.613 140.346 142.931 143.206C146.69 145.696 151.725 145.438 155.308 148.221C156.31 148.999 157.063 150.285 157.561 148.43C157.834 147.425 157.373 146.689 156.954 145.833C155.727 143.404 155.205 140.693 153.923 138.282Z" fill="url(#paint13_linear)"/>
<path d="M162.523 182.329C164.545 179.05 167.333 176.118 170.886 174.55C174.991 172.755 179.68 172.916 184.065 171.953C183.752 175.739 182.685 179.428 180.925 182.808C180.057 184.597 178.849 186.206 177.366 187.547C173.424 190.898 167.728 190.958 162.541 191.4C161.181 191.52 159.668 191.76 158.855 192.837C158.496 193.315 156.984 194.817 157.033 193.381C157.033 192.92 158.49 191.191 158.715 190.605C159.718 187.735 160.993 184.964 162.523 182.329Z" fill="#68E1FD"/>
<path d="M153.213 184.573C151.892 182.873 150.208 181.481 148.28 180.494C146.352 179.507 144.227 178.951 142.056 178.864C138.861 178.756 135.709 179.684 132.509 179.726C135.837 183.807 138.114 189.162 142.949 191.335C147.151 193.225 152.18 192.142 156.261 194.327C157.397 194.925 158.375 196.122 158.563 194.171C158.666 193.112 158.077 192.448 157.506 191.658C155.891 189.432 154.907 186.793 153.213 184.573Z" fill="#68E1FD"/>
<path opacity="0.37" d="M162.523 182.329C164.545 179.05 167.333 176.118 170.886 174.55C174.991 172.755 179.68 172.916 184.065 171.953C183.752 175.739 182.685 179.428 180.925 182.808C180.057 184.597 178.849 186.206 177.366 187.547C173.424 190.898 167.728 190.958 162.541 191.4C161.181 191.52 159.668 191.76 158.855 192.837C158.496 193.315 156.984 194.817 157.033 193.381C157.033 192.92 158.49 191.191 158.715 190.605C159.718 187.735 160.993 184.964 162.523 182.329Z" fill="url(#paint14_linear)"/>
<path opacity="0.37" d="M153.213 184.573C151.892 182.873 150.208 181.481 148.28 180.494C146.352 179.507 144.227 178.951 142.056 178.864C138.861 178.756 135.709 179.684 132.509 179.726C135.837 183.807 138.114 189.162 142.949 191.335C147.151 193.225 152.18 192.142 156.261 194.327C157.397 194.925 158.375 196.122 158.563 194.171C158.666 193.112 158.077 192.448 157.506 191.658C155.891 189.432 154.907 186.793 153.213 184.573Z" fill="url(#paint15_linear)"/>
<path d="M159.419 123.831H156.468V215.845H159.419V123.831Z" fill="#68E1FD"/>
<path opacity="0.37" d="M159.419 123.831H156.468V215.845H159.419V123.831Z" fill="url(#paint16_linear)"/>
<path d="M157.203 127.726C167.597 127.726 176.024 119.424 176.024 109.182C176.024 98.9404 167.597 90.6379 157.203 90.6379C146.808 90.6379 138.382 98.9404 138.382 109.182C138.382 119.424 146.808 127.726 157.203 127.726Z" fill="#F8C244"/>
<path d="M157.203 124.985C166.061 124.985 173.242 117.91 173.242 109.182C173.242 100.454 166.061 93.3784 157.203 93.3784C148.344 93.3784 141.163 100.454 141.163 109.182C141.163 117.91 148.344 124.985 157.203 124.985Z" fill="#E8A825"/>
<path d="M155.733 119.139V116.602C154.356 116.6 153.008 116.219 151.84 115.501L152.447 113.82C153.533 114.514 154.797 114.888 156.091 114.897C157.913 114.897 159.128 113.873 159.128 112.443C159.128 111.013 158.138 110.211 156.255 109.451C153.656 108.446 152.053 107.291 152.053 105.113C152.053 103.031 153.553 101.451 155.897 101.074V98.5427H157.476V100.972C158.637 100.985 159.776 101.288 160.786 101.852L160.16 103.533C159.192 102.962 158.082 102.666 156.954 102.678C154.992 102.678 154.257 103.832 154.257 104.832C154.257 106.136 155.199 106.789 157.409 107.692C160.033 108.745 161.357 110.05 161.357 112.282C161.357 114.262 159.954 116.123 157.336 116.548V119.157L155.733 119.139Z" fill="#F8C244"/>
<path d="M181.484 216.784C176.54 219.465 167.807 221.242 157.834 221.242C148.263 221.242 139.821 219.591 134.792 217.089C137.304 213.253 140.746 210.093 144.807 207.895C148.868 205.697 153.421 204.53 158.054 204.5C162.688 204.469 167.256 205.577 171.346 207.721C175.437 209.866 178.921 212.981 181.484 216.784Z" fill="#68E1FD"/>
<path opacity="0.37" d="M181.484 216.784C176.54 219.465 167.807 221.242 157.834 221.242C148.263 221.242 139.821 219.591 134.792 217.089C137.304 213.253 140.746 210.093 144.807 207.895C148.868 205.697 153.421 204.53 158.054 204.5C162.688 204.469 167.256 205.577 171.346 207.721C175.437 209.866 178.921 212.981 181.484 216.784Z" fill="url(#paint17_linear)"/>
<path d="M213.149 166.627C214.645 164.707 216.694 163.276 219.028 162.522C221.737 161.75 224.634 162.259 227.44 162.038C226.907 164.36 225.919 166.557 224.531 168.506C223.836 169.544 222.943 170.438 221.901 171.139C219.162 172.88 215.621 172.432 212.36 172.264C211.51 172.216 210.538 172.264 209.931 172.862C209.669 173.126 208.594 173.934 208.716 173.042C208.765 172.761 209.815 171.809 210.01 171.462C210.9 169.757 211.951 168.138 213.149 166.627Z" fill="#68E1FD"/>
<path d="M206.378 165.448C205.74 164.267 204.845 163.238 203.758 162.435C202.67 161.633 201.417 161.076 200.086 160.805C198.124 160.41 196.078 160.667 194.098 160.374C195.731 163.234 196.582 166.771 199.345 168.602C201.774 170.194 204.975 170.032 207.24 171.809C207.878 172.306 208.364 173.132 208.68 171.947C208.728 171.658 208.718 171.362 208.65 171.076C208.582 170.791 208.458 170.521 208.285 170.283C207.532 168.757 207.198 166.992 206.378 165.448Z" fill="#68E1FD"/>
<path opacity="0.37" d="M213.149 166.627C214.645 164.707 216.694 163.276 219.028 162.522C221.737 161.75 224.634 162.259 227.44 162.038C226.907 164.36 225.919 166.557 224.531 168.506C223.836 169.544 222.943 170.438 221.901 171.139C219.162 172.88 215.621 172.432 212.36 172.264C211.51 172.216 210.538 172.264 209.931 172.862C209.669 173.126 208.594 173.934 208.716 173.042C208.765 172.761 209.815 171.809 210.01 171.462C210.9 169.757 211.951 168.138 213.149 166.627Z" fill="url(#paint18_linear)"/>
<path opacity="0.37" d="M206.378 165.448C205.74 164.267 204.845 163.238 203.758 162.435C202.67 161.633 201.417 161.076 200.086 160.805C198.124 160.41 196.078 160.667 194.098 160.374C195.731 163.234 196.582 166.771 199.345 168.602C201.774 170.194 204.975 170.032 207.24 171.809C207.878 172.306 208.364 173.132 208.68 171.947C208.728 171.658 208.718 171.362 208.65 171.076C208.582 170.791 208.458 170.521 208.285 170.283C207.532 168.757 207.198 166.992 206.378 165.448Z" fill="url(#paint19_linear)"/>
<path d="M211.898 193.633C213.134 191.483 214.998 189.75 217.249 188.66C219.879 187.505 222.873 187.613 225.685 187.002C225.479 189.421 224.797 191.777 223.674 193.938C223.118 195.083 222.345 196.113 221.397 196.972C218.87 199.114 215.227 199.156 211.911 199.437C211.042 199.515 210.089 199.664 209.554 200.358C209.323 200.664 208.339 201.627 208.37 200.706C208.37 200.412 209.305 199.305 209.445 198.91C210.094 197.08 210.915 195.313 211.898 193.633Z" fill="#68E1FD"/>
<path d="M205.922 195.087C205.08 194.001 204.006 193.112 202.776 192.481C201.546 191.85 200.19 191.493 198.804 191.436C196.758 191.365 194.741 191.957 192.695 191.987C194.826 194.596 196.284 198.025 199.375 199.413C202.066 200.61 205.279 199.928 207.878 201.346C208.607 201.741 209.232 202.495 209.354 201.244C209.354 200.946 209.293 200.65 209.177 200.375C209.06 200.1 208.889 199.85 208.673 199.64C207.647 198.18 207.04 196.487 205.922 195.087Z" fill="#68E1FD"/>
<path opacity="0.37" d="M211.898 193.633C213.134 191.483 214.998 189.75 217.249 188.66C219.879 187.505 222.873 187.613 225.685 187.002C225.479 189.421 224.797 191.777 223.674 193.938C223.118 195.083 222.345 196.113 221.397 196.972C218.87 199.114 215.227 199.156 211.911 199.437C211.042 199.515 210.089 199.664 209.554 200.358C209.323 200.664 208.339 201.627 208.37 200.706C208.37 200.412 209.305 199.305 209.445 198.91C210.094 197.08 210.915 195.313 211.898 193.633Z" fill="url(#paint20_linear)"/>
<path opacity="0.37" d="M205.922 195.087C205.08 194.001 204.006 193.112 202.776 192.481C201.546 191.85 200.19 191.493 198.804 191.436C196.758 191.365 194.741 191.957 192.695 191.987C194.826 194.596 196.284 198.025 199.375 199.413C202.066 200.61 205.279 199.928 207.878 201.346C208.607 201.741 209.232 202.495 209.354 201.244C209.354 200.946 209.293 200.65 209.177 200.375C209.06 200.1 208.889 199.85 208.673 199.64C207.647 198.18 207.04 196.487 205.922 195.087Z" fill="url(#paint21_linear)"/>
<path d="M209.894 156.203H208.005V215.073H209.894V156.203Z" fill="#68E1FD"/>
<path opacity="0.37" d="M209.894 156.203H208.005V215.073H209.894V156.203Z" fill="url(#paint22_linear)"/>
<path d="M208.479 158.699C215.13 158.699 220.522 153.386 220.522 146.833C220.522 140.279 215.13 134.967 208.479 134.967C201.828 134.967 196.436 140.279 196.436 146.833C196.436 153.386 201.828 158.699 208.479 158.699Z" fill="#F8C244"/>
<path d="M208.479 156.945C214.148 156.945 218.743 152.418 218.743 146.832C218.743 141.247 214.148 136.72 208.479 136.72C202.811 136.72 198.215 141.247 198.215 146.832C198.215 152.418 202.811 156.945 208.479 156.945Z" fill="#E8A825"/>
<path d="M207.538 153.199V151.584C206.656 151.58 205.792 151.336 205.042 150.878L205.436 149.801C206.133 150.251 206.948 150.492 207.781 150.495C208.935 150.495 209.718 149.837 209.718 148.921C209.718 148.005 209.08 147.491 207.896 147.012C206.238 146.372 205.212 145.63 205.212 144.236C205.22 143.584 205.474 142.958 205.924 142.48C206.374 142.003 206.988 141.707 207.647 141.651V140.035H208.655V141.591C209.397 141.599 210.124 141.793 210.769 142.153L210.362 143.212C209.741 142.849 209.031 142.661 208.309 142.668C207.058 142.668 206.584 143.41 206.584 144.05C206.584 144.882 207.192 145.301 208.607 145.875C210.283 146.551 211.127 147.383 211.127 148.813C211.115 149.5 210.846 150.158 210.372 150.662C209.898 151.165 209.252 151.479 208.558 151.542V153.199H207.538Z" fill="#F8C244"/>
<path d="M224.045 215.677C220.881 217.395 215.293 218.532 208.91 218.532C202.789 218.532 197.371 217.472 194.171 215.875C195.778 213.421 197.98 211.399 200.578 209.993C203.177 208.587 206.089 207.841 209.054 207.821C212.018 207.802 214.941 208.51 217.558 209.881C220.175 211.253 222.404 213.245 224.045 215.677Z" fill="#68E1FD"/>
<path opacity="0.37" d="M224.045 215.677C220.881 217.395 215.293 218.532 208.91 218.532C202.789 218.532 197.371 217.472 194.171 215.875C195.778 213.421 197.98 211.399 200.578 209.993C203.177 208.587 206.089 207.841 209.054 207.821C212.018 207.802 214.941 208.51 217.558 209.881C220.175 211.253 222.404 213.245 224.045 215.677Z" fill="url(#paint23_linear)"/>
<path opacity="0.18" d="M135.69 56.2926C127.285 57.6798 88.2733 65.3636 81.179 84.8003C75.8156 99.5176 100.257 138.284 90.8765 161.878C72.0117 209.334 131.593 214.009 147.356 210.419C158.346 207.918 169.34 204.995 180.937 204.196C193.089 203.362 205.181 205.221 217.424 204.728C248.404 203.479 277.866 188.156 285.5 169.325C288.768 161.265 292.208 154.628 291.77 146.459C290.879 129.885 287.992 90.6027 240.969 74.1599C232.562 71.2213 226.116 66.5874 218.169 63.2281C207.527 58.7157 194.88 56.1005 181.891 54.8472C166.752 53.3773 150.834 53.7947 135.69 56.2926Z" fill="#E6E6E6"/>
<defs>
<linearGradient id="paint0_linear" x1="214.419" y1="97.9979" x2="235.208" y2="97.9979" gradientUnits="userSpaceOnUse">
<stop stop-color="#010101" stop-opacity="0"/>
<stop offset="0.95" stop-color="#010101"/>
</linearGradient>
<linearGradient id="paint1_linear" x1="257.089" y1="71.7409" x2="276.014" y2="71.7409" gradientUnits="userSpaceOnUse">
<stop stop-color="#E4C5D5"/>
<stop offset="0.42" stop-color="#E9D3CF"/>
<stop offset="1" stop-color="#EFE8CA"/>
</linearGradient>
<linearGradient id="paint2_linear" x1="8068.32" y1="4648.98" x2="8671.85" y2="4333.49" gradientUnits="userSpaceOnUse">
<stop stop-color="#010101" stop-opacity="0"/>
<stop offset="0.95" stop-color="#010101"/>
</linearGradient>
<linearGradient id="paint3_linear" x1="4631.51" y1="1063.86" x2="4631.51" y2="1144.51" gradientUnits="userSpaceOnUse">
<stop stop-color="#E4C5D5"/>
<stop offset="0.42" stop-color="#E9D3CF"/>
<stop offset="1" stop-color="#EFE8CA"/>
</linearGradient>
<linearGradient id="paint4_linear" x1="4664.62" y1="1119.16" x2="4670.99" y2="1187.72" gradientUnits="userSpaceOnUse">
<stop stop-color="#E4C5D5"/>
<stop offset="0.42" stop-color="#E9D3CF"/>
<stop offset="1" stop-color="#EFE8CA"/>
</linearGradient>
<linearGradient id="paint5_linear" x1="4714.57" y1="1160.56" x2="4720.91" y2="1228.93" gradientUnits="userSpaceOnUse">
<stop stop-color="#E4C5D5"/>
<stop offset="0.42" stop-color="#E9D3CF"/>
<stop offset="1" stop-color="#EFE8CA"/>
</linearGradient>
<linearGradient id="paint6_linear" x1="4758.77" y1="1200.95" x2="4765.12" y2="1269.29" gradientUnits="userSpaceOnUse">
<stop stop-color="#E4C5D5"/>
<stop offset="0.42" stop-color="#E9D3CF"/>
<stop offset="1" stop-color="#EFE8CA"/>
</linearGradient>
<linearGradient id="paint7_linear" x1="9489.82" y1="1692.91" x2="8886.48" y2="1953.67" gradientUnits="userSpaceOnUse">
<stop stop-color="#E4C5D5"/>
<stop offset="0.42" stop-color="#E9D3CF"/>
<stop offset="1" stop-color="#EFE8CA"/>
</linearGradient>
<linearGradient id="paint8_linear" x1="13111" y1="4867.79" x2="14927.4" y2="2867.32" gradientUnits="userSpaceOnUse">
<stop stop-color="#010101" stop-opacity="0"/>
<stop offset="0.95" stop-color="#010101"/>
</linearGradient>
<linearGradient id="paint9_linear" x1="4734.73" y1="732.684" x2="4839.87" y2="732.684" gradientUnits="userSpaceOnUse">
<stop stop-color="#010101" stop-opacity="0"/>
<stop offset="0.95" stop-color="#010101"/>
</linearGradient>
<linearGradient id="paint10_linear" x1="8153.99" y1="1216.07" x2="8081.04" y2="2219.54" gradientUnits="userSpaceOnUse">
<stop stop-color="#010101" stop-opacity="0"/>
<stop offset="0.95" stop-color="#010101"/>
</linearGradient>
<linearGradient id="paint11_linear" x1="37012.9" y1="6139.93" x2="37022.1" y2="11155.3" gradientUnits="userSpaceOnUse">
<stop stop-color="#010101" stop-opacity="0"/>
<stop offset="0.95" stop-color="#010101"/>
</linearGradient>
<linearGradient id="paint12_linear" x1="8446.25" y1="4570.57" x2="8042.15" y2="5352.99" gradientUnits="userSpaceOnUse">
<stop stop-color="#010101" stop-opacity="0"/>
<stop offset="0.95" stop-color="#010101"/>
</linearGradient>
<linearGradient id="paint13_linear" x1="5353.29" y1="4855.95" x2="5809.46" y2="5366.23" gradientUnits="userSpaceOnUse">
<stop stop-color="#010101" stop-opacity="0"/>
<stop offset="0.95" stop-color="#010101"/>
</linearGradient>
<linearGradient id="paint14_linear" x1="7704.7" y1="7235.44" x2="7071.97" y2="8075.05" gradientUnits="userSpaceOnUse">
<stop stop-color="#010101" stop-opacity="0"/>
<stop offset="0.95" stop-color="#010101"/>
</linearGradient>
<linearGradient id="paint15_linear" x1="6104.52" y1="5596.15" x2="6602.63" y2="6092.84" gradientUnits="userSpaceOnUse">
<stop stop-color="#010101" stop-opacity="0"/>
<stop offset="0.95" stop-color="#010101"/>
</linearGradient>
<linearGradient id="paint16_linear" x1="861.959" y1="26227.3" x2="887.321" y2="26227.4" gradientUnits="userSpaceOnUse">
<stop stop-color="#010101" stop-opacity="0"/>
<stop offset="0.95" stop-color="#010101"/>
</linearGradient>
<linearGradient id="paint17_linear" x1="12389.8" y1="6529.71" x2="10279" y2="6046.43" gradientUnits="userSpaceOnUse">
<stop stop-color="#010101" stop-opacity="0"/>
<stop offset="0.95" stop-color="#010101"/>
</linearGradient>
<linearGradient id="paint18_linear" x1="6873.85" y1="3539.73" x2="6707.52" y2="3860.81" gradientUnits="userSpaceOnUse">
<stop stop-color="#010101" stop-opacity="0"/>
<stop offset="0.95" stop-color="#010101"/>
</linearGradient>
<linearGradient id="paint19_linear" x1="4871.52" y1="3753.39" x2="5058.13" y2="3961.5" gradientUnits="userSpaceOnUse">
<stop stop-color="#010101" stop-opacity="0"/>
<stop offset="0.95" stop-color="#010101"/>
</linearGradient>
<linearGradient id="paint20_linear" x1="6322.31" y1="4996.76" x2="6063.41" y2="5340.74" gradientUnits="userSpaceOnUse">
<stop stop-color="#010101" stop-opacity="0"/>
<stop offset="0.95" stop-color="#010101"/>
</linearGradient>
<linearGradient id="paint21_linear" x1="5540.88" y1="3843.84" x2="5745.03" y2="4046.99" gradientUnits="userSpaceOnUse">
<stop stop-color="#010101" stop-opacity="0"/>
<stop offset="0.95" stop-color="#010101"/>
</linearGradient>
<linearGradient id="paint22_linear" x1="820.423" y1="18414.6" x2="830.808" y2="18414.6" gradientUnits="userSpaceOnUse">
<stop stop-color="#010101" stop-opacity="0"/>
<stop offset="0.95" stop-color="#010101"/>
</linearGradient>
<linearGradient id="paint23_linear" x1="10445.6" y1="4250.6" x2="9421.28" y2="4170.2" gradientUnits="userSpaceOnUse">
<stop stop-color="#010101" stop-opacity="0"/>
<stop offset="0.95" stop-color="#010101"/>
</linearGradient>
</defs>
</svg>
