<svg xmlns="http://www.w3.org/2000/svg" version="1.1" xmlns:xlink="http://www.w3.org/1999/xlink" xmlns:svgjs="http://svgjs.dev/svgjs" viewBox="0 0 1920 1080"><rect width="1920" height="1080" fill="#0000ff"></rect><g transform="matrix(0.5750000000000001,0.9959292143521044,-0.9959292143521044,0.5750000000000001,918.5167057122945,-662.653226092538)"><path d="M0,-1080C8.880190352909304,-985.191164362838,64.54274602664277,-683.9106968056078,53.28114211745583,-511.1469861770279C42.01953820826888,-338.38327554844795,-38.103354620702405,-221.5015935409946,-67.5696234551217,-43.4177362285202C-97.035892289541,134.6661210839542,-143.62248204560916,386.4502246336742,-123.51647088905996,557.3561576978185C-103.41045973251074,728.2620907619628,15.54282596410772,788.5750392266027,53.06644348417359,982.0178621563454C90.59006100423946,1175.460685086088,110.46964147869751,1521.682738968999,101.62523423133524,1718.0130952762747C92.78082698397297,1914.3434515835504,16.937539038555872,2086.3355158793793,0,2160L 1920 2160 L 1920 -1080 Z" fill="url(&quot;#SvgjsLinearGradient1098&quot;)"></path><path d="M960,-1080C975.4892404787776,-969.8582721214751,1061.6342099361343,-586.104398490833,1052.9354428726654,-419.14963272885075C1044.2366758091964,-252.1948669668685,907.9167137133799,-225.0668775287259,907.8073976191863,-78.27140542810652C907.6980815249927,68.52406667251286,1061.5525368430385,257.39557180475794,1052.279546307504,461.62319987486563C1043.0065557719695,665.8508279449734,885.9759872057139,955.9113044744001,852.1694544059785,1147.0943629925396C818.3629216062432,1338.277421510679,831.4685919100885,1439.903944815792,849.4403495090921,1608.7215509837022C867.4121071080957,1777.5391571516122,941.5733915848487,2068.120258497284,960,2160L 1920 2160 L 1920 -1080 Z" fill="url(&quot;#SvgjsLinearGradient1099&quot;)"></path></g><defs><linearGradient x1="0.1" y1="0" x2="0" y2="1" id="SvgjsLinearGradient1098"><stop stop-color="#0000ff" offset="0"></stop><stop stop-color="#002bff" offset="0"></stop></linearGradient><linearGradient x1="0.1" y1="0" x2="0" y2="1" id="SvgjsLinearGradient1099"><stop stop-color="#e2e2ff" offset="0"></stop><stop stop-color="#e2e7ff" offset="0.5"></stop></linearGradient></defs></svg>