<svg width="338" height="251" viewBox="0 0 338 251" fill="none" xmlns="http://www.w3.org/2000/svg">
<path opacity="0.45" d="M173.149 232.709C219.182 232.709 256.5 228.911 256.5 224.226C256.5 219.54 219.182 215.742 173.149 215.742C127.116 215.742 89.7981 219.54 89.7981 224.226C89.7981 228.911 127.116 232.709 173.149 232.709Z" fill="#E6E6E6"/>
<path d="M145.34 137.514C145.34 137.514 119.382 149.561 122.567 159.993C125.753 170.425 141.96 167.603 141.96 167.603" stroke="#24285B" stroke-width="8.12" stroke-linecap="round" stroke-linejoin="round"/>
<path d="M134.093 97.8589C134.093 97.8589 109.343 76.7034 101.223 46.2815" stroke="#24285B" stroke-width="8.12" stroke-linecap="round" stroke-linejoin="round"/>
<path d="M204.862 114.369C204.862 114.369 230.854 114.319 246.757 111.188C262.66 108.058 258.891 72.3408 258.891 72.3408" stroke="#24285B" stroke-width="8.12" stroke-linecap="round" stroke-linejoin="round"/>
<path d="M107.315 43.2092C107.315 43.2092 116.94 38.4802 113.813 33.5014C110.687 28.5227 106.386 30.2961 106.386 30.2961C106.386 30.2961 105.938 18.3488 96.33 22.012C86.7224 25.6753 86.697 39.5875 92.5191 45.6736C98.3411 51.7596 107.315 43.2092 107.315 43.2092Z" fill="#FFD200"/>
<path d="M179.317 152.758C179.317 152.758 176.977 179.109 166.144 194.545" stroke="#24285B" stroke-width="8.12" stroke-linecap="round" stroke-linejoin="round"/>
<path d="M181.844 180.724L164.919 175.096L154.018 206.908L175.312 224.992L172.667 201.555L181.844 180.724Z" fill="#FFD200"/>
<path d="M170.698 154.099C199.731 154.099 223.266 130.91 223.266 102.305C223.266 73.6997 199.731 50.5107 170.698 50.5107C141.666 50.5107 118.131 73.6997 118.131 102.305C118.131 130.91 141.666 154.099 170.698 154.099Z" fill="#68E1FD"/>
<path opacity="0.09" d="M214.63 74.0474C218.888 85.9986 218.552 99.0729 213.687 110.797C208.822 122.521 199.765 132.082 188.229 137.671C176.693 143.259 163.478 144.489 151.084 141.126C138.69 137.763 127.976 130.042 120.97 119.422C123.424 126.34 127.34 132.666 132.46 137.982C137.579 143.298 143.785 147.484 150.667 150.262C157.55 153.04 164.953 154.347 172.386 154.097C179.819 153.847 187.114 152.046 193.789 148.812C200.463 145.579 206.366 140.986 211.105 135.339C215.845 129.691 219.314 123.117 221.284 116.05C223.254 108.984 223.679 101.586 222.532 94.3452C221.385 87.1046 218.692 80.1863 214.63 74.0474Z" fill="black"/>
<path d="M195.947 117.582C195.947 117.582 191.274 139.296 164.598 135.491C137.921 131.686 140.27 108.016 140.27 108.016L195.947 117.582Z" fill="#24285B"/>
<path opacity="0.36" d="M150.804 102.144C151.123 99.978 148.013 97.7391 143.857 97.1432C139.701 96.5472 136.072 97.8199 135.752 99.9858C135.432 102.152 138.542 104.391 142.699 104.987C146.855 105.583 150.484 104.31 150.804 102.144Z" fill="white"/>
<path opacity="0.36" d="M205.545 109.98C205.864 107.814 202.754 105.575 198.598 104.979C194.442 104.383 190.813 105.656 190.493 107.822C190.173 109.988 193.283 112.227 197.44 112.823C201.596 113.419 205.225 112.146 205.545 109.98Z" fill="white"/>
<path d="M95.5695 56.6469C95.5695 56.6469 119.99 55.0484 115.579 46.5562C111.168 38.0641 100.192 44.1252 93.288 45.4656C86.3844 46.806 86.2492 56.2556 95.5695 56.6469Z" fill="#FFD200"/>
<path opacity="0.44" d="M95.5695 56.6469C95.5695 56.6469 119.99 55.0484 115.579 46.5562C111.168 38.0641 100.192 44.1252 93.288 45.4656C86.3844 46.806 86.2492 56.2556 95.5695 56.6469Z" fill="white"/>
<path d="M252.207 72.2158C252.207 72.2158 241.856 69.3518 243.985 63.8902C246.115 58.4285 250.678 59.3777 250.678 59.3777C250.678 59.3777 248.852 47.5552 259.018 49.3869C269.183 51.2185 271.811 64.8809 267.24 71.9328C262.668 78.9846 252.207 72.2158 252.207 72.2158Z" fill="#FFD200"/>
<path d="M266.302 83.239C266.302 83.239 242.008 86.1613 244.729 77.0031C247.45 67.8449 259.39 71.7829 266.42 71.8328C273.45 71.8828 275.385 81.1326 266.302 83.239Z" fill="#FFD200"/>
<path opacity="0.44" d="M266.302 83.239C266.302 83.239 242.008 86.1613 244.729 77.0031C247.45 67.8449 259.39 71.7829 266.42 71.8328C273.45 71.8828 275.385 81.1326 266.302 83.239Z" fill="white"/>
<path opacity="0.58" d="M221.331 213.61C221.331 213.61 213.185 211.413 211.411 203.944C211.411 203.944 224.035 201.447 224.398 214.268L221.331 213.61Z" fill="#68E1FD"/>
<path opacity="0.73" d="M222.328 212.811C222.328 212.811 216.641 203.944 221.652 195.652C221.652 195.652 231.251 201.655 226.984 212.828L222.328 212.811Z" fill="#68E1FD"/>
<path d="M223.798 212.819C223.798 212.819 226.806 203.453 235.899 201.68C235.899 201.68 237.589 207.757 229.984 212.844L223.798 212.819Z" fill="#68E1FD"/>
<path d="M217.892 212.603L219.539 223.743L229.941 223.784L231.479 212.661L217.892 212.603Z" fill="#24285B"/>
<path d="M149.937 92.414C149.937 92.414 152.472 75.1632 159.561 75.9625C166.651 76.7617 163.786 94.4038 163.786 94.4038" stroke="#24285B" stroke-width="3.045" stroke-linecap="round" stroke-linejoin="round"/>
<path d="M178.912 96.5683C178.912 96.5683 181.447 79.3175 188.536 80.1168C195.626 80.916 192.761 98.5581 192.761 98.5581" stroke="#24285B" stroke-width="3.045" stroke-linecap="round" stroke-linejoin="round"/>
<path d="M127.722 153.607L117.202 168.336C117.202 168.336 131.938 173.93 140.971 177.069L145.72 194.07L154.753 165.355C154.753 165.355 139.619 162.965 127.722 153.607Z" fill="#FFD200"/>
</svg>
