<svg width="620" height="459" viewBox="0 0 620 459" fill="none" xmlns="http://www.w3.org/2000/svg">
<path opacity="0.3" d="M185.054 367.347C248.136 367.347 299.274 317.117 299.274 255.154C299.274 193.192 248.136 142.961 185.054 142.961C121.973 142.961 70.835 193.192 70.835 255.154C70.835 317.117 121.973 367.347 185.054 367.347Z" fill="#E6E6E6"/>
<path opacity="0.3" d="M433.38 367.347C496.462 367.347 547.599 317.117 547.599 255.154C547.599 193.192 496.462 142.961 433.38 142.961C370.298 142.961 319.161 193.192 319.161 255.154C319.161 317.117 370.298 367.347 433.38 367.347Z" fill="#E6E6E6"/>
<path d="M507.284 225.344C507.284 225.344 512.771 158.095 477.555 152.401C442.339 146.706 437.968 244.725 468.1 246.156C498.232 247.587 507.284 225.344 507.284 225.344Z" fill="#F4A28C"/>
<path opacity="0.1" d="M468.1 246.156C498.263 247.679 507.253 225.344 507.253 225.344C507.253 225.344 512.74 158.095 477.524 152.401" fill="black"/>
<path d="M111.383 241.68C111.383 241.68 124.279 182.089 156.721 182.089C189.162 182.089 206.429 275.754 127.503 285.954L111.383 241.68Z" fill="#F4A28C"/>
<path opacity="0.1" d="M111.383 241.68C111.383 241.68 124.279 182.089 156.721 182.089C189.162 182.089 206.429 275.754 127.503 285.954L111.383 241.68Z" fill="black"/>
<path d="M263.949 73.6721H139.779V290.43H263.949V73.6721Z" fill="#E6E6E6"/>
<path d="M253.859 91.3026H149.87V253.464H253.859V91.3026Z" fill="white"/>
<path d="M231.027 206.191H170.856V230.703H231.027V206.191Z" fill="#24285B"/>
<path opacity="0.1" d="M177.305 200.177C177.305 200.177 191.115 208.322 185.799 220.411C180.482 232.499 164.347 239.838 164.099 255.702C163.851 271.567 164.099 290.446 164.099 290.446H139.779V253.449L177.305 200.177Z" fill="black"/>
<path d="M136.803 219.512C136.803 219.512 161.851 194.361 172.67 196.599C181.582 198.441 181.598 215.889 162.145 230.414C158.199 233.331 154.936 237.047 152.577 241.31C150.219 245.573 148.82 250.284 148.474 255.124C147.916 263.254 145.204 272.907 136.803 280.199C119.164 295.561 106.066 282.179 107.771 261.473C109.476 240.767 110.623 234.616 136.803 219.512Z" fill="#F4A28C"/>
<path d="M146.553 276.895L137.129 404.877L59.9075 390.322L98.735 262.66L146.553 276.895Z" fill="#68E1FD"/>
<path opacity="0.1" d="M106.981 399.198L123.721 270.105L146.553 276.895L137.129 404.877L106.981 399.198Z" fill="black"/>
<path d="M174.638 85.9282C176.727 85.9282 178.42 84.265 178.42 82.2133C178.42 80.1616 176.727 78.4984 174.638 78.4984C172.55 78.4984 170.856 80.1616 170.856 82.2133C170.856 84.265 172.55 85.9282 174.638 85.9282Z" fill="#A8A8A8"/>
<path d="M224.161 80.9344H187.41C186.52 80.9344 185.798 81.6434 185.798 82.5178V82.731C185.798 83.6055 186.52 84.3144 187.41 84.3144H224.161C225.051 84.3144 225.773 83.6055 225.773 82.731V82.5178C225.773 81.6434 225.051 80.9344 224.161 80.9344Z" fill="#A8A8A8"/>
<path d="M201.857 186.733C220.638 186.733 235.864 171.778 235.864 153.329C235.864 134.881 220.638 119.926 201.857 119.926C183.075 119.926 167.85 134.881 167.85 153.329C167.85 171.778 183.075 186.733 201.857 186.733Z" fill="#FFD200"/>
<path d="M198.927 283.016C205.596 283.016 211.002 277.706 211.002 271.156C211.002 264.605 205.596 259.295 198.927 259.295C192.258 259.295 186.853 264.605 186.853 271.156C186.853 277.706 192.258 283.016 198.927 283.016Z" fill="#A8A8A8"/>
<path d="M477.555 73.7025H353.385V290.461H477.555V73.7025Z" fill="#E6E6E6"/>
<path d="M467.48 91.3179H363.49V253.479H467.48V91.3179Z" fill="white"/>
<path d="M388.244 85.9586C390.333 85.9586 392.026 84.2954 392.026 82.2437C392.026 80.192 390.333 78.5288 388.244 78.5288C386.155 78.5288 384.462 80.192 384.462 82.2437C384.462 84.2954 386.155 85.9586 388.244 85.9586Z" fill="#A8A8A8"/>
<path d="M437.782 80.9648H401.032C400.141 80.9648 399.42 81.6738 399.42 82.5482V82.7614C399.42 83.6359 400.141 84.3448 401.032 84.3448H437.782C438.672 84.3448 439.394 83.6359 439.394 82.7614V82.5482C439.394 81.6738 438.672 80.9648 437.782 80.9648Z" fill="#A8A8A8"/>
<path opacity="0.1" d="M468.735 180.628C468.735 180.628 452.956 184.16 458.257 199.324C463.558 214.488 457.715 235.316 454.894 239.746C442.354 259.326 448.058 290.461 448.058 290.461H477.508C477.508 290.461 485.491 191.331 468.735 180.628Z" fill="black"/>
<path d="M415.477 203.876C434.259 203.876 449.484 188.921 449.484 170.473C449.484 152.024 434.259 137.069 415.477 137.069C396.696 137.069 381.471 152.024 381.471 170.473C381.471 188.921 396.696 203.876 415.477 203.876Z" fill="#FFD200"/>
<path d="M412.532 283.046C419.201 283.046 424.607 277.736 424.607 271.186C424.607 264.636 419.201 259.326 412.532 259.326C405.864 259.326 400.458 264.636 400.458 271.186C400.458 277.736 405.864 283.046 412.532 283.046Z" fill="#A8A8A8"/>
<path d="M499.271 210.408C499.271 210.408 489.738 176.487 479.12 173.305C470.409 170.686 461.807 185.956 471.665 207.911C473.689 212.337 474.72 217.139 474.688 221.991C474.656 226.843 473.561 231.632 471.479 236.031C467.96 243.4 465.589 253.16 469.34 263.528C477.23 285.345 498.79 282.924 507.548 263.985C516.305 245.045 514.755 236.062 499.271 210.408Z" fill="#F4A28C"/>
<path d="M464.473 265.812L473.882 393.778L551.102 379.223L512.275 251.576L464.473 265.812Z" fill="#68E1FD"/>
<path opacity="0.1" d="M504.029 388.099L487.289 259.006L464.473 265.812L473.882 393.778L504.029 388.099Z" fill="black"/>
<path d="M443.672 156.496C453.636 156.496 461.714 148.562 461.714 138.774C461.714 128.987 453.636 121.052 443.672 121.052C433.708 121.052 425.63 128.987 425.63 138.774C425.63 148.562 433.708 156.496 443.672 156.496Z" fill="#24285B"/>
<path d="M437.379 138.257L442.122 145.108L449.376 132.745" stroke="white" stroke-width="2.03" stroke-linecap="round" stroke-linejoin="round"/>
<path d="M274.071 161.185C274.071 161.185 305.753 138.759 346.642 161.825" stroke="#A8A8A8" stroke-width="2.03" stroke-linecap="round" stroke-linejoin="round" stroke-dasharray="1.01 5.07"/>
<g clip-path="url(#clip0)">
<path d="M193.929 147V166.5H189.482V138.81H192.976L209.096 158.778V138.849H213.582V166.5H209.89L193.929 147Z" fill="white"/>
<path d="M184.778 148.5H218.374" stroke="white" stroke-width="2"/>
<path d="M184.778 157.5H218.374" stroke="white" stroke-width="2"/>
</g>
<g clip-path="url(#clip1)">
<path d="M407.722 166.5V186H403.275V158.31H406.769L422.889 178.278V158.349H427.375V186H423.683L407.722 166.5Z" fill="white"/>
<path d="M398.571 168H432.167" stroke="white" stroke-width="2"/>
<path d="M398.571 177H432.167" stroke="white" stroke-width="2"/>
</g>
<defs>
<clipPath id="clip0">
<rect width="33.5961" height="69" fill="white" transform="translate(184.778 118.5)"/>
</clipPath>
<clipPath id="clip1">
<rect width="33.5961" height="69" fill="white" transform="translate(398.571 138)"/>
</clipPath>
</defs>
</svg>
