<svg xmlns="http://www.w3.org/2000/svg" xmlns:xlink="http://www.w3.org/1999/xlink" viewBox="0 0 564.36 434.13"><defs><style>.cls-1{isolation:isolate;}.cls-2{fill:#223265;}.cls-3{fill:url(#linear-gradient);}.cls-4{fill:url(#linear-gradient-2);}.cls-5{fill:url(#linear-gradient-3);}.cls-6{fill:url(#linear-gradient-4);}.cls-7{fill:url(#linear-gradient-5);}.cls-8{fill:url(#linear-gradient-6);}.cls-9{fill:url(#linear-gradient-7);}.cls-10{fill:url(#linear-gradient-8);}.cls-11{fill:url(#linear-gradient-9);}.cls-12{fill:url(#linear-gradient-10);}.cls-13{fill:url(#linear-gradient-11);}.cls-14{fill:url(#linear-gradient-12);}.cls-15{fill:url(#linear-gradient-13);}.cls-16{fill:url(#linear-gradient-14);}.cls-17{fill:url(#linear-gradient-15);}.cls-18{fill:url(#linear-gradient-16);}.cls-19{fill:url(#linear-gradient-17);}.cls-20{fill:url(#linear-gradient-18);}.cls-21{fill:url(#linear-gradient-19);}.cls-22{fill:url(#linear-gradient-20);}.cls-23{fill:url(#linear-gradient-21);}.cls-24{fill:#e8e8e9;}.cls-25{fill:url(#linear-gradient-22);}.cls-26{fill:url(#linear-gradient-23);}.cls-27{fill:url(#linear-gradient-24);}.cls-28{fill:url(#linear-gradient-25);}.cls-29{fill:url(#linear-gradient-26);}.cls-30{fill:url(#linear-gradient-27);}.cls-31{fill:url(#linear-gradient-28);}.cls-32{fill:url(#linear-gradient-29);}.cls-33{fill:url(#linear-gradient-30);}.cls-34{fill:url(#linear-gradient-31);}.cls-35{fill:url(#linear-gradient-32);}.cls-36{fill:url(#linear-gradient-33);}.cls-37{fill:url(#linear-gradient-34);}.cls-38{fill:url(#linear-gradient-35);}.cls-39{fill:url(#linear-gradient-36);}.cls-40{fill:url(#linear-gradient-37);}.cls-41{fill:url(#linear-gradient-38);}.cls-42{fill:url(#linear-gradient-39);}.cls-43{fill:url(#linear-gradient-40);}.cls-44{fill:url(#linear-gradient-41);}.cls-45{fill:url(#linear-gradient-42);}.cls-46{fill:url(#linear-gradient-43);}.cls-47,.cls-48{fill:#a6d4f1;}.cls-48,.cls-51,.cls-53,.cls-54,.cls-56,.cls-57,.cls-59{mix-blend-mode:multiply;}.cls-49{fill:#7ebee8;}.cls-50,.cls-51{fill:#3b449a;}.cls-51{opacity:0.5;}.cls-52,.cls-53{fill:#fcba48;}.cls-54{opacity:0.2;}.cls-55{fill:#646fb3;}.cls-57{fill:#3fbeb6;opacity:0.75;}.cls-58,.cls-59{fill:#f69229;}.cls-60{fill:none;stroke:#fff;stroke-linecap:round;stroke-miterlimit:10;opacity:0.43;}</style><linearGradient id="linear-gradient" x1="154" y1="213" x2="422" y2="213" gradientUnits="userSpaceOnUse"><stop offset="0" stop-color="#f5c7f2"/><stop offset="1" stop-color="#3840f7"/></linearGradient><linearGradient id="linear-gradient-2" x1="289.21" y1="88.17" x2="326.8" y2="103.92" gradientTransform="matrix(1, 0, 0, 1, 0.29, 1.45)" gradientUnits="userSpaceOnUse"><stop offset="0" stop-color="#f15a24"/><stop offset="1" stop-color="#e89838"/></linearGradient><linearGradient id="linear-gradient-3" x1="384.3" y1="-436.24" x2="473.23" y2="-451.85" gradientTransform="translate(-338.8 108.18) rotate(46.65)" gradientUnits="userSpaceOnUse"><stop offset="0" stop-color="#a0c4e7"/><stop offset="1" stop-color="#67a1d7"/></linearGradient><linearGradient id="linear-gradient-4" x1="65.23" y1="151.94" x2="99.87" y2="151.94" gradientTransform="matrix(-1, -0.1, -0.1, 1, 381.9, 20.69)" gradientUnits="userSpaceOnUse"><stop offset="0" stop-color="#f15a24"/><stop offset="0.01" stop-color="#f15d25"/><stop offset="0.1" stop-color="#ed732c"/><stop offset="0.2" stop-color="#eb8431"/><stop offset="0.33" stop-color="#e98f35"/><stop offset="0.5" stop-color="#e89637"/><stop offset="1" stop-color="#e89838"/></linearGradient><linearGradient id="linear-gradient-5" x1="258.43" y1="161.66" x2="296.02" y2="177.41" gradientTransform="matrix(1, 0, 0, 1, 0.29, 1.45)" gradientUnits="userSpaceOnUse"><stop offset="0" stop-color="#e89838"/><stop offset="1" stop-color="#e89838"/></linearGradient><linearGradient id="linear-gradient-6" x1="84.52" y1="162.01" x2="90.62" y2="162.01" xlink:href="#linear-gradient-4"/><linearGradient id="linear-gradient-7" x1="86.35" y1="164.47" x2="91.09" y2="164.47" xlink:href="#linear-gradient-4"/><linearGradient id="linear-gradient-8" x1="88.29" y1="166.15" x2="92.32" y2="166.15" xlink:href="#linear-gradient-4"/><linearGradient id="linear-gradient-9" x1="98.06" y1="164.81" x2="102.1" y2="164.81" xlink:href="#linear-gradient-4"/><linearGradient id="linear-gradient-10" x1="96.22" y1="165.62" x2="99.85" y2="165.62" xlink:href="#linear-gradient-4"/><linearGradient id="linear-gradient-11" x1="93.34" y1="166.7" x2="97.27" y2="166.7" xlink:href="#linear-gradient-4"/><linearGradient id="linear-gradient-12" x1="92.19" y1="147.55" x2="83.73" y2="162.21" xlink:href="#linear-gradient-4"/><linearGradient id="linear-gradient-13" x1="375.2" y1="123.99" x2="434.61" y2="128.28" gradientTransform="matrix(0.99, 0.13, -0.13, 0.99, -65.54, -41.45)" gradientUnits="userSpaceOnUse"><stop offset="0" stop-color="#b6bbff"/><stop offset="1" stop-color="#727bd3"/></linearGradient><linearGradient id="linear-gradient-14" x1="244.16" y1="45.5" x2="271.4" y2="45.5" gradientTransform="translate(224.27 291.02) rotate(-27.2)" gradientUnits="userSpaceOnUse"><stop offset="0" stop-color="#2f5b90"/><stop offset="1" stop-color="#00254b"/></linearGradient><linearGradient id="linear-gradient-15" x1="281.87" y1="51.69" x2="233.68" y2="99.88" xlink:href="#linear-gradient-14"/><linearGradient id="linear-gradient-16" x1="226.31" y1="61.18" x2="289.25" y2="65.73" xlink:href="#linear-gradient-14"/><linearGradient id="linear-gradient-17" x1="260.64" y1="75.39" x2="254.92" y2="81.11" xlink:href="#linear-gradient-14"/><linearGradient id="linear-gradient-18" x1="386.28" y1="108.27" x2="434.13" y2="108.27" gradientTransform="translate(33.2 97.79) rotate(-5.38)" xlink:href="#linear-gradient-4"/><linearGradient id="linear-gradient-19" x1="320.06" y1="62.07" x2="370.3" y2="65.7" gradientTransform="matrix(0.97, -0.22, 0.22, 0.97, 90.79, 169.17)" gradientUnits="userSpaceOnUse"><stop offset="0" stop-color="#727bd3"/><stop offset="1" stop-color="#b6bbff"/></linearGradient><linearGradient id="linear-gradient-20" x1="411.26" y1="453.24" x2="432.29" y2="453.24" gradientTransform="translate(-90.86 -151.59) rotate(13.17)" xlink:href="#linear-gradient-4"/><linearGradient id="linear-gradient-21" x1="422.17" y1="355.5" x2="356.98" y2="355.5" gradientTransform="translate(-90.86 -151.59) rotate(13.17)" xlink:href="#linear-gradient-14"/><linearGradient id="linear-gradient-22" x1="643.54" y1="486.92" x2="667.71" y2="486.92" gradientTransform="translate(5.18 -418.94) rotate(42.97)" xlink:href="#linear-gradient-4"/><linearGradient id="linear-gradient-23" x1="518.88" y1="388.41" x2="451.74" y2="388.41" gradientTransform="matrix(0.88, 0.48, -0.48, 0.88, -67.78, -293.39)" xlink:href="#linear-gradient-14"/><linearGradient id="linear-gradient-24" x1="342.59" y1="59.27" x2="363.77" y2="59.27" gradientTransform="translate(-153.23 71.86) rotate(-5.9)" xlink:href="#linear-gradient-2"/><linearGradient id="linear-gradient-25" x1="390.53" y1="116.56" x2="314.89" y2="116.56" gradientTransform="translate(-153.23 71.86) rotate(-5.9)" gradientUnits="userSpaceOnUse"><stop offset="0" stop-color="#d6ecfa"/><stop offset="1" stop-color="#a7cfee"/></linearGradient><linearGradient id="linear-gradient-26" x1="199.5" y1="145.58" x2="225.25" y2="145.58" gradientTransform="matrix(1, 0, 0, 1, 0.29, 1.45)" xlink:href="#linear-gradient-14"/><linearGradient id="linear-gradient-27" x1="702.02" y1="186" x2="609.87" y2="154.36" gradientTransform="matrix(-0.99, -0.15, -0.15, 0.99, 879.46, 89.91)" xlink:href="#linear-gradient-3"/><linearGradient id="linear-gradient-28" x1="336.91" y1="67.24" x2="368.9" y2="67.24" xlink:href="#linear-gradient-25"/><linearGradient id="linear-gradient-29" x1="682.84" y1="152.02" x2="652.67" y2="141.66" gradientTransform="matrix(-0.99, -0.15, -0.15, 0.99, 879.46, 89.91)" xlink:href="#linear-gradient-3"/><linearGradient id="linear-gradient-30" x1="666.86" y1="116.63" x2="621.71" y2="161.77" gradientTransform="matrix(-0.99, -0.15, -0.15, 0.99, 879.46, 89.91)" xlink:href="#linear-gradient-3"/><linearGradient id="linear-gradient-31" x1="100.52" y1="163.31" x2="103.85" y2="163.31" xlink:href="#linear-gradient-4"/><linearGradient id="linear-gradient-32" x1="885" y1="-797.61" x2="976.35" y2="-813.64" gradientTransform="matrix(0.16, 0.98, -0.98, 0.16, -724.77, -646.78)" xlink:href="#linear-gradient-3"/><linearGradient id="linear-gradient-33" x1="147.26" y1="387.85" x2="66.62" y2="183.15" gradientTransform="matrix(1, 0, 0, 1, 276.76, 2.14)" xlink:href="#linear-gradient-13"/><linearGradient id="linear-gradient-34" x1="857.76" y1="189.91" x2="879.12" y2="189.91" gradientTransform="matrix(-0.98, -0.21, -0.21, 0.98, 1274.59, 93.85)" xlink:href="#linear-gradient-4"/><linearGradient id="linear-gradient-35" x1="906.67" y1="244.12" x2="829.66" y2="244.12" gradientTransform="matrix(-0.98, -0.21, -0.21, 0.98, 1274.59, 93.85)" gradientUnits="userSpaceOnUse"><stop offset="0" stop-color="ivory"/><stop offset="1" stop-color="#f1f0ce"/></linearGradient><linearGradient id="linear-gradient-36" x1="179.11" y1="186.16" x2="77.27" y2="151.19" gradientTransform="matrix(1, -0.04, 0.04, 1, 245.92, -1.84)" xlink:href="#linear-gradient-19"/><linearGradient id="linear-gradient-37" x1="852.07" y1="193.9" x2="884.65" y2="193.9" xlink:href="#linear-gradient-35"/><linearGradient id="linear-gradient-38" x1="152.46" y1="149.53" x2="122.18" y2="139.13" gradientTransform="matrix(1, -0.04, 0.04, 1, 245.92, -1.84)" xlink:href="#linear-gradient-14"/><linearGradient id="linear-gradient-39" x1="136.2" y1="114.21" x2="90.67" y2="159.74" gradientTransform="matrix(1, -0.04, 0.04, 1, 245.92, -1.84)" xlink:href="#linear-gradient-14"/><linearGradient id="linear-gradient-40" x1="864.7" y1="159.32" x2="890.02" y2="159.32" gradientTransform="matrix(-0.98, -0.21, -0.21, 0.98, 1274.59, 93.85)" xlink:href="#linear-gradient-4"/><linearGradient id="linear-gradient-41" x1="868.14" y1="154.34" x2="863.6" y2="154.34" gradientTransform="matrix(-0.98, -0.21, -0.21, 0.98, 1274.59, 93.85)" xlink:href="#linear-gradient-4"/><linearGradient id="linear-gradient-42" x1="20.38" y1="-166.01" x2="64.58" y2="-111.14" xlink:href="#linear-gradient-2"/><linearGradient id="linear-gradient-43" x1="1246.01" y1="31.72" x2="1241.06" y2="31.72" gradientTransform="matrix(-1, 0.08, 0.08, 1, 1433.94, -51.77)" xlink:href="#linear-gradient-2"/></defs><title>second-art-2</title><g class="cls-1"><g id="Layer_1" data-name="Layer 1"><path class="cls-2" d="M373,373l2,11a10.34,10.34,0,0,1-4,1,20.34,20.34,0,0,1-5-1h-4a13.94,13.94,0,0,0,6-9c1-6,3-7,3-7Z"/><rect class="cls-3" x="154" y="79" width="268" height="268" rx="134"/><path class="cls-4" d="M325.63,109.82s8-7.71,9.53-8.46,12.68-.85,14.18,1-5.65,5.22-5.66,7.85-12.43,8.44-17.51,8.8S325.63,109.82,325.63,109.82Z"/><path class="cls-5" d="M228.25,107c-3,4-5.34,14.24,9,23.2,11.42,7.1,32,7.62,40.79,7.62,31.31,0,53.61-18.27,53.8-18.77-.49-3-3.53-12.87-4-12.71-44.4,17.32-66.1,4.9-77,.89C246.74,105.68,235.47,97.55,228.25,107Z"/><path class="cls-6" d="M303.17,153.65c-.15.19-20.33,9-22.82,8.47s-12.35,1.19-13.18,3.82,7.1,8.94,7.82,8.76,23.25-7.36,23.25-7.36Z"/><path class="cls-7" d="M279.11,162.47s-1.77-2.75-3.39-2.8c-2.79-.07-2.78-.58-4.41-.37s-1.74-.75-5.21.46-16.28-.59-16.28-.59l-3,11.27c-.74-1.37,12.45-3.22,16.88,2.24.89,1.1,6.61,4.91,7.82,5.18,1.62.35,4.55,2.18,6.13.27-.1.12,2.09.38,2.06-1.46.25-.16,2.71.6,2-1.73,0,.17,1.58.11.81-2.23a18.14,18.14,0,0,1-5-5.22C276.8,166.37,278.55,163.09,279.11,162.47Z"/><path class="cls-8" d="M281.65,175.22a12.15,12.15,0,0,1-5.75-3.88c3.69,3.59,5.76,3.62,5.76,3.62Z"/><path class="cls-9" d="M279.59,176.71s-3.75-1.65-4.44-2.6a23.2,23.2,0,0,0,4.42,3C279.5,177,279.74,177,279.59,176.71Z"/><path class="cls-10" d="M277.57,178.13a9.27,9.27,0,0,1-3.84-2.07c0,.12,2.37,2.32,3.57,2.07C277.31,178.24,277.57,178.13,277.57,178.13Z"/><path class="cls-11" d="M268,174.31s.91-1.69-1.23-1.54c-1,0-2.74,1.89-2.79,2.52s-.2,2.32,2.31,1.29C266.64,176.09,268,174.88,268,174.31Z"/><path class="cls-12" d="M269.39,176.37a1.73,1.73,0,0,0-.19-2.6c-.3-.14-.81-.9-2.34,1.52-.73.75-1.15,2.34-.44,2.67A2.27,2.27,0,0,0,269.39,176.37Z"/><path class="cls-13" d="M271.35,177.74s.22-2.56-1.69-2.38c-.62.06-1.3,2.46-1,3s2.26.94,3.85-.23A6.64,6.64,0,0,0,271.35,177.74Z"/><path class="cls-14" d="M288.93,159.66,281,162.12a44.36,44.36,0,0,0-5.5-2,44.7,44.7,0,0,0-5.95,1s-3,3.3-3.42,4c-.71,1.12,3.08,2.95,5.79-1,2.74,1.07,4.69,1.46,5.6,3s1.57,3.47,4.69,5.37c.06-.52,9.77-3,9.77-3Z"/><path class="cls-15" d="M352.84,106s-10.44-13-18.1,5.67c-1.7,4.15-16.62,39.66-51.07,48.3-.85,1.48,2,13.39,4.48,13.73,1.53.53,45.16,3,60.15-40C353.62,130,352.84,106,352.84,106Z"/><path class="cls-16" d="M468.59,223.82,467.13,221a5.74,5.74,0,0,1,2.48-7.71l7.17-3.68a5.72,5.72,0,0,1,7.71,2.47l1.46,2.85,3.44-1.76-1.47-2.85A9.6,9.6,0,0,0,475,206.13l-7.17,3.69a9.59,9.59,0,0,0-4.14,12.91l1.46,2.85Z"/><path class="cls-17" d="M500.37,210.1,456.3,232.75a4.5,4.5,0,0,0-1.94,6.06l15.58,30.34a4.52,4.52,0,0,0,6.07,2l44.07-22.65a4.52,4.52,0,0,0,1.95-6.07l-15.59-30.33A4.51,4.51,0,0,0,500.37,210.1Z"/><path class="cls-18" d="M500.17,204.78l-48.08,24.71a3.86,3.86,0,0,0-1.67,5.19l9.32,18.13a3.87,3.87,0,0,0,5.2,1.67L513,229.77a3.85,3.85,0,0,0,1.67-5.2l-9.31-18.12A3.86,3.86,0,0,0,500.17,204.78Z"/><path class="cls-19" d="M487.21,238.69a2.69,2.69,0,0,0-1.16,3.61l1.77,3.44a2.68,2.68,0,0,0,4.77-2.46l-1.77-3.43A2.69,2.69,0,0,0,487.21,238.69Z"/><path class="cls-20" d="M479.14,206a47.74,47.74,0,0,0-5.3-8.3c-5.8-15.39-38.19-72.23-45.25-77.18-5.66,1.18-2.9,25.13-2.9,25.13s34.58,47.22,40.33,55.86c0,1.8-1.13,5.11.81,8.78s3.05,0,4.1,1.4c.22.3,1.41,3.05,3.4,1.77,2.35-1.51,4.16-2.05,4.86-3.64A4.52,4.52,0,0,0,479.14,206Z"/><path class="cls-21" d="M422.43,108.22c.32-.63,4.15,1,5.05,3.16,3.83,9,31,47.67,45.52,82.83.68.43-8.41,7.49-9.06,6.55-13.05-18.86-48.6-51.61-49.1-53.81S418,117,422.43,108.22Z"/><path class="cls-22" d="M208.85,372.71l-.14,22.21s-1.72,1.83,2,3.85,11.6,1.1,13.16.15c3.25-2-8.47-5.6-8.47-5.6l.21-22.26Z"/><path class="cls-23" d="M217.24,384.7c15.38-119.23,16.11-162.46,16.11-180,0-9.26-.74-10.62-.74-10.62-6-6.19-24.43-25.81-40.56,12.15C185.87,233.39,205.93,376,207,385.09,207.84,385.16,216.4,384.9,217.24,384.7Z"/><path class="cls-2" d="M215.4,393s15.25,2.84,16.23,6.11c1.56,5.22-21,4.24-23.86,1.43s.44-6.66.44-6.66S211,396.42,215.4,393Z"/><path class="cls-24" d="M216.66,393.66a7.34,7.34,0,0,0-2,2.79C214.69,397.45,218.74,393.15,216.66,393.66Z"/><path class="cls-24" d="M219.79,394.55a7.14,7.14,0,0,0-1.93,2.78C217.86,398.33,221.86,394.05,219.79,394.55Z"/><path class="cls-24" d="M222.73,395.2a6.1,6.1,0,0,0-1.63,2.45C221.12,398.54,224.51,394.78,222.73,395.2Z"/><path class="cls-25" d="M150.53,369.15l-6.82,20.06s-2.78.23-.52,3.85,9.52,6.73,11.34,6.68c3.81-.11-4.56-9.07-4.56-9.07l8-20.15Z"/><path class="cls-26" d="M155.17,383.58C201.53,272.66,215,230.66,219.64,213.71c2.45-8.93,2.1-10.44,2.1-10.44-4.15-7.55-14.46-40.63-40-8.29-3.09,5.78-13,15.82-12.31,43.36.06,2.41-23.5,134.18-24.54,141.07C145.64,379.71,154.32,383.55,155.17,383.58Z"/><path class="cls-2" d="M150.53,390.11s13.36,7.88,13.16,11.29c-.32,5.44-21.19-3.21-22.91-6.82s2.69-6.11,2.69-6.11S145.24,391.87,150.53,390.11Z"/><path class="cls-24" d="M151.46,391.2a7.23,7.23,0,0,0-2.79,1.95C148.32,394.09,153.6,391.43,151.46,391.2Z"/><path class="cls-24" d="M154.11,393.11a7.15,7.15,0,0,0-2.77,1.95C151,396,156.22,393.34,154.11,393.11Z"/><path class="cls-24" d="M156.64,394.73a6,6,0,0,0-2.37,1.74C154,397.31,158.46,394.94,156.64,394.73Z"/><path class="cls-27" d="M199.58,73.12l-5,32.09s12.11,10.2,18,10.25c6.91.05-.47-37.74-.47-37.74Z"/><path class="cls-28" d="M240.89,109.6c-3.31-5.95-26.43-15.84-26.3-13.75,0,.63-.06,3.94-5.9,6-8.17,2.94-12.79-4.35-12.79-4.35-8.31-.44-15.61,7.44-18.93,13.12-7.66,13.13-1.73,28.1.06,93.69.2,7.54,44.69,3.26,59.86-4C250.36,151,245.63,118.11,240.89,109.6Z"/><path class="cls-29" d="M205.46,99.77c-.65,1-5.93,6.2-5.93,6.2l8.63,5.49s9.05,37.47-1.35,70.26c1.57,5.07,8,13.62,8,13.62l10.28-9.43s-3.59-42.73-12.65-75.74c0,0,1.86-6.67,1.86-6.67Z"/><path class="cls-30" d="M187.45,98.56s-14.37,3.61-16.48,7.94c-2.84,5.83,7.67,41.52-4.54,110.69-2,4.36,52.31,15.54,69.69,6.2,8.63-42.11,17.9-87.25,7.55-119.14-5-5.1-14.84-7-19.89-7.1-1.72,0,9.21,39.17-3.82,77.47C200.08,141.46,189.81,102.05,187.45,98.56Z"/><path class="cls-31" d="M188.22,98.5s2.43,6,11.83,11.41c1.31-1.77,7.5-8.4,7.5-8.4l8,5.5s5.23-4.15,4.58-10.48a21.33,21.33,0,0,0-5.46-1.4s-7.14,8-19.8,1.36A20.66,20.66,0,0,0,188.22,98.5Z"/><path class="cls-32" d="M189.92,97.39l-9.29,2.83.52,22.58,8.84.35-10.6,5.07s31.8,29.65,40.71,47.24C220.39,156.21,192.32,99.66,189.92,97.39Z"/><path class="cls-33" d="M219.17,95.85s9.28,7.89.76,79c1.58-3,18.69-45.54,19.2-49-1-.25-12.63-1.8-12.63-1.8L237,119.41s-8.7-21-10.4-22.67C224.65,95.86,219.17,95.85,219.17,95.85Z"/><path class="cls-34" d="M262.88,171.87s-1.54,1.61,1.29,2.65c.51-.05,2.07-1.15,1.52-2.12S262.88,171.87,262.88,171.87Z"/><path class="cls-35" d="M175.47,102.58c-4.68,1.55-12.28,12.22-5.4,27.58,5.47,12.2,21.69,22,28.94,26.92,25.72,17.47,60,14.19,60.47,13.88,1.25-2.72,2.33-12,1.88-12.1-46-10.62-60-33.89-66.72-43.27C192.07,112,186.59,98.89,175.47,102.58Z"/><path class="cls-2" d="M362,382s-12.6,7.81-13.15,11.22c-.89,5.46,24.65,2,27.15-1.22s-2-12-2-12S366.85,384.91,362,382Z"/><path class="cls-24" d="M363.2,385.84a7.35,7.35,0,0,1,2.34,2.54C365.67,389.39,361,385.59,363.2,385.84Z"/><path class="cls-24" d="M360.16,387.14a7.29,7.29,0,0,1,2.31,2.54C362.6,390.69,358,386.9,360.16,387.14Z"/><path class="cls-24" d="M357.3,388.18a6.19,6.19,0,0,1,2,2.25C359.36,391.32,355.45,388,357.3,388.18Z"/><path class="cls-2" d="M444.09,366.4,449,383a5.73,5.73,0,0,0,3.19,5.8c3.84,2.05,11.83,1.09,13.42.12,3.31-2-8.65-5.68-8.65-5.68l-6-20.13Z"/><path class="cls-2" d="M456.61,381.74s16.38,6.31,17.27,9.65c1.44,5.34-21.41,3.7-24.23.77s-.36-9.74-.36-9.74S452.08,385.13,456.61,381.74Z"/><path class="cls-24" d="M458.86,385.5a7.31,7.31,0,0,0-2.07,2.77C456.76,389.28,461,385,458.86,385.5Z"/><path class="cls-24" d="M462,386.49a7.19,7.19,0,0,0-2,2.76C460,390.26,464.12,386,462,386.49Z"/><path class="cls-24" d="M465,387.23a6.26,6.26,0,0,0-1.73,2.43C463.24,390.56,466.79,386.85,465,387.23Z"/><path class="cls-36" d="M457.92,376.7C427.18,267.48,411,213.61,404.41,197c-3.45-8.73-4.65-9.75-4.65-9.75-5.11-2.32-17.14-7.93-25.37-.56-11.88-8.58-27.9-4.11-31.34-.49,0,0-.73,1.39-.65,10.78.17,17.82,6.4,62.58,19.39,182.34.85.2,11.55.33,12.4.24.89-8.18,3.43-48.88,10.22-118.88a1.86,1.86,0,0,1,3.52-.64c23.71,49.56,55,114.23,58.2,120.11C447,379.94,457.2,377.2,457.92,376.7Z"/><path class="cls-37" d="M393.52,78.68l1.08,26.87s-13.39,9-19.41,8.36c-7-.71,4.67-36.08,4.67-36.08Z"/><path class="cls-38" d="M347.43,103.7c4-5.66,28.51-13.1,28.15-11-.11.63-.37,4,5.3,6.76,7.94,3.88,13.43-3,13.43-3,8.46.47,19.11,10.37,21.84,16.48,6.3,14.14-5.51,27.52-14.6,93.7-1,7.62-45.6-1.65-60.14-10.71C333.26,144.52,341.69,111.79,347.43,103.7Z"/><path class="cls-2" d="M384.39,97.69c.55,1,5.31,6.94,5.31,6.94l-9.35,4.59s-13.32,36.92-6.43,71.25c-2.15,5-9.59,12.91-9.59,12.91L355,182.69s8.39-42.85,21.21-75.25c0,0-1.13-7-1.13-7Z"/><path class="cls-39" d="M402.74,98.46s15.84,8.62,20.78,9.85c4.15,1-26.51,74.22-4.1,109.8,1.55,4.63-63.21,12.32-79.77.93-7.76-27.78-11-85.53,3.05-116.66,3.49-2.61,17.87-7.42,23.82-8.18,1.72-.22-14.06,37.42-5.12,77.63C385.2,140.48,400,101.73,402.74,98.46Z"/><path class="cls-40" d="M402,98.32s-3.13,5.79-13.25,10.23c-1.13-1.94-6.66-9.33-6.66-9.33l-8.75,4.67s-4.83-4.78-3.47-11.11a21.7,21.7,0,0,1,5.68-.82s6.35,8.84,19.89,3.58A20.93,20.93,0,0,1,402,98.32Z"/><path class="cls-41" d="M402.2,97.82l7.14,3.7-2.91,22.18-9-.64,10.16,6.32s-35.48,26.47-46.44,43.29C364.8,155.3,399.52,99.85,402.2,97.82Z"/><path class="cls-42" d="M370.21,92.35s-9.54,6.8-8.81,79.69c-1.26-3.26-11.29-48.09-11.42-51.7,1-.15,10.43-.49,10.43-.49l-7.93-4.57s8.49-19.34,10.4-20.86C363.87,93.35,370.21,92.35,370.21,92.35Z"/><path class="cls-43" d="M386.45,47.76c4.29-.1,14.45,8.85,7.05,27.12-2.41,9-15.61,11.69-20-1.33S370.75,48.1,386.45,47.76Z"/><path class="cls-44" d="M393.73,60.33s4.54-3.95,4.29,1.3a4,4,0,0,1-4.18,4Z"/><path class="cls-2" d="M378.64,71.51a1.88,1.88,0,0,1,1.3-.65c.35,0,.73,0,1-.08a1.86,1.86,0,0,1,1.55.53c2.65,2.64,7.2,5.36,10.55-2.26,1.56-3.89,2.65-3.66,2.65-3.66s6,21.29-9.49,28.28c-9.49,4.29-22.39-7.48-13.34-23.33C374.45,74.64,376.92,73.48,378.64,71.51Z"/><path class="cls-45" d="M205.55,53.57c-1,.8-14.33,10.14-5.43,28.52,3.11,9.17,16.52,19.09,20.7-4.57C223.3,63.51,216.18,44.7,205.55,53.57Z"/><path class="cls-2" d="M197.72,72.13l2-10.54s-.9,1.72,8.68-.75c10.69-2.75,11.77,4.1,13,7.6,1.22.64,7.41-3.34,4.46-9.7.37,1.36,5.06,2.37,3.89-2.05S219.56,42.44,209.08,45C197.27,48,186.61,62.25,197.72,72.13Z"/><path class="cls-46" d="M198.59,70.91s-5.36-3.67-4.83,1.78c.42,4.31,5,3.78,5,3.78Z"/><path class="cls-47" d="M59.53,345.47l5,33.93a7.64,7.64,0,0,0,7.34,6.54c3.37.09,8.34.17,15.5.17,7.43,0,12.6-.09,16.1-.18a7.65,7.65,0,0,0,7.35-6.54l5-33.92Z"/><path class="cls-48" d="M87.64,367.33C98,367.33,107.19,366,113,364l2.63-17.94h-56L62.24,364C68.1,366,77.29,367.33,87.64,367.33Z"/><path class="cls-49" d="M119.67,354.73c0,4.69-14.34,8.49-32,8.49s-32-3.8-32-8.49L54.08,342H121.2Z"/><path class="cls-47" d="M121.2,342c0,4.92-15,8.91-33.56,8.91s-33.56-4-33.56-8.91,15-8.91,33.56-8.91S121.2,337,121.2,342Z"/><ellipse class="cls-50" cx="87.64" cy="341.79" rx="30.01" ry="6.71"/><path class="cls-51" d="M59,343.81c3.82-2.73,15.19-4.71,28.63-4.71s24.82,2,28.64,4.71a2.68,2.68,0,0,0,1.37-2c0-3.7-13.43-6.71-30-6.71s-30,3-30,6.71A2.67,2.67,0,0,0,59,343.81Z"/><path class="cls-52" d="M111.28,288.47c2.17-7.79-.46-14-3.33-20.9a40.45,40.45,0,0,1-2.24-21.65c1.47-9.92,4.76-19.51,1-29.13-3.56-9.09-7-21.06-16.83-24.89-9.56-4.08-16.78,5.34-16.62,14s5.09,16.51,2.62,25.08c-1.87,7-4.32,15.33-.66,22.05,4.38,8.33,12.55,14.2,9.5,24.32-1.21,3.63-3.18,6.7-3.59,10.36-.5,5.5,2.28,6.85,4.78,11.24,10.52,18.49-8.75,25.94-1.19,46.24a1.4,1.4,0,0,0,1.37.91h0a1.35,1.35,0,0,0,1.29-1.2c2.41-22.71,18.6-14.88,18.76-33.27,0-3.43-1-6.88-.62-10.28C106,296.13,110,293.41,111.28,288.47Z"/><path class="cls-53" d="M101.9,311a.45.45,0,0,0-.44.45c0,.46-.18,11-10.83,12.66.83-1.48,1.72-2.89,2.6-4.28a39.2,39.2,0,0,0,5-9.76,49.51,49.51,0,0,0,.8-26.24c7.52-3.7,5.45-16.35,5.35-16.9a.45.45,0,0,0-.51-.36.44.44,0,0,0-.37.51c0,.13,2,12.33-4.67,15.88a110,110,0,0,0-3.72-11.9c-3-8.39-1.54-19.36-.54-26.62,0-.31.09-.61.13-.91,9.41-2.09,10-14.13,10-14.25a.45.45,0,0,0-.43-.47h0a.45.45,0,0,0-.45.43c0,.12-.56,11.17-9,13.33.14-1.07.25-2,.32-2.86a110.18,110.18,0,0,0,.24-13.05v-.09c-.51-10.77-3-18.42-7.39-22.79a.45.45,0,1,0-.63.63c4.17,4.13,6.54,11.38,7.09,21.58-6.27-2.45-7.18-13.45-7.19-13.57a.43.43,0,0,0-.48-.41.45.45,0,0,0-.41.48c0,.5,1,12.12,8.14,14.48a110.6,110.6,0,0,1-.26,12.67c-.1,1.25-.32,2.84-.57,4.68a105.68,105.68,0,0,0-1.28,14.82c-8.74-3.3-9.38-14-9.38-14.12a.44.44,0,0,0-.45-.42h0a.45.45,0,0,0-.43.46c0,.12.68,11.69,10.3,15.05a35.53,35.53,0,0,0,1.84,11.26c3.92,10.78,7.13,21.62,4,35.18-7-1.34-7.94-11.14-8-11.24a.45.45,0,0,0-.89.08c0,.11,1,10.53,8.64,12-.2.79-.41,1.58-.66,2.39a38,38,0,0,1-4.86,9.54c-1,1.64-2.1,3.34-3.09,5.2,0,0,0,0,0,0-2.71,5.1-4.79,11.43-3.74,21.18a.44.44,0,0,0,.44.4h.05a.47.47,0,0,0,.4-.5c-1-9.5.9-15.53,3.57-20.55,12.1-1.39,12.26-13.53,12.26-13.65A.45.45,0,0,0,101.9,311Z"/><path class="cls-54" d="M106.08,310.61c0,.35,0,.69,0,1C106,323.72,99,324.5,93.5,330c.64-3.23.79-7.21,2.94-9.84,2.37-2.63,5.52-3.15,7.88-6.31A12.18,12.18,0,0,0,106.08,310.61Zm1.87-43a40.45,40.45,0,0,1-2.24-21.65c.1-.72.22-1.43.34-2.15a15.44,15.44,0,0,0-8.5,8C92.23,263,96.42,270.7,101,279.23c3.74,7,1.32,13.39,2.11,20.74.33,3.08,1.66,5.46,2.71,7.75a26.1,26.1,0,0,1-.33-6.35c.49-5.24,4.54-8,5.8-12.9C113.45,280.68,110.82,274.52,108,267.57ZM88.11,326.64a16.17,16.17,0,0,1-1.79-5.07c-2.4,6.29-5.07,12.81-2.2,22a.19.19,0,0,1,0,.07c.17.52.34,1.05.54,1.58a1.43,1.43,0,0,0,.16.3l0,0a1.26,1.26,0,0,0,.22.24h0a1.36,1.36,0,0,0,1,.32h0a1.3,1.3,0,0,0,.72-.25,1.35,1.35,0,0,0,.56-.87s0-.05,0-.08a31.67,31.67,0,0,1,1.9-8.29c-.5.32-1,.62-1.52.94C89.35,333.89,90.47,331.71,88.11,326.64Z"/><path class="cls-55" d="M136,284.43c-4.73-8.66-4.72-14.39-4.2-23.63.52-9.45-2.37-22.06-13.92-24.16-8.67-1.58-15.72,1.94-18.94,8.78-5.32,11.28-1.13,18.93,3.45,27.46,3.73,7,1.31,13.39,2.1,20.74s7.35,10.77,1.84,18.39c-2.37,3.15-5.52,3.67-7.88,6.3-2.37,2.89-2.32,7.41-3.15,10.77-2.12,8.46-10.41,7.26-10.76,15.84,0,.64.5,1.28,1,1.25s.81.07,1.13-.5c1.94-3.45,5.15-2.92,8.75-4.52,2.67-1.18,3.49-4.47,9.9-5.25,8.38-1,16,4.47,20.22-6.82,1.58-3.94,1.06-7.36,1.84-11.3.79-5.25,4.2-8.4,7.62-12.08C141,298.88,140.22,292.05,136,284.43Z"/><g class="cls-56"><path class="cls-55" d="M119.39,268.34h0c-7.86-.68-13.34-10.24-13.57-10.64a.45.45,0,0,1,.17-.61.44.44,0,0,1,.61.17c.05.09,5.48,9.55,12.86,10.18a.45.45,0,0,1,0,.9Z"/><path class="cls-55" d="M117.15,309.46a.46.46,0,0,1-.25-.08c-5.75-3.82-5.4-20.94-5.38-21.67a.45.45,0,1,1,.89,0c0,.17-.36,17.36,5,20.91a.45.45,0,0,1,.12.62A.45.45,0,0,1,117.15,309.46Z"/><path class="cls-55" d="M120.09,294.14a.44.44,0,0,1-.12-.87c9.05-2.54,9.77-17.19,9.78-17.34a.45.45,0,1,1,.89,0c0,.63-.76,15.45-10.43,18.16Z"/><path class="cls-55" d="M106.82,332.05a17.53,17.53,0,0,1-3-.26.44.44,0,0,1-.37-.51.46.46,0,0,1,.52-.37c13.22,2.27,18-11.73,18.07-11.87a.45.45,0,0,1,.57-.28.44.44,0,0,1,.28.56C122.85,319.46,118.52,332.05,106.82,332.05Z"/><path class="cls-55" d="M118.51,261.37a.45.45,0,0,1-.3-.78c5.66-5.18,1.9-16.32,1.86-16.43a.45.45,0,0,1,.28-.57.45.45,0,0,1,.57.27c.16.48,4,11.81-2.11,17.39A.44.44,0,0,1,118.51,261.37Z"/><path class="cls-55" d="M85.6,345.8h-.12a.44.44,0,0,1-.31-.55c1-3.79,5.43-5.73,8.34-7a16.44,16.44,0,0,0,2.09-1c23.64-15.36,30.09-44.58,19.72-89.3a.43.43,0,0,1,.33-.53.44.44,0,0,1,.54.33c10.46,45.13,3.89,74.65-20.1,90.25a18.47,18.47,0,0,1-2.22,1.09c-2.76,1.21-6.92,3-7.84,6.42A.44.44,0,0,1,85.6,345.8Z"/></g><path class="cls-57" d="M84.56,344.92c0,.64.5,1.28,1,1.25h.07c1.41-1.06-.38-2.58,1.76-7.59A8.63,8.63,0,0,0,84.56,344.92Z"/><path class="cls-58" d="M86.15,324.13c-2.61-5.59-.15-12.79-2.71-16.87C80.3,302.15,75.06,306,69,299c-5.11-5.89-1.43-14.05-13.06-20.14-3.56-1.86-7.67-.94-9.06,3.07-1.66,3.76,1,9.15,2.19,12.77,1.2,3.08,2.61,5.37,2,8.79l0,.11c-.67,2.63-2.41,4-1.48,7.12,1.94,7.53,12.61,6.85,18,11.54,3.8,3.32.37,7.27,4.09,12.28s5.57-.44,12.21,11.31a.86.86,0,0,0,1.19.33h0a.85.85,0,0,0,.44-.82C84.51,332.66,90,332.37,86.15,324.13Z"/><path class="cls-59" d="M81,333.31a16.8,16.8,0,0,1-2-3.86c4.12-3.4,1.83-11.52,1.73-11.88a.46.46,0,0,0-.56-.3.45.45,0,0,0-.3.55c0,.08,2.1,7.44-1.12,10.66a9.48,9.48,0,0,1-.16-2.05,34.27,34.27,0,0,0-.09-4.44s0,0,0-.05l0-.08a12.18,12.18,0,0,0-2.91-7.11c2.74-3.49-1.11-10-1.28-10.28a.44.44,0,0,0-.61-.15.45.45,0,0,0-.16.61c0,.07,3.63,6.11,1.43,9.16a16.42,16.42,0,0,0-3.09-2.34,39.23,39.23,0,0,1-10-8.05c2.74-3.57-.55-11.84-.69-12.2a.43.43,0,0,0-.58-.24.45.45,0,0,0-.25.58c0,.08,3.14,7.87,1,11.14-3.86-4.83-6-10.79-7.3-19.31a.44.44,0,0,0-.51-.38.46.46,0,0,0-.38.51,57.84,57.84,0,0,0,2.63,10.91,9.07,9.07,0,0,1-4.95-6.9.45.45,0,1,0-.89.09c0,.06.72,6,6.26,7.94A29.71,29.71,0,0,0,61,304s0,0,0,.06h0A31.69,31.69,0,0,0,65,308c-6.14,1.72-11.09-3.86-11.15-3.92a.45.45,0,1,0-.67.59c0,.05,4,4.57,9.44,4.57a9.79,9.79,0,0,0,3.2-.55,52.32,52.32,0,0,0,5.67,3.87c4.24,2.54,5.71,5.54,6.16,9-8.28.29-11.24-4.45-11.36-4.66a.45.45,0,0,0-.77.46c.13.22,3.13,5.12,11.36,5.12l.86,0a37.52,37.52,0,0,1,0,4c-.09,3.19,1.12,5.13,2.52,7.38.2.32.41.64.61,1-7.53-1.43-8.42-6-8.45-6.2a.43.43,0,0,0-.51-.36.44.44,0,0,0-.37.51c0,.23,1,5.69,9.92,7.06a20.6,20.6,0,0,1,2.6,10,.44.44,0,0,0,.44.44h0a.45.45,0,0,0,.43-.46A22.14,22.14,0,0,0,81,333.31Z"/><path class="cls-60" d="M378,51s-4,1-5,7"/></g></g></svg>