<svg width="411" height="307" viewBox="0 0 411 307" fill="none" xmlns="http://www.w3.org/2000/svg">
<path d="M357.613 300.116C370.325 300.116 380.63 297.513 380.63 294.303C380.63 291.092 370.325 288.49 357.613 288.49C344.901 288.49 334.595 291.092 334.595 294.303C334.595 297.513 344.901 300.116 357.613 300.116Z" fill="#D1D3D4"/>
<path d="M58.804 306.983C90.4518 306.983 116.107 303.376 116.107 298.926C116.107 294.476 90.4518 290.869 58.804 290.869C27.1561 290.869 1.50049 294.476 1.50049 298.926C1.50049 303.376 27.1561 306.983 58.804 306.983Z" fill="#D1D3D4"/>
<path d="M210.906 281.969C260.821 281.969 301.286 278.558 301.286 274.35C301.286 270.141 260.821 266.73 210.906 266.73C160.99 266.73 120.525 270.141 120.525 274.35C120.525 278.558 160.99 281.969 210.906 281.969Z" fill="#D1D3D4"/>
<path d="M257.87 224.79H163.925V262.874H257.87V224.79Z" fill="white"/>
<path d="M257.871 263.567H163.925C163.737 263.563 163.558 263.489 163.425 263.36C163.292 263.231 163.216 263.057 163.212 262.874V224.79C163.216 224.607 163.292 224.433 163.425 224.304C163.558 224.175 163.737 224.101 163.925 224.097H257.871C258.058 224.101 258.237 224.175 258.37 224.304C258.503 224.433 258.58 224.607 258.584 224.79V262.874C258.58 263.057 258.503 263.231 258.37 263.36C258.237 263.489 258.058 263.563 257.871 263.567V263.567ZM164.7 262.182H257.22V225.483H164.7V262.182Z" fill="#231F20"/>
<path d="M284.127 262.242H137.683C134.122 262.242 131.235 265.047 131.235 268.507C131.235 271.966 134.122 274.771 137.683 274.771H284.127C287.689 274.771 290.575 271.966 290.575 268.507C290.575 265.047 287.689 262.242 284.127 262.242Z" fill="white"/>
<path d="M284.05 275.464H137.684C136.716 275.508 135.75 275.36 134.843 275.031C133.935 274.701 133.107 274.196 132.406 273.547C131.705 272.897 131.148 272.116 130.767 271.251C130.386 270.386 130.189 269.455 130.189 268.514C130.189 267.573 130.386 266.642 130.767 265.777C131.148 264.912 131.705 264.131 132.406 263.481C133.107 262.832 133.935 262.327 134.843 261.997C135.75 261.668 136.716 261.521 137.684 261.564H284.05C285.017 261.521 285.984 261.668 286.891 261.997C287.798 262.327 288.627 262.832 289.328 263.481C290.028 264.131 290.586 264.912 290.967 265.777C291.348 266.642 291.544 267.573 291.544 268.514C291.544 269.455 291.348 270.386 290.967 271.251C290.586 272.116 290.028 272.897 289.328 273.547C288.627 274.196 287.798 274.701 286.891 275.031C285.984 275.36 285.017 275.508 284.05 275.464V275.464ZM137.622 262.935C136.1 262.935 134.642 263.522 133.566 264.567C132.491 265.612 131.887 267.029 131.887 268.507C131.887 269.984 132.491 271.402 133.566 272.446C134.642 273.491 136.1 274.078 137.622 274.078H284.05C285.571 274.078 287.03 273.491 288.105 272.446C289.181 271.402 289.785 269.984 289.785 268.507C289.785 267.029 289.181 265.612 288.105 264.567C287.03 263.522 285.571 262.935 284.05 262.935H137.622Z" fill="#231F20"/>
<path d="M257.87 224.79V228.931C229.18 231.762 183.47 242.996 163.925 248.026V224.79H257.87Z" fill="#231F20"/>
<path d="M163.925 248.689C163.774 248.69 163.627 248.642 163.506 248.553C163.426 248.489 163.36 248.409 163.314 248.318C163.269 248.227 163.245 248.127 163.243 248.026V224.79C163.243 224.614 163.315 224.446 163.443 224.321C163.571 224.197 163.744 224.127 163.925 224.127H257.87C258.051 224.127 258.225 224.197 258.353 224.321C258.481 224.446 258.552 224.614 258.552 224.79V228.931C258.554 229.095 258.492 229.253 258.381 229.375C258.269 229.497 258.115 229.575 257.948 229.594C229.102 232.44 182.711 243.87 164.095 248.659L163.925 248.689ZM164.607 225.452V247.153C183.641 242.273 228.653 231.25 257.188 228.344V225.452H164.607Z" fill="#231F20"/>
<path d="M394.534 1.19153H27.2615C18.7268 1.19153 11.808 7.91351 11.808 16.2055V209.851C11.808 218.143 18.7268 224.865 27.2615 224.865H394.534C403.069 224.865 409.988 218.143 409.988 209.851V16.2055C409.988 7.91351 403.069 1.19153 394.534 1.19153Z" fill="white"/>
<path d="M394.534 225.558H27.2615C22.9751 225.554 18.8655 223.898 15.8346 220.953C12.8036 218.008 11.0991 214.016 11.095 209.851V16.2206C11.0991 12.0562 12.8036 8.06341 15.8346 5.1187C18.8655 2.17399 22.9751 0.517903 27.2615 0.513916H394.611C398.884 0.537773 402.974 2.20263 405.988 5.14519C409.003 8.08776 410.696 12.0692 410.7 16.2206V209.851C410.696 214.016 408.992 218.008 405.961 220.953C402.93 223.898 398.82 225.554 394.534 225.558V225.558ZM27.2615 1.91442C23.3506 1.91841 19.6014 3.4306 16.8374 6.11875C14.0735 8.80689 12.521 12.4511 12.521 16.2507V209.851C12.521 213.651 14.0735 217.295 16.8374 219.983C19.6014 222.671 23.3506 224.183 27.2615 224.187H394.611C398.522 224.183 402.272 222.671 405.036 219.983C407.799 217.295 409.352 213.651 409.352 209.851V16.2206C409.348 14.3354 408.961 12.4695 408.214 10.7296C407.467 8.98983 406.374 7.41028 404.997 6.08144C403.621 4.75259 401.988 3.70053 400.193 2.9855C398.397 2.27046 396.474 1.90649 394.534 1.91442H27.2615Z" fill="#231F20"/>
<path d="M405.12 30.9184H12.8C12.6122 30.9145 12.4331 30.8403 12.3003 30.7112C12.1674 30.5821 12.091 30.4082 12.087 30.2256C12.0911 30.0445 12.168 29.8722 12.3013 29.7455C12.4345 29.6188 12.6136 29.5479 12.8 29.548H405.12C405.305 29.548 405.483 29.6194 405.614 29.7465C405.745 29.8736 405.818 30.0459 405.818 30.2256C405.818 30.4068 405.745 30.5807 405.615 30.7102C405.484 30.8397 405.307 30.9144 405.12 30.9184V30.9184Z" fill="#231F20"/>
<path d="M211.742 201.463H210.022C209.433 201.162 208.859 200.831 208.255 200.575C181.657 188.829 161.243 171.721 147.805 148.711C141.266 137.517 136.727 125.327 134.382 112.659C133.039 105.565 132.488 98.3496 132.739 91.1399C132.739 90.0104 133.219 89.4834 134.537 89.2725C136.397 88.9714 138.241 88.5346 140.055 88.0678C149.107 85.6583 156.376 81.231 161.166 74.0477C164.74 68.7444 166.433 62.4516 165.986 56.1274C165.909 55.0431 166.25 54.6214 167.536 54.3654C175.968 53.0402 184.354 51.5193 192.801 50.2543C202.528 48.6172 212.448 48.3585 222.251 49.4863C232.993 50.9018 243.657 52.7993 254.352 54.4257C255.499 54.6064 255.67 55.0582 255.701 55.9316C255.648 58.2624 255.783 60.5936 256.103 62.904C256.796 66.8249 258.281 70.5737 260.474 73.9339C262.666 77.2941 265.521 80.199 268.876 82.4809C274.166 85.9921 280.198 88.3076 286.53 89.2575C288.561 89.6189 288.995 90.417 289.041 92.0284C289.352 103.333 287.734 114.609 284.252 125.399C274.952 154.795 255.669 177.971 225.801 194.476C221.259 196.991 216.439 199.189 211.742 201.463Z" fill="#FFD200"/>
<path d="M243.254 105.792H178.541C172.001 105.792 166.699 110.944 166.699 117.298V149.057C166.699 155.412 172.001 160.563 178.541 160.563H243.254C249.794 160.563 255.096 155.412 255.096 149.057V117.298C255.096 110.944 249.794 105.792 243.254 105.792Z" fill="white"/>
<path d="M232.993 115.581H188.803C187.98 115.581 187.192 115.264 186.61 114.699C186.029 114.134 185.703 113.368 185.703 112.569V95.5372C185.866 89.1502 188.592 83.078 193.299 78.6167C198.006 74.1553 204.322 71.6582 210.898 71.6582C217.474 71.6582 223.789 74.1553 228.497 78.6167C233.204 83.078 235.93 89.1502 236.093 95.5372V112.569C236.093 113.368 235.766 114.134 235.185 114.699C234.604 115.264 233.815 115.581 232.993 115.581ZM191.903 109.557H229.893V95.5372C229.752 90.7339 227.689 86.1733 224.142 82.8243C220.595 79.4754 215.844 77.6019 210.898 77.6019C205.952 77.6019 201.201 79.4754 197.654 82.8243C194.107 86.1733 192.044 90.7339 191.903 95.5372V109.557Z" fill="white"/>
<path d="M210.906 132.884C215.579 132.884 219.369 129.203 219.369 124.661C219.369 120.12 215.579 116.439 210.906 116.439C206.232 116.439 202.443 120.12 202.443 124.661C202.443 129.203 206.232 132.884 210.906 132.884Z" fill="#FFD200"/>
<path d="M213.261 126.243H208.534V145.398H213.261V126.243Z" fill="#FFD200"/>
<path d="M32.423 22.154C35.2907 22.154 37.6155 19.8953 37.6155 17.1091C37.6155 14.323 35.2907 12.0643 32.423 12.0643C29.5552 12.0643 27.2305 14.323 27.2305 17.1091C27.2305 19.8953 29.5552 22.154 32.423 22.154Z" fill="#68E1FD"/>
<path d="M50.5735 22.154C53.4412 22.154 55.766 19.8953 55.766 17.1091C55.766 14.323 53.4412 12.0643 50.5735 12.0643C47.7058 12.0643 45.381 14.323 45.381 17.1091C45.381 19.8953 47.7058 22.154 50.5735 22.154Z" fill="#D1D3D4"/>
<path d="M68.724 22.154C71.5917 22.154 73.9165 19.8953 73.9165 17.1091C73.9165 14.323 71.5917 12.0643 68.724 12.0643C65.8563 12.0643 63.5315 14.323 63.5315 17.1091C63.5315 19.8953 65.8563 22.154 68.724 22.154Z" fill="#D1D3D4"/>
<path d="M278.021 197.352C277.879 197.36 277.739 197.325 277.618 197.253C277.497 197.181 277.402 197.075 277.345 196.949C277.288 196.823 277.271 196.683 277.298 196.548C277.324 196.413 277.393 196.289 277.494 196.193L377.05 94.1819C377.184 94.0522 377.365 93.9794 377.554 93.9794C377.743 93.9794 377.924 94.0522 378.058 94.1819C378.187 94.3136 378.26 94.4889 378.26 94.6713C378.26 94.8536 378.187 95.029 378.058 95.1607L278.579 197.171C278.504 197.238 278.415 197.288 278.319 197.319C278.223 197.35 278.121 197.361 278.021 197.352V197.352Z" fill="#D1D3D4"/>
<path d="M101.15 82.9326C101.008 82.9325 100.87 82.8912 100.752 82.8142C100.634 82.7371 100.543 82.6277 100.49 82.5C100.437 82.3722 100.424 82.232 100.453 82.0971C100.482 81.9623 100.552 81.839 100.654 81.7429L143 41.3693C143.065 41.3033 143.143 41.2507 143.23 41.2148C143.316 41.1789 143.41 41.1604 143.504 41.1604C143.598 41.1604 143.691 41.1789 143.778 41.2148C143.864 41.2507 143.942 41.3033 144.008 41.3693C144.141 41.4992 144.216 41.6753 144.216 41.8588C144.216 42.0423 144.141 42.2183 144.008 42.3482L101.631 82.7218C101.57 82.7875 101.496 82.8403 101.413 82.8766C101.33 82.9129 101.241 82.932 101.15 82.9326V82.9326Z" fill="#D1D3D4"/>
<path d="M313.019 107.991C312.927 107.993 312.836 107.976 312.751 107.943C312.666 107.909 312.588 107.859 312.523 107.795C312.39 107.665 312.315 107.489 312.315 107.306C312.315 107.122 312.39 106.946 312.523 106.817L362.248 56.4135C362.378 56.2854 362.556 56.2119 362.741 56.2087C362.927 56.2056 363.107 56.273 363.242 56.3967C363.378 56.5203 363.458 56.6905 363.466 56.8708C363.474 57.0512 363.41 57.2275 363.286 57.3623L313.5 107.78C313.373 107.906 313.201 107.982 313.019 107.991V107.991Z" fill="#D1D3D4"/>
<path d="M16.4735 195.876L17.636 203.406C17.636 203.406 22.286 205.424 22.534 206.689C22.782 207.954 24.084 211.447 23.774 212.441C23.1075 214.113 20.8755 213.51 20.8755 213.51C21.132 214.494 21.2003 215.515 21.077 216.522C20.7515 217.2 10.227 218.028 8.67703 215.92C7.12703 213.812 3.63953 191.991 3.63953 191.991" fill="white"/>
<path d="M14.8925 217.953C12.273 217.953 9.0335 217.667 8.0415 216.342C6.414 214.188 3.2365 194.355 2.88 192.112C2.86459 192.022 2.86769 191.931 2.8891 191.843C2.91052 191.755 2.94983 191.672 3.00471 191.599C3.05959 191.526 3.12894 191.465 3.20868 191.418C3.28841 191.372 3.37693 191.341 3.469 191.328C3.56074 191.313 3.65463 191.316 3.74514 191.337C3.83566 191.358 3.92098 191.396 3.99608 191.45C4.07118 191.503 4.13454 191.57 4.18244 191.648C4.23034 191.725 4.26182 191.811 4.275 191.901C5.608 200.289 8.119 214.113 9.1885 215.529C10.258 216.944 18.8915 216.613 20.457 216.101C20.4679 215.305 20.3795 214.511 20.1935 213.736C20.1673 213.621 20.1721 213.501 20.2074 213.387C20.2426 213.274 20.3073 213.171 20.395 213.089C20.4851 213.008 20.5948 212.95 20.7141 212.921C20.8333 212.892 20.9582 212.893 21.077 212.923C21.077 212.923 22.627 213.33 23.1075 212.261C23.0199 210.892 22.7275 209.542 22.2395 208.255C22.069 207.728 21.9295 207.261 21.852 206.93C20.5821 205.678 19.0414 204.716 17.3415 204.114C17.2326 204.066 17.1375 203.993 17.0645 203.901C16.9915 203.809 16.9429 203.701 16.923 203.587L15.776 196.057C15.7493 195.877 15.7971 195.695 15.9091 195.549C16.021 195.404 16.1878 195.307 16.3728 195.281C16.5577 195.256 16.7458 195.302 16.8955 195.411C17.0452 195.519 17.1443 195.682 17.171 195.861L18.2715 203.09C19.8215 203.828 22.9215 205.349 23.2315 206.689C23.2315 206.99 23.4485 207.427 23.588 207.939C24.301 210.243 24.7815 211.944 24.425 212.833C24.2158 213.344 23.8448 213.777 23.3655 214.069C22.8862 214.362 22.3235 214.498 21.759 214.459C21.9565 215.261 21.9565 216.097 21.759 216.899C21.635 217.185 21.4335 217.577 18.566 217.863C18.3645 217.802 16.799 217.953 14.8925 217.953Z" fill="#231F20"/>
<path d="M20.8755 213.586C20.1081 212.269 19.5342 210.855 19.1705 209.384Z" fill="white"/>
<path d="M20.8755 214.248C20.7578 214.248 20.6421 214.219 20.5391 214.164C20.4361 214.109 20.3492 214.029 20.2865 213.932C19.4735 212.551 18.8631 211.065 18.473 209.52C18.43 209.342 18.4592 209.156 18.5545 208.998C18.6498 208.841 18.8038 208.726 18.9845 208.677C19.1674 208.631 19.3615 208.657 19.5243 208.751C19.687 208.844 19.8051 208.996 19.8525 209.174C20.1849 210.574 20.706 211.926 21.4025 213.194C21.4739 213.298 21.5145 213.419 21.5197 213.544C21.525 213.668 21.4946 213.792 21.4321 213.901C21.3696 214.01 21.2773 214.1 21.1654 214.161C21.0535 214.223 20.9264 214.253 20.798 214.248H20.8755Z" fill="#231F20"/>
<path d="M103.909 195.876L102.762 203.406C102.762 203.406 98.112 205.424 97.8485 206.689C97.585 207.954 96.2986 211.447 96.6086 212.441C97.2751 214.113 99.507 213.51 99.507 213.51C99.2506 214.494 99.1823 215.515 99.3055 216.522C99.631 217.2 110.156 218.028 111.706 215.92C113.256 213.812 116.743 191.991 116.743 191.991" fill="white"/>
<path d="M105.49 217.953C103.583 217.953 102.018 217.802 101.863 217.787C98.9955 217.501 98.7629 217.11 98.6699 216.824C98.4724 216.022 98.4724 215.186 98.6699 214.384C98.1054 214.423 97.5428 214.286 97.0635 213.994C96.5842 213.702 96.2131 213.269 96.0039 212.758C95.6474 211.869 96.128 210.167 96.841 207.863C96.996 207.351 97.1199 206.915 97.1974 206.613C97.5229 205.273 100.545 203.752 102.157 203.014L103.258 195.786C103.285 195.606 103.384 195.444 103.533 195.335C103.683 195.227 103.871 195.18 104.056 195.206C104.241 195.232 104.408 195.328 104.52 195.474C104.632 195.619 104.68 195.802 104.653 195.982L103.506 203.511C103.489 203.627 103.441 203.736 103.368 203.828C103.295 203.921 103.198 203.993 103.087 204.038C101.388 204.64 99.8469 205.602 98.5769 206.854C98.4994 207.186 98.3599 207.653 98.1894 208.18C97.7015 209.467 97.4091 210.816 97.3215 212.185C97.74 213.255 99.29 212.863 99.3675 212.848C99.4849 212.816 99.609 212.814 99.7274 212.842C99.8458 212.871 99.9543 212.93 100.042 213.012C100.13 213.094 100.194 213.198 100.228 213.312C100.262 213.425 100.265 213.546 100.235 213.661C100.05 214.436 99.961 215.23 99.972 216.025C101.522 216.537 110.109 216.974 111.24 215.453C112.372 213.932 114.821 200.213 116.154 191.825C116.167 191.736 116.199 191.65 116.247 191.572C116.294 191.495 116.358 191.428 116.433 191.374C116.508 191.321 116.593 191.283 116.684 191.262C116.774 191.241 116.868 191.238 116.96 191.253C117.052 191.266 117.141 191.297 117.22 191.343C117.3 191.39 117.369 191.451 117.424 191.524C117.479 191.597 117.518 191.68 117.54 191.768C117.561 191.856 117.564 191.947 117.549 192.036C117.192 194.28 114.015 214.113 112.387 216.266C111.349 217.667 108.109 217.953 105.49 217.953Z" fill="#231F20"/>
<path d="M101.15 213.586C101.918 212.268 102.497 210.855 102.871 209.384Z" fill="white"/>
<path d="M101.15 214.248C101.018 214.249 100.889 214.212 100.778 214.143C100.618 214.047 100.504 213.893 100.461 213.715C100.417 213.538 100.448 213.35 100.546 213.194C101.286 211.936 101.839 210.583 102.189 209.174C102.236 208.999 102.352 208.85 102.511 208.757C102.67 208.664 102.86 208.635 103.041 208.677C103.133 208.698 103.219 208.736 103.295 208.791C103.371 208.845 103.434 208.913 103.482 208.992C103.53 209.071 103.561 209.158 103.573 209.249C103.585 209.34 103.578 209.432 103.553 209.52C103.169 211.061 102.564 212.541 101.755 213.917C101.69 214.017 101.601 214.099 101.495 214.157C101.39 214.215 101.271 214.246 101.15 214.248V214.248Z" fill="#231F20"/>
<path d="M113.55 129.375C113.55 129.375 107.815 109.301 101.072 102.058C94.33 94.8143 75.916 87.1341 45.3965 90.9742C45.3965 90.9742 29.5555 95.0552 20.0075 103.88C10.4595 112.705 7.03397 128.411 7.03397 128.411C7.03397 128.411 -4.48252 169.071 1.96548 198.662L20.8445 199.777C20.8445 199.777 17.9615 165.035 27.649 137.447C29.416 172.083 32.175 227.5 34.097 281.728L56.4015 281.277L62.7565 211.628L65.097 280.509H87.9285C87.9285 280.509 94.33 193.798 91.2145 133.592C102.731 161.617 99.538 199.852 99.538 199.852L118.417 198.737C124.307 171.736 115.208 135.429 113.55 129.375Z" fill="#24285B"/>
<path d="M50.4494 67.0301C49.5504 61.5938 40.2349 60.2535 40.6999 66.6687C40.767 68.8984 41.6458 71.0328 43.1799 72.6923C43.956 73.4938 44.9579 74.0555 46.0605 74.3072C47.1631 74.559 48.3176 74.4897 49.3799 74.1079" fill="white"/>
<path d="M47.489 75.2826C46.5766 75.2696 45.6757 75.0821 44.838 74.7306C44.0002 74.3792 43.2419 73.8708 42.6065 73.2345C40.9351 71.4243 39.9746 69.0993 39.894 66.6687C39.7815 66.0756 39.798 65.4661 39.9424 64.8796C40.0869 64.293 40.3561 63.7423 40.7327 63.2629C41.1094 62.7835 41.5852 62.3859 42.1294 62.0959C42.6737 61.8058 43.2744 61.6297 43.893 61.5787C45.5711 61.4126 47.2527 61.8608 48.6086 62.8356C49.9646 63.8104 50.8974 65.2417 51.2245 66.8494C51.2544 66.9531 51.2616 67.0617 51.2456 67.1682C51.2295 67.2748 51.1906 67.3768 51.1313 67.4678C51.0721 67.5588 50.9938 67.6366 50.9015 67.6963C50.8093 67.756 50.7052 67.7961 50.5959 67.8142C50.4867 67.8322 50.3747 67.8277 50.2674 67.801C50.16 67.7743 50.0596 67.726 49.9727 67.6592C49.8858 67.5923 49.8144 67.5085 49.763 67.4131C49.7116 67.3177 49.6815 67.2129 49.6745 67.1054C49.4039 65.8943 48.6878 64.8206 47.6605 64.0859C46.6332 63.3512 45.3652 63.0059 44.0945 63.1147C43.0405 63.2352 41.32 63.8376 41.506 66.5482C41.5647 68.6204 42.3775 70.6052 43.8 72.1502C44.465 72.8479 45.3275 73.3389 46.2791 73.5613C47.2307 73.7837 48.2287 73.7276 49.1475 73.4002C49.341 73.3184 49.5597 73.3136 49.7568 73.3868C49.9538 73.46 50.1135 73.6054 50.2015 73.7917C50.2863 73.9818 50.2917 74.1966 50.2165 74.3905C50.1413 74.5844 49.9914 74.7423 49.7985 74.8308C49.0695 75.1363 48.2828 75.2902 47.489 75.2826V75.2826Z" fill="#231F20"/>
<path d="M73.6375 67.0301C74.521 61.5938 83.8364 60.2535 83.3714 66.6687C83.3043 68.8984 82.4256 71.0328 80.8914 72.6923C80.1153 73.4938 79.1135 74.0555 78.0109 74.3072C76.9083 74.559 75.7538 74.4897 74.6915 74.1079" fill="white"/>
<path d="M76.5824 75.2825C75.8042 75.2839 75.034 75.1302 74.3194 74.8308C74.1139 74.7449 73.9519 74.5832 73.869 74.3813C73.7862 74.1794 73.7893 73.9537 73.8777 73.754C73.9661 73.5543 74.1325 73.3969 74.3403 73.3164C74.5482 73.236 74.7804 73.239 74.9859 73.3248C75.9024 73.6511 76.8978 73.7065 77.8467 73.4841C78.7955 73.2616 79.6554 72.7713 80.3179 72.0749C81.6746 70.5728 82.4621 68.6653 82.5499 66.6687C82.7359 63.9581 80.9999 63.3557 79.9614 63.2352C78.6907 63.1263 77.4228 63.4717 76.3954 64.2064C75.3681 64.9411 74.652 66.0147 74.3814 67.2259C74.3745 67.3334 74.3443 67.4382 74.2929 67.5336C74.2415 67.629 74.1701 67.7128 74.0832 67.7796C73.9963 67.8465 73.8959 67.8948 73.7886 67.9215C73.6812 67.9482 73.5693 67.9527 73.46 67.9346C73.3508 67.9166 73.2466 67.8764 73.1544 67.8168C73.0622 67.7571 72.9839 67.6793 72.9246 67.5883C72.8653 67.4973 72.8264 67.3952 72.8103 67.2887C72.7943 67.1822 72.8015 67.0735 72.8314 66.9699C73.1553 65.3605 74.0873 63.9272 75.4441 62.9518C76.8008 61.9764 78.4842 61.5295 80.1629 61.6992C80.7704 61.75 81.3607 61.9215 81.8971 62.2033C82.4335 62.485 82.9046 62.8708 83.2811 63.3369C83.6575 63.8029 83.9314 64.3391 84.0856 64.9123C84.2398 65.4855 84.271 66.0833 84.1774 66.6687C84.089 69.0797 83.1286 71.3832 81.4649 73.1743C80.8347 73.8215 80.0788 74.341 79.2407 74.7029C78.4027 75.0648 77.4992 75.2618 76.5824 75.2825V75.2825Z" fill="#231F20"/>
<path d="M72.816 94.2571L66.2905 132.206L63.9035 146.03L60.8655 132.056L52.635 94.2571H72.816Z" fill="#68E1FD"/>
<path d="M64.3065 107.328L66.2905 132.191L63.95 146.031L60.85 132.056L61.997 107.72L59.5635 103.654L62.4 99.3923L66.337 103.338L64.3065 107.328Z" fill="white"/>
<path d="M72.816 94.2572C71.8503 95.9524 70.4146 97.3506 68.6721 98.2929C66.9295 99.2353 64.9499 99.684 62.958 99.5881C60.9094 99.6447 58.8808 99.1831 57.0711 98.2485C55.2614 97.314 53.7328 95.9386 52.635 94.2572L52.945 90.4472L53.658 81.5924L54.34 73.325H71.111L71.669 80.0865L71.8395 82.2851L72.816 94.2572Z" fill="white"/>
<path d="M62.958 100.356C60.7632 100.418 58.5898 99.9211 56.6538 98.9146C54.7178 97.9081 53.0866 96.427 51.922 94.6185C51.8446 94.4915 51.8119 94.3434 51.829 94.1968L53.5495 73.2646C53.5614 73.0688 53.6499 72.8849 53.7969 72.7505C53.9438 72.6161 54.1382 72.5414 54.34 72.5417H71.111C71.3118 72.5449 71.5041 72.6208 71.6503 72.7545C71.7965 72.8882 71.8861 73.0701 71.9015 73.2646L73.622 94.1968C73.6512 94.3207 73.6512 94.4494 73.622 94.5733C72.5942 96.4224 71.0451 97.9485 69.1563 98.9727C67.2676 99.9969 65.1175 100.477 62.958 100.356V100.356ZM53.441 94.0613C54.4855 95.5689 55.9062 96.7948 57.5705 97.6243C59.2348 98.4539 61.0883 98.8601 62.958 98.8049C64.7656 98.8948 66.5642 98.5033 68.1595 97.6726C69.7548 96.8419 71.0862 95.6036 72.01 94.0914L70.367 74.0928H55.084L53.441 94.0613Z" fill="#231F20"/>
<path d="M72.9709 79.454C72.7879 80.4605 72.4035 81.4224 71.8394 82.2851C70.4272 84.2657 68.5312 85.8749 66.3214 86.9685C62.7099 88.9111 57.3159 91.0947 52.9449 90.4472L53.6579 81.5924C56.8707 81.9622 60.1172 81.9622 63.3299 81.5924C66.1722 81.5044 68.984 80.9966 71.669 80.0865C72.103 79.8907 72.5524 79.6949 72.9709 79.454Z" fill="#231F20"/>
<path d="M54.6499 91.3056C54.0534 91.3109 53.4574 91.2707 52.8674 91.1851C52.6742 91.1588 52.4987 91.0612 52.3775 90.9126C52.2563 90.764 52.1986 90.5758 52.2164 90.387L52.9294 81.5322C52.9578 81.3274 53.0626 81.1398 53.2239 81.0051C53.3924 80.882 53.6039 80.8279 53.8129 80.8545C56.9641 81.2143 60.1478 81.2143 63.2989 80.8545C66.0642 80.7558 68.7977 80.248 71.4054 79.3486C71.8239 79.1679 72.2424 78.9721 72.6299 78.7613C72.7561 78.6868 72.9008 78.6475 73.0484 78.6475C73.196 78.6475 73.3408 78.6868 73.4669 78.7613C73.5831 78.845 73.6735 78.958 73.7281 79.0881C73.7828 79.2182 73.7997 79.3604 73.7769 79.4992C73.5658 80.571 73.1449 81.5935 72.5369 82.511C71.07 84.6092 69.0813 86.3134 66.7554 87.4655C63.9499 89.0768 59.1139 91.3056 54.6499 91.3056ZM53.8129 89.7997C58.3389 90.146 63.7949 87.5107 65.9959 86.336C68.1093 85.2876 69.9125 83.7326 71.2349 81.8183C71.4401 81.4949 71.6214 81.1577 71.7774 80.8093C69.0879 81.7027 66.2787 82.21 63.4384 82.3153C60.4398 82.6243 57.416 82.6243 54.4174 82.3153L53.8129 89.7997Z" fill="#231F20"/>
<path d="M63.206 83.6706H61.656C58.2589 83.6547 55.0065 82.3324 52.6101 79.9929C50.2138 77.6534 48.8685 74.4871 48.8685 71.1866V51.429L63.6555 54.998L76.0555 51.429V71.1866C76.0555 72.826 75.7232 74.4494 75.0774 75.964C74.4317 77.4786 73.4852 78.8549 72.292 80.0141C71.0988 81.1734 69.6823 82.0929 68.1233 82.7203C66.5643 83.3477 64.8934 83.6706 63.206 83.6706V83.6706Z" fill="white"/>
<path d="M63.206 84.4536H61.656C58.0464 84.4337 54.5913 83.0276 52.0447 80.5421C49.498 78.0567 48.0665 74.6935 48.0625 71.1865V51.4289C48.0647 51.3102 48.0935 51.1935 48.1471 51.0868C48.2007 50.9801 48.2776 50.8861 48.3725 50.8114C48.4695 50.7426 48.5806 50.6949 48.6983 50.6715C48.816 50.6481 48.9375 50.6496 49.0545 50.6759L63.64 54.1847L75.8385 50.691C75.9561 50.6545 76.0811 50.6464 76.2026 50.6674C76.3241 50.6884 76.4386 50.7378 76.536 50.8114C76.6363 50.8823 76.718 50.9752 76.7746 51.0824C76.8311 51.1897 76.8609 51.3084 76.8615 51.4289V71.1865C76.8574 74.7039 75.4174 78.0761 72.8574 80.5633C70.2974 83.0505 66.8264 84.4496 63.206 84.4536ZM49.659 52.4228V71.1865C49.6672 74.2899 50.9408 77.2638 53.201 79.4568C55.4612 81.6499 58.5237 82.8835 61.718 82.8874H63.268C66.4515 82.8676 69.4982 81.627 71.745 79.4357C73.9918 77.2443 75.2569 74.2795 75.265 71.1865V52.4679L63.95 55.7358C63.8131 55.7731 63.6684 55.7731 63.5315 55.7358L49.659 52.4228Z" fill="#231F20"/>
<path d="M48.8375 62.151V61.0216H49.07L51.2555 60.5848C52.4274 60.3043 53.6291 60.1578 54.836 60.1481C56.5764 60.2064 58.306 60.4386 59.9975 60.8408C61.7677 61.269 63.6108 61.3306 65.407 61.0216C66.74 60.7806 68.0575 60.5246 69.3905 60.3138C70.378 60.1482 71.3829 60.1026 72.382 60.1782C73.9013 60.3866 75.4072 60.6782 76.8925 61.0517C76.9969 61.0666 77.091 61.1207 77.1548 61.2024C77.2186 61.284 77.2468 61.3867 77.2335 61.4884V62.4672C77.2371 62.5551 77.2159 62.6422 77.1722 62.7192C77.1285 62.7962 77.0639 62.8601 76.9855 62.904C76.7212 63.0712 76.5157 63.3129 76.3965 63.5967C76.3132 63.792 76.2458 63.9934 76.195 64.199C75.978 64.9369 75.792 65.705 75.5595 66.4429C75.3641 67.1302 74.9931 67.7584 74.481 68.2691C73.9688 68.7799 73.3321 69.1566 72.63 69.3643C71.57 69.7245 70.4301 69.8025 69.3285 69.5902C68.5027 69.4841 67.7154 69.1865 67.0328 68.7226C66.3503 68.2587 65.7927 67.6421 65.407 66.9247C65.0322 66.2212 64.726 65.4851 64.4925 64.7261C64.3493 64.3528 64.1675 63.9946 63.95 63.6569C63.9086 63.5924 63.8544 63.5365 63.7905 63.4925C63.7267 63.4486 63.6544 63.4174 63.578 63.4009C63.3047 63.378 63.0299 63.378 62.7565 63.4009C62.6302 63.3959 62.5053 63.4295 62.3997 63.4971C62.294 63.5646 62.2128 63.6627 62.1675 63.7774C62.0138 64.1027 61.8893 64.4402 61.7955 64.7863C61.5523 65.7367 61.1206 66.6319 60.5245 67.4217C59.9091 68.3916 58.9499 69.1093 57.8275 69.4396C57.4046 69.5403 56.9746 69.6108 56.541 69.6505C55.3083 69.7804 54.0617 69.6096 52.914 69.1535C52.1676 68.883 51.5571 68.3438 51.209 67.6476C50.6912 66.5548 50.2862 65.4147 50 64.2442C49.9031 63.8275 49.6946 63.4431 49.3955 63.1298C49.1093 62.8679 48.9142 62.5257 48.8375 62.151Z" fill="black"/>
<path d="M78.6594 62.151H78.365C78.1712 62.0708 78.0165 61.9214 77.9329 61.7337C77.8492 61.5459 77.843 61.3341 77.9154 61.142C78.9813 58.714 79.5308 56.1015 79.5308 53.4619C79.5308 50.8222 78.9813 48.2098 77.9154 45.7817C76.8189 43.4156 75.0908 41.3776 72.9105 39.8789C70.7302 38.3801 68.1769 37.4753 65.5154 37.2582C63.3658 37.2476 61.2256 37.5366 59.1604 38.1166C56.729 38.5779 54.4128 39.4933 52.3404 40.8122C49.5754 42.98 47.7317 46.0636 47.1634 49.4712C46.6015 52.9575 46.4766 56.4971 46.7914 60.0126C46.7999 60.2178 46.725 60.4181 46.583 60.5702C46.4409 60.7223 46.243 60.8141 46.0319 60.8258C45.9268 60.8319 45.8216 60.8175 45.7223 60.7835C45.623 60.7495 45.5316 60.6966 45.4537 60.6279C45.3757 60.5591 45.3127 60.476 45.2682 60.3832C45.2238 60.2905 45.1989 60.1901 45.1949 60.0879C44.8651 56.4313 45.0005 52.7492 45.5979 49.1248C46.233 45.3637 48.2685 41.9606 51.3174 39.5623C53.5509 38.1001 56.0573 37.0769 58.6954 36.5504C60.9075 35.9346 63.199 35.6303 65.4999 35.6469C68.4629 35.8692 71.3097 36.8617 73.7422 38.5202C76.1747 40.1788 78.1033 42.4424 79.3259 45.0739C80.4728 47.6931 81.0639 50.5101 81.0639 53.3564C81.0639 56.2028 80.4728 59.0198 79.3259 61.639C79.2765 61.7771 79.1876 61.8987 79.0695 61.9894C78.9514 62.0801 78.8092 62.1361 78.6594 62.151V62.151Z" fill="#231F20"/>
<path d="M64.415 74.8759C63.7417 74.8829 63.0687 74.8477 62.4 74.7705C62.2951 74.7614 62.1932 74.7315 62.1006 74.6828C62.0079 74.6341 61.9264 74.5675 61.8612 74.4872C61.7959 74.4068 61.7482 74.3144 61.7209 74.2155C61.6936 74.1167 61.6874 74.0135 61.7025 73.9122C61.7141 73.811 61.7461 73.7131 61.7969 73.6241C61.8477 73.5352 61.9162 73.4569 61.9984 73.3938C62.0806 73.3308 62.1749 73.2842 62.2758 73.2569C62.3766 73.2295 62.4821 73.2219 62.586 73.2345C63.6992 73.3436 64.8208 73.3436 65.934 73.2345C66.1665 72.3159 65.2055 68.6415 63.733 64.9369C63.6954 64.838 63.6781 64.7329 63.6823 64.6276C63.6864 64.5222 63.7119 64.4187 63.7573 64.3229C63.8026 64.2271 63.8669 64.1409 63.9465 64.0693C64.0261 63.9976 64.1195 63.9419 64.2213 63.9054C64.3231 63.8688 64.4312 63.852 64.5397 63.8561C64.6481 63.8601 64.7547 63.8849 64.8533 63.9289C64.9519 63.9729 65.0406 64.0354 65.1143 64.1128C65.188 64.1901 65.2454 64.2808 65.283 64.3797C66.2285 66.7741 68.383 72.5267 67.3135 74.1531C67.2163 74.3191 67.0799 74.4604 66.9156 74.5651C66.7512 74.6698 66.5635 74.7351 66.368 74.7555C65.7208 74.8407 65.0681 74.8809 64.415 74.8759V74.8759Z" fill="#231F20"/>
<path d="M58.99 78.3998C58.8052 78.3841 58.632 78.3057 58.5006 78.1784C58.3693 78.0511 58.2882 77.883 58.2716 77.7035C58.255 77.524 58.3039 77.3446 58.4097 77.1966C58.5155 77.0485 58.6715 76.9414 58.8505 76.8939C59.0985 76.8939 65.128 75.7343 68.972 76.668C69.0748 76.6927 69.1716 76.7368 69.2568 76.7978C69.3421 76.8589 69.4141 76.9356 69.4688 77.0238C69.5235 77.1119 69.5598 77.2096 69.5756 77.3113C69.5914 77.4131 69.5865 77.5168 69.561 77.6167C69.5061 77.8164 69.3737 77.9875 69.1916 78.0943C69.0094 78.201 68.7918 78.2349 68.5845 78.189C65.066 77.3306 59.2845 78.3998 59.145 78.4149L58.99 78.3998Z" fill="#231F20"/>
<path d="M65.7325 280.509L65.5775 294.83L75.9005 296.622L76.3655 293.61C77.9441 295.532 79.9052 297.125 82.1315 298.294C85.371 299.799 104.312 306.185 102.7 300.01C101.088 293.836 93.2295 291.261 89.7575 287.647C88.7526 286.668 87.9827 285.485 87.5031 284.184C87.0235 282.882 86.8459 281.493 86.983 280.117" fill="white"/>
<path d="M99.228 303.278C93.2915 303.278 83.077 299.453 81.837 298.881C79.9508 297.938 78.2549 296.673 76.8305 295.146L76.598 296.652C76.5822 296.743 76.548 296.829 76.4974 296.907C76.4469 296.984 76.381 297.051 76.3035 297.104C76.2297 297.16 76.1444 297.199 76.0535 297.22C75.9626 297.241 75.8681 297.242 75.7765 297.224L65.5 295.432C65.3357 295.404 65.1869 295.321 65.0792 295.197C64.9716 295.073 64.9121 294.917 64.911 294.755L65.066 280.433C65.0701 280.252 65.147 280.08 65.2802 279.953C65.4135 279.827 65.5926 279.756 65.779 279.756C65.8719 279.756 65.9639 279.774 66.0496 279.809C66.1352 279.844 66.2128 279.895 66.2778 279.96C66.3427 280.024 66.3938 280.101 66.4279 280.185C66.4621 280.269 66.4786 280.358 66.4765 280.449L66.337 294.182L75.358 295.688L75.699 293.399C75.7202 293.265 75.7815 293.14 75.8753 293.039C75.9692 292.938 76.0915 292.867 76.2269 292.833C76.3624 292.799 76.505 292.805 76.6372 292.85C76.7693 292.894 76.885 292.975 76.97 293.083C78.4775 294.935 80.3543 296.471 82.488 297.601C85.743 299.107 99.197 303.429 101.801 301.351C102.034 301.17 102.266 300.869 102.065 300.101C101.057 296.261 97.4145 293.911 94.0355 291.637C92.3247 290.609 90.7344 289.402 89.2925 288.038C88.2158 286.995 87.3915 285.733 86.8795 284.342C86.3674 282.951 86.1804 281.467 86.332 279.997C86.3822 279.836 86.491 279.698 86.6382 279.609C86.7854 279.52 86.9608 279.486 87.1317 279.514C87.3026 279.542 87.4573 279.629 87.5669 279.759C87.6764 279.89 87.7334 280.054 87.727 280.223C87.6067 281.488 87.7749 282.763 88.2196 283.958C88.6643 285.152 89.3747 286.237 90.3 287.135C91.6736 288.412 93.18 289.548 94.795 290.523C98.298 292.827 102.266 295.447 103.398 299.784C103.571 300.248 103.595 300.752 103.465 301.228C103.334 301.705 103.057 302.131 102.669 302.45C101.648 303.088 100.438 303.38 99.228 303.278V303.278Z" fill="#231F20"/>
<path d="M55.5645 280.509L55.7195 294.83L45.35 296.547L44.885 293.535C43.3186 295.464 41.3681 297.067 39.15 298.248C35.9105 299.754 16.954 306.139 18.5815 299.965C20.209 293.791 28.052 291.216 31.524 287.602C32.529 286.623 33.2988 285.44 33.7785 284.138C34.2581 282.837 34.4357 281.448 34.2985 280.072" fill="white"/>
<path d="M22.1 303.278C20.8953 303.379 19.6904 303.087 18.6745 302.45C18.2869 302.132 18.0092 301.705 17.879 301.229C17.7487 300.752 17.7721 300.248 17.946 299.784C19.0775 295.447 23.0455 292.827 26.5485 290.523C28.1636 289.548 29.67 288.412 31.0435 287.135C31.9701 286.244 32.6826 285.165 33.13 283.975C33.5775 282.785 33.7489 281.514 33.632 280.253C33.6052 280.073 33.6518 279.891 33.7619 279.744C33.8721 279.598 34.0369 279.499 34.221 279.47C34.3128 279.452 34.4072 279.453 34.4986 279.472C34.59 279.491 34.6766 279.527 34.7532 279.579C34.8299 279.631 34.8949 279.698 34.9446 279.775C34.9943 279.851 35.0276 279.937 35.0425 280.027C35.1768 281.494 34.9785 282.971 34.4617 284.355C33.9448 285.739 33.122 286.996 32.051 288.038C30.6092 289.402 29.0188 290.609 27.308 291.637C23.8515 293.911 20.2865 296.261 19.279 300.101C19.0775 300.869 19.279 301.17 19.5425 301.351C22.1465 303.429 35.6005 299.107 38.8555 297.601C40.9892 296.471 42.8661 294.935 44.3735 293.083C44.4597 292.977 44.5762 292.897 44.7084 292.854C44.8406 292.812 44.9829 292.807 45.1175 292.842C45.2496 292.876 45.3685 292.947 45.4594 293.046C45.5503 293.145 45.6093 293.268 45.629 293.399L45.9855 295.688L55.0065 294.182L54.8515 280.449C54.8515 280.265 54.9267 280.089 55.0604 279.959C55.1941 279.829 55.3754 279.756 55.5645 279.756C55.751 279.756 55.93 279.827 56.0633 279.953C56.1966 280.08 56.2735 280.252 56.2775 280.433L56.4325 294.755C56.4315 294.917 56.3719 295.073 56.2643 295.197C56.1567 295.321 56.0078 295.404 55.8435 295.432L45.5205 297.224C45.4265 297.243 45.3295 297.241 45.2361 297.22C45.1426 297.2 45.0547 297.16 44.978 297.104C44.9028 297.051 44.8394 296.983 44.7915 296.905C44.7436 296.828 44.7121 296.742 44.699 296.652L44.4665 295.146C43.0422 296.673 41.3462 297.938 39.46 298.881C38.22 299.453 27.99 303.278 22.1 303.278Z" fill="#231F20"/>
<path d="M87.6185 182.91H69.6695C69.5012 182.913 69.3368 182.861 69.2021 182.763C69.0675 182.665 68.9702 182.526 68.9255 182.368L64.167 165.547L59.982 181.299C59.9378 181.462 59.8394 181.607 59.7021 181.71C59.5648 181.814 59.3963 181.87 59.2225 181.871V181.871L34.655 181.269C34.5539 181.267 34.4543 181.245 34.3618 181.206C34.2694 181.166 34.1861 181.108 34.1168 181.037C34.0475 180.965 33.9936 180.881 33.9583 180.789C33.923 180.697 33.9069 180.599 33.911 180.501C33.9151 180.304 33.9985 180.116 34.1434 179.978C34.2883 179.84 34.4832 179.763 34.686 179.763L58.6335 180.35L63.392 162.43C63.4337 162.269 63.5298 162.127 63.6647 162.026C63.7997 161.925 63.9657 161.871 64.136 161.873V161.873C64.3064 161.871 64.4724 161.925 64.6073 162.026C64.7423 162.127 64.8383 162.269 64.88 162.43L70.2585 181.404H87.6185C87.8241 181.404 88.0212 181.484 88.1665 181.625C88.3119 181.766 88.3935 181.958 88.3935 182.157C88.3935 182.256 88.3735 182.354 88.3345 182.446C88.2956 182.537 88.2385 182.62 88.1665 182.69C88.0946 182.76 88.0091 182.815 87.9151 182.853C87.8211 182.891 87.7203 182.91 87.6185 182.91Z" fill="white"/>
<path d="M357.195 216.673C357.363 214.282 356.826 211.895 355.645 209.791C354.507 208.395 353.447 206.943 352.467 205.439C351.119 202.638 352.064 199.34 351.754 196.268C351.476 193.694 350.307 191.289 348.437 189.446C346.794 187.82 344.655 186.705 343.074 185.019C340.486 182.233 339.742 178.332 338.269 174.869C336.178 169.972 332.563 165.834 327.931 163.032C330.752 168.559 324.319 175.561 327.233 181.103C328.148 182.835 329.915 184.115 330.597 185.937C332.224 190.455 326.784 195.184 328.52 199.581C329.388 201.779 331.821 203.059 332.953 205.138C334.503 207.954 333.278 211.357 333.402 214.535C333.573 218.917 336.316 222.832 339.602 225.859C341.633 227.756 343.88 229.383 346.081 231.085C348.701 233.133 349.801 235.271 352.111 232.003C355.307 227.484 357.074 222.155 357.195 216.673V216.673Z" fill="#231F20"/>
<path d="M360.124 219.188C359.287 215.799 358.682 212.125 360.124 208.933C361.674 205.318 365.735 202.758 366.2 198.843C366.51 196.283 365.162 193.693 365.689 191.163C366.216 188.633 368.354 186.901 370.106 185.034C374.141 180.723 376.541 175.203 376.911 169.387C379.615 172.507 381.801 176.018 383.389 179.793C384.168 181.693 384.488 183.741 384.324 185.78C384.16 187.819 383.517 189.795 382.444 191.554C381.767 192.339 381.213 193.217 380.801 194.16C380.011 196.644 382.211 198.978 383.343 201.343C384.018 202.695 384.299 204.202 384.157 205.698C384.015 207.195 383.455 208.626 382.537 209.836C380.243 212.622 375.794 213.706 374.663 217.11C374.385 218.376 374.255 219.67 374.275 220.965C374.032 223.215 373.102 225.343 371.606 227.077C370.109 228.81 368.113 230.069 365.875 230.693C363.162 231.325 363.209 230.286 362.775 228.058C362.046 225.061 360.868 222.17 360.124 219.188Z" fill="#231F20"/>
<path d="M351.459 194.822C349.522 188.317 348.747 181.525 346.701 175.034C344.957 169.978 342.838 165.051 340.361 160.292L348.669 163.695C351.335 164.779 354.218 166.074 355.474 168.604C357.659 173.001 353.738 178.649 356.032 183.001C357.029 184.414 358.127 185.758 359.318 187.022C361.767 190.35 361.395 194.943 360.046 198.828C359.473 200.484 356.946 209.128 354.699 206.734C353.8 205.77 353.722 202.216 353.35 200.876C352.761 198.843 352.048 196.855 351.459 194.822Z" fill="#231F20"/>
<path d="M355.939 281.277C354.281 270.645 349.088 233.163 349.042 232.786L350.592 232.575C350.592 232.952 355.831 270.434 357.489 281.051L355.939 281.277Z" fill="#231F20"/>
<path d="M358 291.321H356.45C356.543 278.687 361.968 230.392 365.099 227.079L366.246 228.088C363.859 230.603 358.109 277.286 358 291.321Z" fill="#231F20"/>
<path d="M360.822 288.912L359.272 288.836C360.512 261.625 354.622 204.505 354.498 203.873L356.048 203.722C356.11 204.294 362.062 261.579 360.822 288.912Z" fill="#231F20"/>
<path d="M341.757 255.631H372.679L370.525 286.05C370.344 288.587 369.18 290.963 367.267 292.699C365.354 294.435 362.834 295.401 360.217 295.402H354.234C351.617 295.401 349.097 294.435 347.184 292.699C345.271 290.963 344.107 288.587 343.927 286.05L341.757 255.631Z" fill="white"/>
<path d="M360.217 296.185H354.234C351.415 296.177 348.704 295.135 346.643 293.266C344.582 291.398 343.324 288.842 343.121 286.111L340.966 255.691C340.959 255.584 340.974 255.477 341.012 255.376C341.049 255.275 341.107 255.182 341.183 255.104C341.257 255.028 341.346 254.967 341.444 254.926C341.543 254.885 341.649 254.863 341.757 254.863H372.679C372.79 254.861 372.899 254.881 373.001 254.922C373.103 254.963 373.195 255.025 373.271 255.103C373.347 255.181 373.406 255.274 373.442 255.375C373.479 255.476 373.494 255.584 373.485 255.691L371.315 286.111C371.115 288.841 369.861 291.397 367.802 293.265C365.744 295.134 363.034 296.177 360.217 296.185V296.185ZM342.625 256.414L344.717 286.005C344.893 288.342 345.971 290.529 347.736 292.126C349.501 293.724 351.822 294.614 354.234 294.619H360.217C362.627 294.614 364.947 293.723 366.709 292.125C368.471 290.527 369.546 288.341 369.719 286.005L371.827 256.414H342.625Z" fill="#231F20"/>
</svg>
