<svg width="620" height="453" viewBox="0 0 620 453" fill="none" xmlns="http://www.w3.org/2000/svg">
<path opacity="0.45" d="M305.598 397.015C427.755 397.015 526.783 391.734 526.783 385.219C526.783 378.705 427.755 373.424 305.598 373.424C183.441 373.424 84.4131 378.705 84.4131 385.219C84.4131 391.734 183.441 397.015 305.598 397.015Z" fill="#E6E6E6"/>
<path opacity="0.3" d="M157.077 108.186C107.337 125.916 70.4474 170.904 63.1624 225.223C56.9624 271.037 84.1494 344.709 172.67 353.5C303.893 366.542 499.72 376.76 542.5 299.932C571.717 247.431 567.3 125.736 451.499 93.986C386.074 76.03 254.2 73.5657 157.077 108.186Z" fill="#E6E6E6"/>
<path d="M499.875 116.57C519.576 89.7786 509.532 60.8687 509.532 60.8687C474.409 77.8781 468.271 109.192 467.93 127.329C462.458 76.2402 415.881 67.5552 415.881 67.5552C414.331 96.5103 428.591 115.323 442.603 126.743C407.247 116.134 375.953 136.945 375.953 136.945C411.076 164.488 441.564 155.878 457.25 147.839C445.005 161.888 422.716 191.94 412.889 244.531C405.139 285.808 405.139 382.875 405.139 382.875H439.751C439.751 382.875 419.027 232.165 471.65 147.118C499.674 194.149 547.414 181.422 547.414 181.422C539.044 162.61 525.946 151.701 512.709 145.36C542.624 140.131 556.884 116.81 556.884 116.81C534.394 107.795 514.895 110.454 499.875 116.57Z" fill="#E6E6E6"/>
<path d="M352.377 137.907H328.708V174.24H352.377V137.907Z" fill="#E6E6E6"/>
<path d="M349.804 147.779H331.281V170.393H349.804V147.779Z" fill="#FFD200"/>
<path d="M195.3 119.2C195.3 119.2 199.95 129.342 200.694 136.915C200.756 137.645 200.668 138.38 200.436 139.077C200.205 139.775 199.834 140.421 199.344 140.979C198.855 141.538 198.257 141.997 197.584 142.331C196.911 142.665 196.177 142.867 195.424 142.926C191.487 143.211 186.124 142.49 182.869 137.351L176.328 129.282C175.196 127.53 174.652 125.481 174.771 123.417C174.89 121.353 175.667 119.375 176.995 117.757C181.536 111.461 192.727 112.874 195.3 119.2Z" fill="#F4A28C"/>
<path d="M177.49 130.77L184.155 166.637L204.29 161.663L191.347 137.561L177.49 130.77Z" fill="#F4A28C"/>
<path d="M192.742 120.537C189.444 121.8 186.006 122.688 182.497 123.181C183.984 124.276 185.108 125.768 185.73 127.474C186.353 129.18 186.446 131.026 186 132.783C185.603 134.496 184.599 136.02 183.164 137.091C181.728 138.161 179.951 138.71 178.141 138.643L173.491 125.12C172.751 123.205 172.561 121.132 172.94 119.121C173.32 117.11 174.255 115.237 175.646 113.7C176.84 112.357 178.124 111.092 179.49 109.914C182.931 107.013 189.735 107.615 192.386 103.768C192.655 103.385 193.022 103.076 193.45 102.872C193.879 102.667 194.355 102.572 194.832 102.598C195.309 102.624 195.771 102.769 196.173 103.018C196.576 103.268 196.905 103.614 197.129 104.023C199.237 107.915 200.802 114.632 195.889 118.809C194.947 119.551 193.884 120.136 192.742 120.537Z" fill="#24285B"/>
<path d="M186.992 132.077C186.992 132.077 185.442 128.065 182.435 129.447C179.428 130.83 181.613 136.63 186.062 135.728L186.992 132.077Z" fill="#F4A28C"/>
<path d="M197.904 125.736L202.368 128.741C202.624 128.91 202.832 129.14 202.972 129.409C203.111 129.678 203.178 129.976 203.165 130.277C203.153 130.578 203.062 130.87 202.901 131.127C202.74 131.384 202.514 131.597 202.244 131.746L198.4 133.925L197.904 125.736Z" fill="#F4A28C"/>
<path opacity="0.31" d="M194.417 142.715C191.768 142.95 189.106 142.428 186.76 141.212C186.76 141.212 189.302 147.418 198.664 151.22L194.417 142.715Z" fill="#CE8172"/>
<path d="M184.155 166.636L204.305 161.663C204.305 161.663 247.008 159.679 258.075 195.516C269.142 231.353 286.161 281.164 286.161 281.164L231.353 299.977C231.353 299.977 103.85 214.735 184.155 166.636Z" fill="#68E1FD"/>
<path opacity="0.08" d="M187.039 198.882C187.039 198.882 177.739 229.7 213.916 248.077C250.093 266.454 261.284 286.454 261.284 286.454L286.084 281.119L269.84 234.013L188.217 198.101L187.039 198.882Z" fill="black"/>
<path d="M334.304 157.38C323.996 151.28 317.068 169.146 317.068 169.146L291.198 219.828C290.437 221.329 289.344 222.65 287.997 223.695C286.65 224.741 285.082 225.487 283.405 225.88C281.728 226.273 279.982 226.303 278.291 225.969C276.6 225.635 275.006 224.944 273.621 223.946C259.532 213.596 247.277 201.091 237.336 186.922C224.936 169.491 210.598 167.884 200.136 170.062C195.499 171.027 191.403 173.643 188.66 177.393C185.916 181.144 184.723 185.756 185.318 190.317C191.053 236.297 250.418 251.638 280.72 256.432C285.583 257.213 290.575 256.339 294.85 253.959C299.124 251.579 302.417 247.84 304.172 243.374L330.77 175.757C330.77 175.757 344.596 163.391 334.304 157.38Z" fill="#F4A28C"/>
<path d="M231.849 300.248L334.351 262.562C340.06 260.686 346.302 261.07 351.721 263.63C357.139 266.19 361.297 270.721 363.289 276.236L375.922 311.171L363.367 314.402L352.517 293.441C351.739 291.936 350.632 290.613 349.275 289.564C347.917 288.514 346.34 287.764 344.654 287.364C342.967 286.963 341.211 286.923 339.507 287.246C337.803 287.569 336.192 288.247 334.785 289.234C310.558 306.258 241.599 347.805 231.849 300.248Z" fill="#24285B"/>
<path d="M363.289 276.236C361.297 270.721 357.139 266.19 351.72 263.63C346.302 261.07 340.059 260.686 334.35 262.562L330.956 263.81C330.878 273.486 330.258 283.148 329.514 292.81C331.421 291.533 333.172 290.33 334.738 289.234C336.145 288.247 337.756 287.569 339.46 287.246C341.164 286.923 342.921 286.963 344.607 287.364C346.294 287.764 347.87 288.514 349.228 289.564C350.586 290.613 351.692 291.936 352.47 293.441L363.32 314.402L375.875 311.171L363.289 276.236Z" fill="#F4A28C"/>
<path opacity="0.08" d="M363.289 276.236C361.297 270.721 357.139 266.19 351.72 263.63C346.302 261.07 340.059 260.686 334.35 262.562L330.956 263.81C330.878 273.486 330.258 283.148 329.514 292.81C331.421 291.533 333.172 290.33 334.738 289.234C336.145 288.247 337.756 287.569 339.46 287.246C341.164 286.923 342.921 286.963 344.607 287.364C346.294 287.764 347.87 288.514 349.228 289.564C350.586 290.613 351.692 291.936 352.47 293.441L363.32 314.402L375.875 311.171L363.289 276.236Z" fill="black"/>
<path d="M252.743 321.915L329.669 322.982L334.35 300.037L297.228 287.896L252.743 321.915Z" fill="#24285B"/>
<path d="M334.35 300.037L424.793 313.561C424.793 313.561 435.829 297.408 438.247 300.037C440.665 302.667 427.908 324.379 427.908 324.379L329.669 322.982L334.35 300.037Z" fill="#F4A28C"/>
<path d="M352.377 143.091C355.579 143.091 358.174 140.575 358.174 137.471C358.174 134.367 355.579 131.851 352.377 131.851C349.175 131.851 346.58 134.367 346.58 137.471C346.58 140.575 349.175 143.091 352.377 143.091Z" fill="#FFD200"/>
<path d="M133.579 183.406C130.649 185.279 128.563 188.162 127.743 191.471C126.922 194.78 127.43 198.267 129.161 201.226L200.027 322.321H231.849L153.233 187.989C152.299 186.389 151.036 184.993 149.522 183.886C148.009 182.78 146.276 181.987 144.433 181.557C142.59 181.128 140.675 181.07 138.808 181.388C136.941 181.706 135.161 182.393 133.579 183.406V183.406Z" fill="#FFD200"/>
<path d="M491.552 342.471V322.321H154.365V342.471H491.552Z" fill="#FFD200"/>
<path d="M186.233 382.004H177.227L195.533 332.403H204.554L186.233 382.004Z" fill="#FFD200"/>
<path d="M464.008 382.004H473.014L454.708 332.403H445.687L464.008 382.004Z" fill="#FFD200"/>
<path d="M160.828 384.423C160.828 384.423 168.004 374.416 157.309 371.666C146.614 368.916 159.882 355.423 149.916 353.635C139.949 351.847 141.623 366.121 141.623 366.121C141.623 366.121 134.741 360.381 129.998 365.205C125.255 370.028 131.889 375.332 131.889 375.332C131.889 375.332 122.31 378.548 128.278 384.348L160.828 384.423Z" fill="#E6E6E6"/>
<path d="M146.444 385.775C146.444 385.775 151.001 378.262 157.713 379.149C164.424 380.035 163.711 385.775 163.711 385.775H146.444Z" fill="#C9C9C9"/>
</svg>
