<svg width="620" height="471" viewBox="0 0 620 471" fill="none" xmlns="http://www.w3.org/2000/svg">
<path d="M185.798 51.1158C176.676 26.3108 195.034 3.27096e-06 221.463 3.06353e-06L561.174 3.97208e-07C586.49 1.98512e-07 604.728 24.2883 597.666 48.5992L550.474 211.078C545.42 228.475 528.788 239.886 510.737 238.34L270.395 217.743C255.703 216.484 243.065 206.838 237.975 192.998L185.798 51.1158Z" fill="#EF3B2F"/>
<path d="M257.44 341.327C257.44 341.327 254.975 347.878 259.331 352.049C263.686 356.221 261.082 361.672 255.874 359.413C250.666 357.154 244.342 343.104 244.342 343.104L250.279 336.794L257.44 341.327Z" fill="#68E1FD"/>
<path opacity="0.08" d="M257.44 341.327C257.44 341.327 254.975 347.878 259.331 352.049C263.686 356.221 261.082 361.672 255.874 359.413C250.666 357.154 244.342 343.104 244.342 343.104L250.279 336.794L257.44 341.327Z" fill="black"/>
<path d="M286.068 310.004L258.85 342.396L251.053 336.915L277.31 283.907L286.068 294.794V310.004Z" fill="#24285B"/>
<path opacity="0.08" d="M286.068 294.794V310.004L258.85 342.396" fill="black"/>
<path d="M252.82 336.162C252.82 336.162 250.356 342.698 254.711 346.884C259.067 351.071 256.463 356.492 251.27 354.248C246.078 352.004 239.723 337.939 239.723 337.939L245.659 331.614L252.82 336.162Z" fill="#68E1FD"/>
<path d="M185.333 251.228C185.333 251.228 181.613 273.365 196.586 277.13C206.336 279.585 234.422 280.428 252.882 280.729C254.708 280.756 256.496 281.23 258.083 282.106C259.67 282.983 261.003 284.235 261.96 285.745C262.917 287.256 263.465 288.976 263.556 290.748C263.646 292.519 263.275 294.284 262.477 295.879L244.543 331.84L252.929 338.376L285.324 299.839C287.86 296.827 289.642 293.284 290.532 289.49C291.421 285.696 291.393 281.753 290.45 277.97C289.507 274.188 287.674 270.67 285.096 267.692C282.517 264.714 279.264 262.357 275.59 260.806L252.929 251.228H185.333Z" fill="#24285B"/>
<path d="M319.424 212.225C319.424 212.225 338.024 208.415 334.924 218.58L313.425 218.851L319.424 212.225Z" fill="#F4A28C"/>
<path opacity="0.08" d="M319.424 212.225C319.424 212.225 338.024 208.415 334.924 218.58L313.425 218.851L319.424 212.225Z" fill="black"/>
<path d="M279.682 130.077C283.204 128.843 287.015 128.61 290.668 129.406C294.321 130.201 297.665 131.993 300.307 134.569C302.949 137.146 304.78 140.401 305.586 143.953C306.391 147.505 306.137 151.207 304.854 154.624L304.591 155.256C296.05 176.671 251.1 202.798 251.1 202.798L311.767 212.812L308.9 226.366C308.9 226.366 244.807 238.323 221.34 219.694C199.78 202.663 229.865 147.621 279.682 130.077Z" fill="#68E1FD"/>
<path opacity="0.08" d="M279.682 130.077C283.204 128.843 287.015 128.61 290.668 129.406C294.321 130.201 297.665 131.993 300.307 134.569C302.949 137.146 304.78 140.401 305.586 143.953C306.391 147.505 306.137 151.207 304.854 154.624L304.591 155.256C296.05 176.671 251.1 202.798 251.1 202.798L311.767 212.812L308.9 226.366C308.9 226.366 244.807 238.323 221.34 219.694C199.78 202.663 229.865 147.621 279.682 130.077Z" fill="black"/>
<path opacity="0.28" d="M383.61 216.276H430.497V224.89H383.61V216.276Z" fill="#C9C9C9"/>
<path opacity="0.28" d="M399.885 207.662H430.497V216.276H399.885V207.662Z" fill="#C9C9C9"/>
<path opacity="0.45" d="M313.162 447.555C197.605 447.555 103.927 433.618 103.927 416.427C103.927 399.236 197.605 385.3 313.162 385.3C428.719 385.3 522.396 399.236 522.396 416.427C522.396 433.618 428.719 447.555 313.162 447.555Z" fill="#E6E6E6"/>
<path d="M343.728 114.296C343.728 114.296 340.628 125.063 336.226 131.343C335.792 131.949 335.239 132.467 334.599 132.866C333.959 133.265 333.244 133.538 332.495 133.668C331.746 133.798 330.979 133.783 330.236 133.625C329.493 133.466 328.789 133.166 328.166 132.743C324.942 130.529 321.253 126.614 322.167 120.696L322.4 110.35C322.676 108.294 323.603 106.372 325.052 104.851C326.502 103.329 328.402 102.283 330.491 101.857C338.225 99.7936 345.913 107.835 343.728 114.296Z" fill="#F4A28C"/>
<path d="M333.328 107.338L299.197 122.759L309.287 140.423L329.546 122.578L333.328 107.338Z" fill="#F4A28C"/>
<path d="M344.41 114.311C343.651 115.229 342.023 114.115 340.892 113.768C337.509 112.703 334.267 111.252 331.235 109.446C331.652 111.212 331.529 113.057 330.882 114.755C330.235 116.454 329.092 117.932 327.593 119.009C322.307 122.819 319.347 114.491 319.347 114.491L322.974 105.335L323.299 102.745C323.585 99.4996 323.243 96.2308 322.292 93.1073C322.15 92.3845 322.198 91.6388 322.431 90.9387C322.663 90.2386 323.074 89.6068 323.625 89.1015C327.174 85.0054 330.677 86.4963 334.475 91.8122C338.272 97.1281 340.892 87.1137 346.053 90.231C351.215 93.3482 345.542 97.2636 349.355 99.3719C353.168 101.48 360.406 102.67 356.857 107.835C356.274 108.75 355.463 109.506 354.498 110.033C353.532 110.559 352.446 110.84 351.339 110.847C350.03 110.852 348.74 111.145 347.564 111.703C346.389 112.261 345.358 113.07 344.55 114.07L344.41 114.311Z" fill="#24285B"/>
<path d="M328.863 119.13C328.863 119.13 330.32 115.079 327.081 114.265C323.841 113.452 321.702 119.295 325.732 121.373L328.863 119.13Z" fill="#F4A28C"/>
<path d="M306.993 128.903L304.575 126.539C299.954 122.014 294.403 118.485 288.285 116.184C282.166 113.882 275.617 112.859 269.065 113.181C253.565 113.994 233.306 118.919 217.372 136.267C187.411 168.885 176.034 206.533 185.334 251.213H252.929C252.929 251.213 258.711 223.61 286.084 218.58C313.457 213.55 334.63 164.699 306.993 128.903Z" fill="#68E1FD"/>
<path opacity="0.58" d="M438.48 208.355C438.48 208.355 452.802 204.605 455.979 191.669C455.979 191.669 433.814 187.152 433.086 209.469L438.48 208.355Z" fill="#68E1FD"/>
<path opacity="0.73" d="M436.728 206.955C436.728 206.955 446.803 191.639 438.061 177.243C438.061 177.243 421.135 187.573 428.56 206.955H436.728Z" fill="#68E1FD"/>
<path d="M434.155 206.954C434.155 206.954 428.932 190.721 412.967 187.573C412.967 187.573 409.867 198.115 423.228 206.954H434.155Z" fill="#68E1FD"/>
<path d="M444.54 206.638L441.549 225.914H423.274L420.655 206.638H444.54Z" fill="#24285B"/>
<path opacity="0.08" d="M306.993 128.903C306.993 128.903 284.58 122.141 260.4 145.061C192.076 209.816 267.545 227.269 267.545 227.269C267.545 227.269 254.804 238.805 252.944 251.228H185.349C185.349 251.228 171.631 202.708 200.523 158.268C200.523 158.268 224.285 113.708 269.08 113.196C276.206 112.897 283.31 114.153 289.87 116.871C296.431 119.589 302.282 123.7 306.993 128.903V128.903Z" fill="black"/>
<path d="M341.434 120.982L342.907 126.087C342.99 126.378 342.995 126.685 342.924 126.979C342.852 127.273 342.705 127.544 342.496 127.768C342.287 127.992 342.023 128.161 341.729 128.259C341.435 128.358 341.12 128.382 340.814 128.331L336.412 127.608L341.434 120.982Z" fill="#F4A28C"/>
<path d="M269.607 127.141C273.129 125.907 276.939 125.674 280.593 126.469C284.246 127.265 287.589 129.056 290.232 131.633C292.874 134.209 294.705 137.465 295.511 141.017C296.316 144.569 296.062 148.271 294.779 151.687C294.686 151.898 294.608 152.109 294.515 152.335C285.944 173.734 241.01 199.862 241.01 199.862L301.677 209.876L298.809 223.429C298.809 223.429 234.717 235.371 211.25 216.743C189.705 199.726 219.79 144.61 269.607 127.141Z" fill="#68E1FD"/>
<path opacity="0.46" d="M269.607 127.141C273.129 125.907 276.939 125.674 280.593 126.469C284.246 127.265 287.589 129.056 290.232 131.633C292.874 134.209 294.705 137.465 295.511 141.017C296.316 144.569 296.062 148.271 294.779 151.687C294.686 151.898 294.608 152.109 294.515 152.335C285.944 173.734 241.01 199.862 241.01 199.862L301.677 209.876L298.809 223.429C298.809 223.429 234.717 235.371 211.25 216.743C189.705 199.726 219.79 144.61 269.607 127.141Z" fill="white"/>
<path d="M300.002 211.969C300.002 211.969 319.129 206.096 320.85 212.707C322.57 219.318 299.057 222.315 299.057 222.315L300.002 211.969Z" fill="#F4A28C"/>
<path d="M277.31 224.89H455.979V241.455H277.31V224.89Z" fill="#E6E6E6"/>
<path d="M306.575 224.89L307.412 218.911L374.48 218.098L404.411 160.497L412.161 162.756L382.711 224.89H306.575Z" fill="#FFD200"/>
<path d="M205.05 301.18H214.861V418.731H205.05V301.18Z" fill="#FFD200"/>
<path opacity="0.08" d="M205.05 301.18H214.861V418.731H205.05V301.18Z" fill="black"/>
<path d="M214.861 398.808H205.05L183.04 412.06C182.356 412.473 181.829 413.091 181.539 413.821C181.249 414.55 181.211 415.352 181.432 416.104C181.653 416.856 182.12 417.518 182.762 417.989C183.405 418.461 184.188 418.716 184.993 418.716H230.811C231.584 418.713 232.337 418.475 232.964 418.035C233.591 417.595 234.061 416.975 234.307 416.262C234.553 415.55 234.564 414.78 234.337 414.062C234.11 413.343 233.657 412.712 233.043 412.256L214.861 398.808Z" fill="#FFD200"/>
<path d="M171.972 274.073H246.233V301.18H171.972V274.073Z" fill="#FFD200"/>
<path d="M286.068 241.44H455.979V416.096H286.068V241.44Z" fill="#C9C9C9"/>
<path opacity="0.08" d="M322.772 118.708L306.993 128.903L299.243 122.759L319.78 113.482L323.02 105.305C323.77 101.233 323.536 97.047 322.338 93.0771C322.338 93.0771 329.018 96.3751 326.693 105.531C325.706 110.007 324.396 114.41 322.772 118.708Z" fill="black"/>
<path opacity="0.08" d="M289.943 131.373C289.943 131.373 266.77 130.951 247.783 154.097C228.795 177.243 211.172 190.435 219.108 204.169C227.044 217.903 262.911 227.179 262.911 227.179C262.911 227.179 213.853 229.679 205.917 209.771C205.917 209.771 199.128 197.166 212.706 173.749C212.706 173.749 232.856 138.21 269.607 127.141C269.607 127.141 281.728 122.397 289.943 131.373Z" fill="black"/>
<path d="M144.398 135.183C121.781 135.183 103.447 117.37 103.447 95.3964C103.447 73.423 121.781 55.6101 144.398 55.6101C167.015 55.6101 185.349 73.423 185.349 95.3964C185.349 117.37 167.015 135.183 144.398 135.183Z" fill="#E6E6E6"/>
<path d="M144.398 122.156C129.186 122.156 116.854 110.176 116.854 95.3963C116.854 80.6171 129.186 68.6362 144.398 68.6362C159.61 68.6362 171.941 80.6171 171.941 95.3963C171.941 110.176 159.61 122.156 144.398 122.156Z" fill="#F2F2F2"/>
<path d="M144.398 76.8735V95.3963L136.772 101.661" stroke="#A5A5A5" stroke-width="2.03" stroke-linecap="round" stroke-linejoin="round"/>
<path opacity="0.08" d="M403.775 224.89C403.775 224.89 438.65 310.381 403.775 355.904C368.9 401.428 333.327 416.141 333.327 416.141H455.979V224.89H403.775Z" fill="black"/>
<path d="M389.453 108.197H435.891V134.625H389.453V108.197Z" fill="#E6E6E6"/>
<path d="M416.268 134.625L412.563 145.332L409.122 134.625H416.268Z" fill="#E6E6E6"/>
<path d="M422.948 123.421C421.211 123.421 419.802 122.053 419.802 120.364C419.802 118.676 421.211 117.307 422.948 117.307C424.686 117.307 426.095 118.676 426.095 120.364C426.095 122.053 424.686 123.421 422.948 123.421Z" fill="#C9C9C9"/>
<path d="M412.687 123.421C410.95 123.421 409.541 122.053 409.541 120.364C409.541 118.676 410.95 117.307 412.687 117.307C414.425 117.307 415.834 118.676 415.834 120.364C415.834 122.053 414.425 123.421 412.687 123.421Z" fill="#C9C9C9"/>
<path d="M402.396 123.421C400.658 123.421 399.249 122.053 399.249 120.364C399.249 118.676 400.658 117.307 402.396 117.307C404.133 117.307 405.542 118.676 405.542 120.364C405.542 122.053 404.133 123.421 402.396 123.421Z" fill="#C9C9C9"/>
</svg>
