<svg xmlns="http://www.w3.org/2000/svg" viewBox="0 0 50.08 35.03"><defs><style>.cls-1{fill:none;}.cls-2{fill:#fabdb7;}.cls-3{fill:#5878bb;}.cls-4{opacity:0.62;}</style></defs><title>first-trustee</title><g id="Layer_2" data-name="Layer 2"><g id="Layer_1-2" data-name="Layer 1"><rect class="cls-1" width="50.08" height="35.03"/><polygon class="cls-2" points="46.84 23.86 37.83 23.86 40.48 11.1 49.49 11.1 46.84 23.86"/><path class="cls-3" d="M45.85,16.66c-.15-.11-.32-.26-.32-.26a2.26,2.26,0,0,0-.72.08c-.32.13-.6.24-.53.69s-.41.48-.84.5a4.56,4.56,0,0,1-1.76-.23,3.5,3.5,0,0,1-2.23-4s.13-.84.13-.84,1.54.26,2.41.45a3.77,3.77,0,0,1,.71-.23,1.89,1.89,0,0,1,2,.49A4.1,4.1,0,0,1,46,15c.16.52.64.86.81,1.44a1.48,1.48,0,0,1,.05.86C46.8,17.43,45.85,16.66,45.85,16.66Z"/><path class="cls-3" d="M40.91,19.67a7.08,7.08,0,0,1-1.1.5,5.59,5.59,0,0,1-1,.11s.61-3,.88-4.24a3.14,3.14,0,0,0,1.27,1.33,5.81,5.81,0,0,0,2,.6c.7.14.79.2.64.88a1.17,1.17,0,0,0,.25,1.08,2.35,2.35,0,0,1,.23,2.72c-.07.14-.11.28-.18.46a6.28,6.28,0,0,1-1.21-1c.26-.23.73-.74.73-.74s-.73-.46-1.3-.87Z"/><path class="cls-3" d="M42.22,20.93a12.93,12.93,0,0,1-.33,1.49c-.07.25.1.61-.18.75a1.8,1.8,0,0,1-1.15,0,.36.36,0,0,1-.32-.46,2,2,0,0,1,.12-.34A3.92,3.92,0,0,0,40.87,20Z"/><path class="cls-3" d="M46.27,18.65c-.21.47-.42.94-.61,1.41-.12.28-.24.59.16.77a.16.16,0,0,1,.11.21c0,.15-.17.17-.28.17-.52,0-.76-.36-.74-1.27.07-.44.19-1,.27-1.63,0-.21.12-.57.12-.57s.33.18.51.25.64.23.64.23Z"/><path class="cls-3" d="M19.7,18.64c.31.24.7,0,1,.16,0,.81-.06.86-.75.78a3,3,0,0,1-.8-.16,12.77,12.77,0,0,0-2.26-.84c-.86-.23-1.1-1-1.09-1.8a5.8,5.8,0,0,1,.58-2.45,3.29,3.29,0,0,1,4.08-1.62,1.63,1.63,0,0,1,1.15,1.67c0,1.63-.34,3.14-1.88,4.09C19.72,18.49,19.72,18.57,19.7,18.64Zm-2.64-2.36c0,.92.14,1.31.61,1.55a1.64,1.64,0,0,0,1.77-.3,2.28,2.28,0,0,0,.65-1,6.13,6.13,0,0,0,.35-1.69,1.3,1.3,0,0,0-1.91-1.37,1.89,1.89,0,0,0-1,.93A4.57,4.57,0,0,0,17.06,16.28Z"/><path class="cls-3" d="M13.37,16.61c.24-1.15.48-2.31.7-3.46.07-.34.17-.57.58-.55s.45.12.38.45c-.36,1.75-.72,3.49-1.09,5.24,0,.22-.15.4-.4.42s-.56,0-.71-.27-.23-.5-.34-.75c-.42-1-.84-2-1.31-3.09a1.39,1.39,0,0,0-.28.86c-.1.93-.35,1.84-.54,2.76,0,.26-.12.45-.42.5s-.59-.09-.52-.5c.09-.57.23-1.12.35-1.69.23-1.12.48-2.24.71-3.37.06-.29.13-.53.48-.55a.63.63,0,0,1,.72.41c.32.78.66,1.56,1,2.34.19.44.38.87.56,1.31Z"/><path class="cls-3" d="M8.18,15.48a1.47,1.47,0,0,1,.17,2.58,2.47,2.47,0,0,1-1.56.64c-.55,0-1.09,0-1.64,0s-.51-.18-.43-.57c.36-1.68.71-3.37,1-5.05a.55.55,0,0,1,.63-.51A7.36,7.36,0,0,1,8,12.71a1.26,1.26,0,0,1,.89,2A3.71,3.71,0,0,1,8.18,15.48ZM5.86,17.92A1.68,1.68,0,0,0,6.92,18a1.21,1.21,0,0,0,1-1.37c-.08-.49-.6-.77-1.29-.71-.26,0-.46.1-.5.41A11.89,11.89,0,0,0,5.86,17.92ZM7.23,13.3c-.29,0-.52.06-.55.46,0,.21-.12.41-.14.61s-.25.64.06.84.69,0,1-.21A1.21,1.21,0,0,0,8,14.42C8.24,13.8,8,13.35,7.23,13.3Z"/><path class="cls-3" d="M26.45,14.45c-.16.8-.31,1.55-.45,2.29-.09.48-.33.94,0,1.46.19.27-.14.53-.52.48s-.44-.28-.67-.53a1.66,1.66,0,0,1-1.39.65,1.22,1.22,0,0,1-1.25-1.44,6.41,6.41,0,0,1,.18-1,2,2,0,0,0,0-1.5c-.15-.29,0-.51.4-.5a.82.82,0,0,1,.83,1c-.08.48-.23.94-.31,1.42-.14.81,0,1.2.46,1.31s1-.28,1.16-.95.34-1.41.5-2.12S25.57,14.36,26.45,14.45Z"/><path class="cls-3" d="M3.49,12.61H4.67c.21,0,.36.08.36.31s-.11.37-.32.38a14,14,0,0,1-1.45,0c-.48,0-.64.2-.74.6-.32,1.29-.33,1.28,1,1.36.19,0,.48-.09.5.23s-.16.47-.5.5-1-.21-1.38.18-.21.93-.37,1.38a3.47,3.47,0,0,0-.16.71c-.05.42-.32.46-.65.45s-.43-.16-.36-.47.16-.9.25-1.34c.24-1.16.49-2.31.73-3.47.17-.81.19-.83,1-.85h.91Z"/><path class="cls-3" d="M34.71,14.62c-.13.4-.33.57-.75.39a1.76,1.76,0,0,0-1-.07.61.61,0,0,0-.55.53c-.06.33.22.39.44.48s.4.13.6.2a1.11,1.11,0,0,1,.57,1.9,2.72,2.72,0,0,1-3,.5c-.1-.06-.21-.14-.18-.28a.34.34,0,0,1,.3-.3,2.81,2.81,0,0,1,.71.08,1.85,1.85,0,0,0,1,0,.61.61,0,0,0,.47-.49c.05-.31-.18-.42-.42-.51s-.4-.14-.6-.21a1.14,1.14,0,0,1-.6-1.86,1.55,1.55,0,0,1,.77-.61A2.49,2.49,0,0,1,34.71,14.62Z"/><path class="cls-3" d="M37,13.14c.14.34-.05.55-.06.79s0,.43.28.44c.16,0,.31.06.27.27s-.07.31-.26.31c-.56,0-.59.41-.67.8s-.19.95-.3,1.42-.15.68.32.89c.28.13.18.51-.11.62a.92.92,0,0,1-1.22-.81,2.75,2.75,0,0,1,.12-.9c.13-.46.19-.95.32-1.41.07-.3.09-.48-.27-.64a.26.26,0,0,1,.07-.5c.37-.07.46-.27.56-.58S36.65,13.34,37,13.14Z"/><path class="cls-2" d="M43.6,15s.52-.61.52-.61l.42.46A1.1,1.1,0,0,0,43.6,15Z"/><path class="cls-3" d="M48,18.27a4.85,4.85,0,0,1-3-.91c-.19-.14-.51-.23-.41-.53s.82-.24.91-.24l.71.55a4.56,4.56,0,0,0,1.9.67,5.12,5.12,0,0,0,.79,0C49.2,17.83,48.39,18.26,48,18.27Z"/><path class="cls-3" d="M29,16.81a3.38,3.38,0,0,0-.45,0c-.28,0-.65-.12-.69.36a.81.81,0,0,0,.58.9c.38.13.72-.07,1.07-.07.19,0,.43-.22.53.12s-.13.37-.33.46a3.23,3.23,0,0,1-1.87.15,1.18,1.18,0,0,1-.84-.64,3,3,0,0,1,1.87-3.85,2.08,2.08,0,0,1,1,0,1.46,1.46,0,0,1,.69,2.22.86.86,0,0,1-.73.29H29Zm-.86-.72s1.66.19,1.82-.39-.84-.63-.84-.63A1.1,1.1,0,0,0,28.12,16.09Z"/><g class="cls-4"><path d="M21.39,21v.64H22v.34h-.65v1.29a.33.33,0,0,0,.07.21.29.29,0,0,0,.22.08.69.69,0,0,0,.22,0l.15-.08v.3a.87.87,0,0,1-.18.11.7.7,0,0,1-.27,0,.49.49,0,0,1-.42-.17.64.64,0,0,1-.15-.45v-1.3h-.42v-.11a.84.84,0,0,0,.36-.32,2.57,2.57,0,0,0,.26-.55Z"/><path d="M23.05,21.6V22a1.07,1.07,0,0,1,.31-.35.61.61,0,0,1,.37-.14.59.59,0,0,1,.23.05V22a.54.54,0,0,0-.28-.09.47.47,0,0,0-.37.16,2.29,2.29,0,0,0-.26.38V23.8h-.36V21.6Z"/><path d="M26.22,21.6v1.3a1,1,0,0,1-.12.5,1,1,0,0,1-.34.33,1,1,0,0,1-.47.11,1.06,1.06,0,0,1-.48-.11.87.87,0,0,1-.33-.33.91.91,0,0,1-.13-.5V21.6h.38v1.3a.54.54,0,0,0,.17.44.56.56,0,0,0,.39.15.6.6,0,0,0,.39-.15.57.57,0,0,0,.17-.44V21.6Z"/><path d="M27.56,21.55a1.09,1.09,0,0,1,.36.06.91.91,0,0,1,.24.11v.39a1.39,1.39,0,0,0-.25-.14,1,1,0,0,0-.33-.06.46.46,0,0,0-.31.09.28.28,0,0,0-.1.2.27.27,0,0,0,.06.17.37.37,0,0,0,.21.14l.37.13a.7.7,0,0,1,.32.22.52.52,0,0,1,.1.33.59.59,0,0,1-.1.34.7.7,0,0,1-.29.24.93.93,0,0,1-.42.09l-.26,0-.25-.08-.16-.08v-.39a1.31,1.31,0,0,0,.41.19.71.71,0,0,0,.24,0,.53.53,0,0,0,.32-.09.27.27,0,0,0,.13-.23.2.2,0,0,0-.09-.17,1,1,0,0,0-.23-.12l-.33-.11a.6.6,0,0,1-.33-.25.64.64,0,0,1-.09-.34.59.59,0,0,1,.21-.46A.85.85,0,0,1,27.56,21.55Z"/><path d="M29.39,21v.64H30v.34h-.64v1.29a.28.28,0,0,0,.07.21.29.29,0,0,0,.22.08.73.73,0,0,0,.22,0l.15-.08v.3a.72.72,0,0,1-.19.11.62.62,0,0,1-.26,0,.52.52,0,0,1-.43-.17.69.69,0,0,1-.14-.45v-1.3h-.42v-.11a.84.84,0,0,0,.36-.32,2.16,2.16,0,0,0,.25-.55Z"/><path d="M31.59,21.55a1.09,1.09,0,0,1,.57.14.89.89,0,0,1,.33.39,1.19,1.19,0,0,1,.12.54v.22H30.92a.87.87,0,0,0,.12.34.78.78,0,0,0,.27.24.75.75,0,0,0,.37.09.89.89,0,0,0,.45-.12,1.56,1.56,0,0,0,.34-.27v.4a.71.71,0,0,1-.18.15,1.22,1.22,0,0,1-.28.14.88.88,0,0,1-.33.05,1.07,1.07,0,0,1-.59-.16,1.15,1.15,0,0,1-.41-.41,1.17,1.17,0,0,1-.15-.58,1.27,1.27,0,0,1,.14-.58,1.18,1.18,0,0,1,.38-.42A1,1,0,0,1,31.59,21.55Zm0,.36a.57.57,0,0,0-.44.18.8.8,0,0,0-.22.44h1.32a.73.73,0,0,0-.12-.35.79.79,0,0,0-.24-.21A.73.73,0,0,0,31.59,21.91Z"/><path d="M34.11,21.55a1.08,1.08,0,0,1,.56.14,1,1,0,0,1,.34.39,1.33,1.33,0,0,1,.11.54v.22H33.43a.89.89,0,0,0,.13.34.67.67,0,0,0,.26.24.75.75,0,0,0,.37.09.89.89,0,0,0,.45-.12,1.62,1.62,0,0,0,.35-.27v.4a.71.71,0,0,1-.18.15,1,1,0,0,1-.28.14.88.88,0,0,1-.33.05,1.07,1.07,0,0,1-.59-.16,1.15,1.15,0,0,1-.41-.41,1.31,1.31,0,0,1,0-1.16,1.18,1.18,0,0,1,.38-.42A1,1,0,0,1,34.11,21.55Zm0,.36a.6.6,0,0,0-.45.18.8.8,0,0,0-.22.44h1.32a.64.64,0,0,0-.12-.35A.69.69,0,0,0,34.4,22,.72.72,0,0,0,34.11,21.91Z"/></g></g></g></svg>