<svg width="110" height="53" viewBox="0 0 110 53" fill="none" xmlns="http://www.w3.org/2000/svg">
<g clip-path="url(#clip0)">
<path d="M34.6421 4.93442V39.9124H24.9016L11.5488 24.0307V39.9124H0.00415039V4.93442H9.74045L23.0975 20.8161V4.93442H34.6421Z" fill="#EF3B2F"/>
<path d="M71.1426 18.1219C71.1426 26.2126 64.9183 31.3053 55.1276 31.3053H50.0418V39.8957H38.1958V4.91772H55.1109C64.9183 4.93438 71.1426 10.0312 71.1426 18.1219ZM59.1963 18.1219C59.1963 15.5735 57.6391 14.0245 54.3784 14.0245H50.0418V22.2152H54.3616C57.6391 22.2152 59.1963 20.6661 59.1963 18.1219Z" fill="#EF3B2F"/>
<path d="M79.4097 23.8517L79.573 24.0432L91.712 14.849L91.5153 14.6117L79.4097 23.8517ZM72.8547 39.8957H90.1757C101.921 39.8957 110.004 33.2333 110.004 22.4067C110.012 20.7204 109.797 19.0403 109.364 17.4099C108.964 18.0691 108.529 18.7071 108.062 19.3212C107.767 19.7083 107.451 20.0794 107.116 20.433C106.139 21.527 105.045 22.5127 103.855 23.3728C100.666 25.7963 96.4755 27.4328 92.3525 28.4072C91.7037 28.5612 91.8209 28.5446 91.825 29.24V33.3707C91.5458 33.1927 91.2787 32.9966 91.0255 32.7836L90.2679 32.2089C86.9192 29.7105 83.424 26.9789 80.046 24.4846L79.7698 24.2639C79.7412 24.2363 79.716 24.2056 79.6945 24.1723L81.9757 22.4817C83.1854 21.5989 84.5249 20.5079 85.743 19.6168C86.2704 19.2379 86.735 18.8506 87.254 18.4717L91.8167 15.0489C91.8167 15.661 91.7287 19.521 91.871 19.775C92.1766 20.0457 94.9728 19.9791 95.542 19.9541C99.7279 19.7876 103.859 18.5342 106.986 15.9358C107.465 15.5456 107.92 15.1285 108.351 14.6866L108.267 14.5117C107.336 15.4705 106.295 16.3173 105.165 17.0351C102.009 19.0547 97.7396 19.9208 93.8886 19.8C93.3905 19.8 92.4278 19.671 92.0134 19.7168L91.9924 19.4627C97.3085 19.6543 101.62 18.988 105.069 16.7145C106.176 15.986 107.188 15.1245 108.083 14.1495C105.027 8.31979 98.5224 4.93442 90.1633 4.93442H72.8547V39.8957Z" fill="#EF3B2F"/>
<path d="M5.29097 46.6998V53H4.7426L0.669777 47.8865V53H0V46.6998H0.552561L4.63377 51.8091V46.6998H5.29097Z" fill="black"/>
<path d="M17.095 52.4212V53H12.6204V46.6998H16.9736V47.2744H13.3026V49.5147H16.555V50.0851H13.2817V52.4212H17.095Z" fill="black"/>
<path d="M27.8232 53L25.7806 50.2267L23.7462 53H22.9761L25.3829 49.7603L23.1309 46.6998H23.8969L25.8057 49.2732L27.706 46.6998H28.4302L26.1824 49.727L28.5976 52.9833L27.8232 53Z" fill="black"/>
<path d="M36.0108 47.2744H33.7839V46.6998H38.9032V47.2744H36.6806V53H36.0108V47.2744Z" fill="black"/>
<path d="M50.4604 48.9858C50.4604 50.3891 49.4014 51.2635 47.7103 51.2635H46.4545V53H44.9895V46.6998H47.7271C49.3847 46.6998 50.4604 47.5742 50.4604 48.9858ZM48.9786 48.9858C48.9786 48.2946 48.5266 47.8865 47.6308 47.8865H46.4378V50.0726H47.6308C48.5098 50.0726 48.9619 49.6687 48.9619 48.9858H48.9786Z" fill="black"/>
<path d="M61.0256 51.6508H58.0955L57.5346 53H56.0361L58.8574 46.6998H60.3057L63.1353 53H61.5991L61.0256 51.6508ZM60.561 50.5432L59.5606 48.1322L58.556 50.5432H60.561Z" fill="black"/>
<path d="M72.1182 50.7681V53H70.6531V50.7514L68.2043 46.6998H69.7574L71.4317 49.498L73.1061 46.6998H74.546L72.1182 50.7681Z" fill="black"/>
<path d="M81.1594 46.6998H83.7379C85.7638 46.6998 87.1284 47.9948 87.1284 49.8478C87.1284 51.7008 85.7638 53 83.7379 53H81.1594V46.6998ZM83.7002 52.4212C85.3745 52.4212 86.4712 51.3594 86.4712 49.8478C86.4712 48.3363 85.3829 47.2744 83.7002 47.2744H81.8291V52.4212H83.7002Z" fill="black"/>
<path d="M97.7607 51.3177H94.2321L93.4744 52.9833H92.7754L95.672 46.6831H96.3292L99.2258 52.9833H98.5184L97.7607 51.3177ZM97.5137 50.7764L95.9985 47.3952L94.479 50.7764H97.5137Z" fill="black"/>
<path d="M107.355 50.8222V53H106.693V50.8222L104.161 46.6998H104.877L107.049 50.235L109.217 46.6998H109.887L107.355 50.8222Z" fill="black"/>
<path fill-rule="evenodd" clip-rule="evenodd" d="M72.8547 4.93851C86.1909 -0.23324 101.649 -3.77265 102.068 7.15798C98.5182 2.36516 80.0377 5.20501 72.8547 4.93851Z" fill="#243E90"/>
</g>
<defs>
<clipPath id="clip0">
<rect width="110" height="53" fill="white"/>
</clipPath>
</defs>
</svg>
