<svg xmlns="http://www.w3.org/2000/svg" xmlns:xlink="http://www.w3.org/1999/xlink" width="179.247" height="159.796" viewBox="0 0 179.247 159.796"><defs><style>.a,.b,.c{fill:none;}.b{stroke:#7b6be3;}.b,.c{stroke-linecap:round;stroke-linejoin:round;stroke-width:5px;}.c{stroke:#ce4134;}.d{fill:#fff;}.e{fill:#ce4134;}.f{fill:url(#a);}</style><linearGradient id="a" x1="0.324" y1="1.383" x2="0.951" y2="1.383" gradientUnits="objectBoundingBox"><stop offset="0" stop-color="#2468ef"/><stop offset="0.044" stop-color="#2d68ed"/><stop offset="0.226" stop-color="#4f69e8"/><stop offset="0.412" stop-color="#6a6ae4"/><stop offset="0.6" stop-color="#7d6be2"/><stop offset="0.793" stop-color="#896be0"/><stop offset="0.996" stop-color="#8d6ce0"/></linearGradient></defs><g transform="translate(-1563.956 -2455.458)"><path class="a" d="M1570.182,944.378a72.714,72.714,0,0,1-3.5-8.008,76.671,76.671,0,0,1,19.343-82.556,76.227,76.227,0,0,1,34.8-18.755,78.337,78.337,0,0,1,38.646.79,74.361,74.361,0,0,1,17.924,7.6Z" transform="translate(11.603 1625.683)"/><path class="a" d="M1701.7,866.285a76.724,76.724,0,0,1-110.169,103.707Z" transform="translate(12.338 1626.508)"/><path class="b" d="M1570.729,943.9a72.682,72.682,0,0,1-3.384-7.751,76,76,0,0,1-3.747-14.207,76.817,76.817,0,0,1-.96-14.55,75.911,75.911,0,0,1,6.434-28.421A75.8,75.8,0,0,1,1621,835.754a77.474,77.474,0,0,1,38.306.774,73.627,73.627,0,0,1,17.581,7.433l1.038-.977a74.5,74.5,0,0,0-18.252-7.786,77.417,77.417,0,0,0-90,109.689Zm0,0a72.9,72.9,0,0,1-3.383-7.751,76.341,76.341,0,0,1-4.706-28.757,75.873,75.873,0,0,1,6.433-28.42A75.793,75.793,0,0,1,1621,835.755a77.463,77.463,0,0,1,38.306.773,73.693,73.693,0,0,1,17.582,7.433" transform="translate(11.586 1625.666)"/><path class="c" d="M1701.2,866.781a75.051,75.051,0,0,1,7.953,15.61,76.125,76.125,0,0,1,2.87,43.223,75.9,75.9,0,0,1-61.89,58.259,76.237,76.237,0,0,1-42.97-5.474,75.161,75.161,0,0,1-15.1-8.881l-1.015.955a77.4,77.4,0,0,0,111.169-104.648Z" transform="translate(12.326 1626.497)"/><path class="d" d="M1557.584,926.986h0a15.893,15.893,0,0,1,22.467.679L1599,947.79a15.893,15.893,0,0,1-.678,22.466h0a15.9,15.9,0,0,1-22.467-.678l-18.945-20.126A15.893,15.893,0,0,1,1557.584,926.986Z" transform="translate(11.371 1627.907)"/><path class="e" d="M1565.9,935.823h0a15.893,15.893,0,0,1,22.466.678l18.946,20.126a15.894,15.894,0,0,1-.678,22.467h0a15.894,15.894,0,0,1-22.467-.679l-18.946-20.125A15.893,15.893,0,0,1,1565.9,935.823Z" transform="translate(11.578 1628.126)"/><path class="d" d="M1682.988,849.683h0a15.893,15.893,0,0,1,22.466.678l18.947,20.126a15.893,15.893,0,0,1-.679,22.466h0a15.892,15.892,0,0,1-22.466-.678l-18.946-20.126A15.892,15.892,0,0,1,1682.988,849.683Z" transform="translate(14.482 1625.989)"/><path class="f" d="M1670.971,836.917h0a15.894,15.894,0,0,1,22.467.679l18.946,20.126a15.893,15.893,0,0,1-.678,22.466h0a15.894,15.894,0,0,1-22.467-.678l-18.946-20.126A15.894,15.894,0,0,1,1670.971,836.917Z" transform="translate(14.184 1625.672)"/></g></svg>