<svg xmlns="http://www.w3.org/2000/svg" xmlns:xlink="http://www.w3.org/1999/xlink" width="137.487" height="138.427" viewBox="0 0 137.487 138.427"><defs><style>.a{fill:#fff;}.b,.c{fill:none;}.b{stroke:#ce4134;stroke-width:3px;}.c{stroke:#2468a1;stroke-width:4px;}.d{fill:url(#a);}</style><linearGradient id="a" y1="0.5" x2="1" y2="0.5" gradientUnits="objectBoundingBox"><stop offset="0" stop-color="#2468ef"/><stop offset="0.044" stop-color="#2d68ed"/><stop offset="0.226" stop-color="#4f69e8"/><stop offset="0.412" stop-color="#6a6ae4"/><stop offset="0.6" stop-color="#7d6be2"/><stop offset="0.793" stop-color="#896be0"/><stop offset="0.996" stop-color="#8d6ce0"/></linearGradient></defs><g transform="translate(-406.493 -2630.172)"><g transform="translate(457.7 2729.673)"><ellipse class="a" cx="19.019" cy="19.019" rx="19.019" ry="19.019" transform="translate(0)"/><ellipse class="b" cx="18.406" cy="18.406" rx="18.406" ry="18.406" transform="translate(0.614 0.614)"/></g><g transform="translate(407.38 2681.757)"><ellipse class="a" cx="19.019" cy="19.019" rx="19.019" ry="19.019" transform="translate(0 0)"/><ellipse class="b" cx="18.406" cy="18.406" rx="18.406" ry="18.406" transform="translate(0.614 0.614)"/></g><g transform="translate(457.7 2631.844)"><ellipse class="a" cx="19.019" cy="19.019" rx="19.019" ry="19.019" transform="translate(0)"/><ellipse class="b" cx="18.406" cy="18.406" rx="18.406" ry="18.406" transform="translate(0.614 0.614)"/></g><g transform="translate(504.555 2729.06)"><ellipse class="a" cx="19.019" cy="19.019" rx="19.019" ry="19.019" transform="translate(0 0)"/><ellipse class="c" cx="18.406" cy="18.406" rx="18.406" ry="18.406" transform="translate(0.614 0.614)"/></g><g transform="translate(504.555 2631.558)"><ellipse class="a" cx="19.019" cy="19.019" rx="19.019" ry="19.019"/><ellipse class="c" cx="18.406" cy="18.406" rx="18.406" ry="18.406" transform="translate(0.614 0.614)"/></g><g transform="translate(457.7 2681.757)"><ellipse class="a" cx="19.019" cy="19.019" rx="19.019" ry="19.019" transform="translate(0 0)"/><ellipse class="c" cx="18.406" cy="18.406" rx="18.406" ry="18.406" transform="translate(0.614 0.614)"/></g><ellipse class="d" cx="19.019" cy="19.019" rx="19.019" ry="19.019" transform="translate(407.38 2631.558)"/><ellipse class="d" cx="19.019" cy="19.019" rx="19.019" ry="19.019" transform="translate(407.38 2729.673)"/><ellipse class="d" cx="19.019" cy="19.019" rx="19.019" ry="19.019" transform="translate(505.169 2683.123)"/></g></svg>