<svg width="759" height="495" viewBox="0 0 759 495" fill="none" xmlns="http://www.w3.org/2000/svg">
<path d="M65.617 152.851C48.3331 105.852 83.1162 56 133.192 56L663.112 56C711.078 56 745.633 102.02 732.254 148.083L660.738 394.305C651.163 427.269 619.649 448.89 585.448 445.959L205.623 413.41C177.784 411.024 153.839 392.747 144.195 366.524L65.617 152.851Z" fill="#EF3B2F"/>
<path opacity="0.3" d="M121.457 122.946C70.1986 153.799 39.8228 210.385 44.5785 269.531C47.0994 299.714 58.4702 328.89 88.5242 344.785C168.674 387.171 518.595 387.966 570.372 312.995C622.148 238.024 602.893 131.37 490.275 86.9348C392.658 48.3986 253.848 43.3123 121.457 122.946Z" fill="#E6E6E6"/>
<path opacity="0.45" d="M335.146 398.786C489.467 398.786 614.568 390.957 614.568 381.299C614.568 371.642 489.467 363.813 335.146 363.813C180.826 363.813 55.7251 371.642 55.7251 381.299C55.7251 390.957 180.826 398.786 335.146 398.786Z" fill="#E6E6E6"/>
<path d="M106.934 263.921L88.3394 254.981L85.8497 260.063L104.444 269.003L106.934 263.921Z" fill="#24285B"/>
<path d="M123.945 277.07L67.3857 249.877L48.4021 288.622L104.961 315.815L123.945 277.07Z" fill="#FFD200"/>
<path d="M247.432 146.752C247.432 146.752 370.087 170.33 398.43 187.16L391.8 203.579C391.8 203.579 319.45 184.992 265.068 191.264L247.432 146.752Z" fill="#68E1FD"/>
<path opacity="0.08" d="M247.432 146.752C247.432 146.752 370.087 170.33 398.43 187.16L391.8 203.579C391.8 203.579 319.45 184.992 265.068 191.264L247.432 146.752Z" fill="black"/>
<path d="M393.325 199.884C393.325 199.884 407.612 209.211 408.143 206.452C408.673 203.694 405.391 200.213 405.391 200.213C405.391 200.213 421.569 199.589 421.966 195.763C422.364 191.938 398.347 187.127 398.347 187.127L393.325 199.884Z" fill="#F4A28C"/>
<path d="M296.129 375.093C296.129 375.093 298.88 380.117 303.803 379.789C308.726 379.461 310.715 383.959 306.538 385.848C302.361 387.736 290.261 383.894 290.261 383.894L289.283 375.044L296.129 375.093Z" fill="#68E1FD"/>
<path d="M110.671 349.545C110.671 349.545 105.251 351.499 104.853 356.359C104.456 361.219 99.6655 362.516 98.3892 358.148C97.1129 353.781 102.765 342.485 102.765 342.485L111.749 342.862L110.671 349.545Z" fill="#68E1FD"/>
<path d="M240.603 113.307C241.151 117.966 241.061 122.677 240.338 127.312C240.224 127.863 240 128.386 239.68 128.851C239.359 129.315 238.949 129.712 238.472 130.018C237.995 130.324 237.462 130.532 236.903 130.631C236.344 130.731 235.77 130.719 235.216 130.596C233.421 130.302 231.75 129.501 230.403 128.29C229.057 127.078 228.092 125.507 227.625 123.766L224.873 116.475C224.469 114.954 224.554 113.346 225.116 111.875C225.677 110.404 226.687 109.142 228.006 108.266C232.68 104.654 240.338 108.184 240.603 113.307Z" fill="#F4A28C"/>
<path d="M225.337 117.723L221.74 145.127L237.138 145.997L233.575 125.703L225.337 117.723Z" fill="#F4A28C"/>
<path d="M231.768 120.777C231.768 120.777 231.602 117.493 229.149 117.855C226.696 118.216 226.895 122.78 230.26 123.207L231.768 120.777Z" fill="#F4A28C"/>
<path d="M240.934 118.626L243.404 121.795C243.543 121.977 243.633 122.19 243.667 122.416C243.701 122.641 243.677 122.872 243.598 123.085C243.519 123.299 243.387 123.49 243.214 123.641C243.041 123.791 242.833 123.896 242.608 123.946L239.293 124.636L240.934 118.626Z" fill="#F4A28C"/>
<path opacity="0.31" d="M234.536 130.12C232.61 129.695 230.851 128.719 229.481 127.312C229.481 127.312 229.846 132.369 235.581 137.164L234.536 130.12Z" fill="#CE8172"/>
<path d="M182.325 278.368C182.325 278.368 174.038 304.097 191.557 310.73C199.712 313.8 219.735 313.784 238.813 312.881C250.417 312.35 261.772 316.328 270.459 323.967C279.146 331.607 284.479 342.304 285.322 353.781L286.864 374.321L295.947 375.093L299.113 338.314C300.213 325.516 296.183 312.803 287.895 302.924C279.607 293.046 267.727 286.796 254.824 285.527L182.325 278.368Z" fill="#24285B"/>
<path d="M224.774 122.009L222.785 110.515C222.785 110.515 218.21 107.035 222.022 103.8C225.834 100.565 228.47 103.669 231.768 98.8742C232.222 97.9467 232.957 97.1835 233.871 96.6919C234.786 96.2003 235.833 96.0051 236.865 96.1338C237.897 96.2625 238.862 96.7086 239.625 97.4093C240.388 98.1101 240.909 99.0301 241.117 100.04C241.945 103.488 249.802 103.061 247.747 107.855C245.691 112.65 238.746 112.305 236.774 112.19C228.122 111.681 234.603 123.766 224.774 122.009Z" fill="#24285B"/>
<path d="M224.26 144.667L227.409 144.371C234.568 143.652 241.797 144.596 248.524 147.127C255.251 149.657 261.289 153.706 266.161 158.952C270.319 163.557 273.473 168.962 275.427 174.829C284.112 200.771 244.73 284.525 244.73 284.525L182.325 278.368C182.325 278.368 151.181 146.079 224.26 144.667Z" fill="#68E1FD"/>
<path opacity="0.08" d="M242.724 169.509C242.028 177.731 239.257 185.649 234.666 192.534C230.076 199.419 223.813 205.052 216.453 208.915C190.811 222.707 213.585 281.849 213.585 281.849L182.325 278.368C182.325 278.368 174.651 241.031 175.695 221.607C176.739 202.183 188.723 164.288 242.724 169.509Z" fill="black"/>
<path d="M231.022 148.526C236.176 150.736 240.436 154.591 243.122 159.477C246.139 165.125 247.448 173.22 240.652 182.94C227.078 202.38 165.568 138.608 106.544 251.293L93.2842 245.809C93.2842 245.809 138.948 107.609 231.022 148.526Z" fill="#68E1FD"/>
<path opacity="0.46" d="M231.022 148.526C236.176 150.736 240.436 154.591 243.122 159.477C246.139 165.125 247.448 173.22 240.652 182.94C227.078 202.38 165.568 138.608 106.544 251.293L93.2842 245.809C93.2842 245.809 138.948 107.609 231.022 148.526Z" fill="white"/>
<path d="M96.2344 247.007C96.2344 247.007 89.9028 257.105 94.1128 260.652C98.3229 264.198 105.516 266.087 106.544 251.293L96.2344 247.007Z" fill="#F4A28C"/>
<path d="M181.745 281.8C180.734 283.704 156.882 340.531 143.158 344.192C129.434 347.854 110.008 341.926 110.008 341.926L108.898 351.778C108.898 351.778 139.678 366.342 160.678 360.923C181.679 355.505 218.79 304.967 218.79 304.967L184.695 282.341" fill="#24285B"/>
<path d="M425.978 343.24V353.206C425.978 357.721 413.264 361.416 397.601 361.416C381.938 361.416 369.241 357.705 369.241 353.206V343.24H425.978Z" fill="#FFD200"/>
<path d="M425.978 355.242V365.209C425.978 369.724 413.265 373.418 397.601 373.336C381.938 373.254 369.225 369.625 369.241 365.127V355.177L425.978 355.242Z" fill="#FFD200"/>
<path opacity="0.08" d="M425.978 355.242V365.209C425.978 369.724 413.265 373.418 397.601 373.336C381.938 373.254 369.225 369.625 369.241 365.127V355.177L425.978 355.242Z" fill="black"/>
<path d="M425.411 354.94C425.419 350.47 412.839 346.824 397.314 346.797C381.788 346.77 369.196 350.372 369.188 354.843C369.18 359.313 381.76 362.959 397.285 362.986C412.811 363.013 425.403 359.411 425.411 354.94Z" fill="#FFD200"/>
<path opacity="0.08" d="M425.978 343.24V353.206C425.978 357.721 413.264 361.416 397.601 361.416C381.938 361.416 369.241 357.705 369.241 353.206V343.24H425.978Z" fill="black"/>
<path d="M423.905 331.336V341.303C423.905 345.818 411.192 349.512 395.529 349.512C379.866 349.512 367.153 345.801 367.169 341.303V331.238L423.905 331.336Z" fill="#FFD200"/>
<path d="M425.978 319.334V329.3C425.978 333.799 413.248 337.51 397.585 337.51C381.921 337.51 369.225 333.799 369.241 329.3V319.334H425.978Z" fill="#FFD200"/>
<path d="M425.444 343.032C425.452 338.561 412.872 334.915 397.347 334.889C381.822 334.862 369.229 338.464 369.222 342.935C369.214 347.405 381.793 351.051 397.318 351.078C412.844 351.105 425.436 347.502 425.444 343.032Z" fill="#FFD200"/>
<path opacity="0.08" d="M423.905 331.336V341.303C423.905 345.818 411.192 349.512 395.529 349.512C379.866 349.512 367.153 345.801 367.169 341.303V331.238L423.905 331.336Z" fill="black"/>
<path d="M423.402 331.239C423.41 326.768 410.83 323.122 395.305 323.095C379.779 323.069 367.187 326.671 367.179 331.142C367.171 335.612 379.751 339.258 395.276 339.285C410.802 339.312 423.394 335.709 423.402 331.239Z" fill="#FFD200"/>
<path opacity="0.08" d="M425.978 319.334V329.3C425.978 333.799 413.248 337.51 397.585 337.51C381.921 337.51 369.225 333.799 369.241 329.3V319.334H425.978Z" fill="black"/>
<path d="M426.008 319.347C426.016 314.877 413.318 311.231 397.646 311.204C381.974 311.177 369.263 314.779 369.255 319.249C369.247 323.72 381.945 327.366 397.617 327.393C413.289 327.42 426 323.818 426.008 319.347Z" fill="#FFD200"/>
<path d="M519.974 245.989C519.974 245.989 539.201 282.112 543.759 320.532C548.318 358.953 536.384 385.585 470.614 381.184C404.844 376.784 388.932 350.12 400.999 314.654C413.066 279.189 465.641 236.434 465.641 236.434L519.974 245.989Z" fill="#24285B"/>
<path d="M519.974 245.989C519.974 245.989 553.688 225.006 544.837 209.769C535.986 194.532 514.422 198.275 503.25 192.808C492.079 187.34 432.127 177.752 465.641 236.433L519.974 245.989Z" fill="#24285B"/>
<path d="M515.366 237.501C515.366 237.501 481.454 231.13 452.928 232.115" stroke="#FFD200" stroke-width="3.045" stroke-linecap="round" stroke-linejoin="round"/>
<path d="M463.901 236.204C463.901 236.204 449.978 196.404 428.049 215.039C406.121 233.675 462.542 236.204 462.542 236.204C462.542 236.204 407.016 249.339 433.138 271.341C459.26 293.342 463.901 236.204 463.901 236.204Z" stroke="#FFD200" stroke-width="3.045" stroke-linecap="round" stroke-linejoin="round"/>
<path d="M461 349.512C479.281 349.512 494.101 334.832 494.101 316.723C494.101 298.614 479.281 283.934 461 283.934C442.72 283.934 427.9 298.614 427.9 316.723C427.9 334.832 442.72 349.512 461 349.512Z" fill="#68E1FD"/>
<path d="M544.87 209.112C544.87 209.112 551.284 221.18 537.627 222.822C523.969 224.464 512.764 212.018 501.907 214.777C491.051 217.535 459.492 222.609 455.497 207.749C451.503 192.89 470.78 185.846 483.559 187.669C496.338 189.491 541.373 194.959 544.87 209.112Z" fill="#68E1FD"/>
<path d="M574.142 344.718V355.866C574.142 360.923 559.904 364.995 542.367 364.962C524.831 364.93 510.626 360.808 510.626 355.751V344.603L574.142 344.718Z" fill="#FFD200"/>
<path d="M574.108 358.148V369.297C574.108 374.354 559.887 378.426 542.351 378.393C524.814 378.36 510.593 374.256 510.609 369.199V358.05L574.108 358.148Z" fill="#FFD200"/>
<path opacity="0.08" d="M574.108 358.148V369.297C574.108 374.354 559.887 378.426 542.351 378.393C524.814 378.36 510.593 374.256 510.609 369.199V358.05L574.108 358.148Z" fill="black"/>
<path d="M573.529 357.808C573.538 352.802 559.46 348.72 542.085 348.69C524.711 348.66 510.619 352.694 510.61 357.699C510.601 362.705 524.679 366.787 542.053 366.817C559.428 366.847 573.52 362.814 573.529 357.808Z" fill="#FFD200"/>
<path opacity="0.08" d="M574.142 344.718V355.866C574.142 360.923 559.904 364.995 542.367 364.962C524.831 364.93 510.626 360.808 510.626 355.751V344.603L574.142 344.718Z" fill="black"/>
<path d="M571.837 331.385V342.534C571.837 347.591 557.599 351.663 540.063 351.63C522.527 351.597 508.322 347.476 508.322 342.435V331.238L571.837 331.385Z" fill="#FFD200"/>
<path d="M574.175 317.954V329.103C574.175 334.16 559.953 338.232 542.417 338.199C524.881 338.166 510.659 334.045 510.676 328.988V317.839L574.175 317.954Z" fill="#FFD200"/>
<path d="M573.562 344.485C573.571 339.48 559.493 335.397 542.119 335.367C524.744 335.337 510.652 339.371 510.643 344.376C510.635 349.382 524.712 353.464 542.087 353.494C559.461 353.524 573.553 349.491 573.562 344.485Z" fill="#FFD200"/>
<path opacity="0.08" d="M571.837 331.385V342.534C571.837 347.591 557.599 351.663 540.063 351.63C522.527 351.597 508.322 347.476 508.322 342.435V331.238L571.837 331.385Z" fill="black"/>
<path d="M571.304 331.294C571.313 326.288 557.235 322.206 539.86 322.176C522.486 322.146 508.394 326.18 508.385 331.185C508.376 336.191 522.454 340.273 539.829 340.303C557.203 340.333 571.295 336.3 571.304 331.294Z" fill="#FFD200"/>
<path opacity="0.08" d="M574.175 317.954V329.103C574.175 334.16 559.953 338.232 542.417 338.199C524.881 338.166 510.659 334.045 510.676 328.988V317.839L574.175 317.954Z" fill="black"/>
<path opacity="0.08" d="M572.931 380.478C585.949 380.478 596.501 370.025 596.501 357.13C596.501 344.236 585.949 333.782 572.931 333.782C559.914 333.782 549.362 344.236 549.362 357.13C549.362 370.025 559.914 380.478 572.931 380.478Z" fill="black"/>
<path opacity="0.08" d="M557.251 333.766C557.251 333.766 532.571 341.22 536.533 378.245C536.533 378.245 552.627 378.771 560.251 376.833C567.08 375.093 557.251 333.766 557.251 333.766Z" fill="black"/>
<path d="M574.209 317.972C574.218 312.966 560.007 308.884 542.467 308.854C524.928 308.823 510.703 312.856 510.694 317.862C510.685 322.867 524.896 326.95 542.435 326.98C559.975 327.01 574.2 322.977 574.209 317.972Z" fill="#FFD200"/>
<path d="M572.931 380.478C585.949 380.478 596.501 370.025 596.501 357.13C596.501 344.236 585.949 333.782 572.931 333.782C559.914 333.782 549.362 344.236 549.362 357.13C549.362 370.025 559.914 380.478 572.931 380.478Z" fill="#FFD200"/>
<path opacity="0.08" d="M572.931 380.478C585.949 380.478 596.501 370.025 596.501 357.13C596.501 344.236 585.949 333.782 572.931 333.782C559.914 333.782 549.362 344.236 549.362 357.13C549.362 370.025 559.914 380.478 572.931 380.478Z" fill="black"/>
<g opacity="0.08">
<path opacity="0.08" d="M574.075 373.451C587.092 373.451 597.645 362.998 597.645 350.103C597.645 337.208 587.092 326.755 574.075 326.755C561.058 326.755 550.505 337.208 550.505 350.103C550.505 362.998 561.058 373.451 574.075 373.451Z" fill="black"/>
</g>
<path d="M574.075 373.451C587.092 373.451 597.645 362.998 597.645 350.103C597.645 337.208 587.092 326.755 574.075 326.755C561.058 326.755 550.505 337.208 550.505 350.103C550.505 362.998 561.058 373.451 574.075 373.451Z" fill="#FFD200"/>
<g clip-path="url(#clip0)">
<path d="M455.992 308.788L448.414 328.432L443.972 326.751L454.732 298.856L458.222 300.177L466.565 326.388L474.31 306.312L478.791 308.008L468.046 335.863L464.358 334.467L455.992 308.788Z" fill="white"/>
<path d="M446.268 306.839L479.828 319.542" stroke="white" stroke-width="2"/>
<path d="M442.771 315.906L476.33 328.609" stroke="white" stroke-width="2"/>
</g>
<g clip-path="url(#clip1)">
<path d="M567.237 346.528V361.157H563.779V340.384H566.496L579.033 355.364V340.413H582.522V361.157H579.65L567.237 346.528Z" fill="white"/>
<path d="M560.121 347.653H586.249" stroke="white" stroke-width="2"/>
<path d="M560.121 354.405H586.249" stroke="white" stroke-width="2"/>
</g>
<defs>
<clipPath id="clip0">
<rect width="35.8832" height="74.5021" fill="white" transform="matrix(0.935241 0.35401 -0.359897 0.932992 457.926 276.618)"/>
</clipPath>
<clipPath id="clip1">
<rect width="26.1281" height="51.7647" fill="white" transform="translate(560.121 325.147)"/>
</clipPath>
</defs>
</svg>
