<svg xmlns="http://www.w3.org/2000/svg" xmlns:xlink="http://www.w3.org/1999/xlink" viewBox="0 0 387.11 324.4"><defs><style>.cls-1{fill:#fff;}.cls-2{fill:#f2f2f2;}.cls-3{fill:url(#linear-gradient);}.cls-4{font-size:120.11px;fill:#8c6ce0;font-family:OperatorMono-Book, Operator Mono;}.cls-5{fill:none;stroke:#24caef;stroke-linecap:round;stroke-miterlimit:10;stroke-width:6px;}</style><linearGradient id="linear-gradient" x1="140.32" y1="165.37" x2="356.69" y2="165.37" gradientUnits="userSpaceOnUse"><stop offset="0" stop-color="#2468ef"/><stop offset="0.04" stop-color="#2e68ee"/><stop offset="0.23" stop-color="#506ae9"/><stop offset="0.41" stop-color="#6b6be5"/><stop offset="0.6" stop-color="#7e6be2"/><stop offset="0.79" stop-color="#896ce1"/><stop offset="1" stop-color="#8d6ce0"/></linearGradient></defs><title>receive-loan</title><g id="Layer_2" data-name="Layer 2"><g id="Layer_1-2" data-name="Layer 1"><rect class="cls-1" width="387.11" height="324.4"/><circle class="cls-2" cx="259.58" cy="175.92" r="103.18"/><path class="cls-3" d="M248.5,273.55A108.19,108.19,0,1,1,356.69,165.37,108.3,108.3,0,0,1,248.5,273.55Zm0-206.37a98.19,98.19,0,1,0,98.19,98.19A98.3,98.3,0,0,0,248.5,67.18Z"/><text class="cls-4" transform="translate(216.07 204.07)">₦</text><line class="cls-5" x1="107.08" y1="72.73" x2="149.59" y2="72.73"/><line class="cls-5" x1="39.7" y1="108.43" x2="112.96" y2="108.43"/><line class="cls-5" x1="26.08" y1="157.45" x2="99.34" y2="157.45"/><line class="cls-5" x1="39.7" y1="202.98" x2="112.96" y2="202.98"/><line class="cls-5" x1="98.94" y1="244.3" x2="145.52" y2="244.3"/></g></g></svg>