<svg xmlns="http://www.w3.org/2000/svg" xmlns:xlink="http://www.w3.org/1999/xlink" viewBox="0 0 324.4 324.4"><defs><style>.cls-1,.cls-5{fill:#fff;}.cls-2{fill:#f2f2f2;}.cls-3{fill:url(#linear-gradient);}.cls-4{fill:none;stroke:#24caef;stroke-linecap:round;}.cls-4,.cls-5{stroke-miterlimit:10;stroke-width:2px;}.cls-5{stroke:#2468ef;}.cls-6{fill:url(#linear-gradient-2);}</style><linearGradient id="linear-gradient" x1="54.33" y1="139.65" x2="271.27" y2="139.65" gradientUnits="userSpaceOnUse"><stop offset="0" stop-color="#2468ef"/><stop offset="0.04" stop-color="#2e68ee"/><stop offset="0.23" stop-color="#506ae9"/><stop offset="0.41" stop-color="#6b6be5"/><stop offset="0.6" stop-color="#7e6be2"/><stop offset="0.79" stop-color="#896ce1"/><stop offset="1" stop-color="#8d6ce0"/></linearGradient><linearGradient id="linear-gradient-2" x1="53.84" y1="233.52" x2="271.27" y2="233.52" xlink:href="#linear-gradient"/></defs><title>register</title><g id="Layer_2" data-name="Layer 2"><g id="Layer_1-2" data-name="Layer 1"><rect class="cls-1" width="324.4" height="324.4"/><path class="cls-2" d="M82.4,74.6c-6.7,0-12.13,6.87-12.13,15.33V255.36c0,8.47,5.43,15.33,12.13,15.33h188c6.7,0,12.13-6.86,12.13-15.33V89.93c0-8.46-5.43-15.33-12.13-15.33Z"/><path class="cls-3" d="M256.82,219.58h-188a14.45,14.45,0,0,1-14.45-14.45v-131A14.47,14.47,0,0,1,70,59.76c2.26,2,.85,4.6-1.17,4.6A9.82,9.82,0,0,0,59,74.17v131a9.8,9.8,0,0,0,9.8,9.8h188a9.8,9.8,0,0,0,9.8-9.8v-131a9.81,9.81,0,0,0-9.8-9.81H79.26a2.38,2.38,0,0,1-2.37-1.86,2.33,2.33,0,0,1,2.28-2.79H256.82a14.45,14.45,0,0,1,14.45,14.46v131A14.45,14.45,0,0,1,256.82,219.58Z"/><line class="cls-4" x1="76.85" y1="139.65" x2="248.26" y2="139.65"/><line class="cls-4" x1="76.85" y1="162.03" x2="248.26" y2="162.03"/><line class="cls-4" x1="76.85" y1="187.01" x2="248.26" y2="187.01"/><line class="cls-4" x1="141.97" y1="83.95" x2="252.14" y2="83.95"/><line class="cls-4" x1="141.97" y1="107.81" x2="252.14" y2="107.81"/><rect class="cls-5" x="71.34" y="74.4" width="54.16" height="54.16" rx="8.56"/><path class="cls-6" d="M53.84,208.91H271.27a0,0,0,0,1,0,0v20.91a28.3,28.3,0,0,1-28.3,28.3H82.13a28.3,28.3,0,0,1-28.3-28.3V208.91a0,0,0,0,1,0,0Z"/><rect class="cls-1" x="165.73" y="219.94" width="93.34" height="27.68" rx="13.84"/></g></g></svg>