<svg xmlns="http://www.w3.org/2000/svg" xmlns:xlink="http://www.w3.org/1999/xlink" viewBox="0 0 324.4 324.4"><defs><style>.cls-1{fill:#fff;}.cls-2{fill:#f2f2f2;}.cls-3{fill:url(#linear-gradient);}.cls-4{fill:#8d6ce0;}.cls-5,.cls-6{fill:none;stroke-linecap:round;stroke-miterlimit:10;}.cls-5{stroke:#24caef;stroke-width:2px;}.cls-6{stroke:#2468ef;stroke-width:7px;}.cls-7{fill:url(#linear-gradient-2);}.cls-8{fill:url(#linear-gradient-3);}</style><linearGradient id="linear-gradient" x1="63" y1="164.26" x2="266.67" y2="164.26" gradientUnits="userSpaceOnUse"><stop offset="0" stop-color="#2468ef"/><stop offset="0.04" stop-color="#2e68ee"/><stop offset="0.23" stop-color="#506ae9"/><stop offset="0.41" stop-color="#6b6be5"/><stop offset="0.6" stop-color="#7e6be2"/><stop offset="0.79" stop-color="#896ce1"/><stop offset="1" stop-color="#8d6ce0"/></linearGradient><linearGradient id="linear-gradient-2" x1="89.43" y1="97.74" x2="135.55" y2="97.74" xlink:href="#linear-gradient"/><linearGradient id="linear-gradient-3" x1="97.47" y1="90.19" x2="146.09" y2="90.19" xlink:href="#linear-gradient"/></defs><title>request-loan</title><g id="Layer_2" data-name="Layer 2"><g id="Layer_1-2" data-name="Layer 1"><rect class="cls-1" width="324.4" height="324.4"/><rect class="cls-2" x="74.2" y="47.64" width="200.55" height="255.12" rx="29.11"/><path class="cls-3" d="M236.76,293.38H92.91A29.93,29.93,0,0,1,63,263.47V65.05A29.94,29.94,0,0,1,92.91,35.14H236.76c16.5,0,29.91,13.42,29.91,31.62V265.18C266.67,280,253.26,293.38,236.76,293.38ZM92.91,38.26A26.82,26.82,0,0,0,66.12,65.05V263.47a26.82,26.82,0,0,0,26.79,26.79H236.76a26.82,26.82,0,0,0,26.79-26.79V65.05a26.82,26.82,0,0,0-26.79-26.79Z"/><rect class="cls-4" x="109.58" y="21.64" width="106.02" height="26" rx="7.62"/><path class="cls-5" d="M90.7,136.15c15.27,0,15.27,14,30.54,14s15.27-14,30.54-14,15.27,14,30.54,14,15.27-14,30.55-14,15.27,14,30.54,14"/><path class="cls-5" d="M90.7,159.75c15.27,0,15.27,14,30.54,14s15.27-14,30.54-14,15.27,14,30.54,14,15.27-14,30.55-14,15.27,14,30.54,14"/><path class="cls-5" d="M90.7,183.35c15.27,0,15.27,14,30.54,14s15.27-14,30.54-14,15.27,14,30.54,14,15.27-14,30.55-14,15.27,14,30.54,14"/><path class="cls-5" d="M90.7,207.26c15.27,0,15.27,14,30.54,14s15.27-14,30.54-14,15.27,14,30.54,14,15.27-14,30.55-14,15.27,14,30.54,14"/><path class="cls-5" d="M90.7,230.86c15.27,0,15.27,14,30.54,14s15.27-14,30.54-14,15.27,14,30.54,14,15.27-14,30.55-14,15.27,14,30.54,14"/><path class="cls-5" d="M90.7,254.46c15.27,0,15.27,14,30.54,14s15.27-14,30.54-14,15.27,14,30.54,14,15.27-14,30.55-14,15.27,14,30.54,14"/><line class="cls-6" x1="281.4" y1="99.27" x2="247.46" y2="243.45"/><circle class="cls-1" cx="112.49" cy="97.74" r="21.5"/><path class="cls-7" d="M112.49,120.8a23.06,23.06,0,1,1,23.06-23.06A23.09,23.09,0,0,1,112.49,120.8Zm0-43a19.94,19.94,0,1,0,19.94,19.94A20,20,0,0,0,112.49,77.8Z"/><polyline class="cls-1" points="99.03 95.33 110.48 106.27 144.53 73.51"/><path class="cls-8" d="M110.48,108.44,98,96.46a1.56,1.56,0,1,1,2.16-2.26l10.36,9.91,33-31.73a1.56,1.56,0,0,1,2.16,2.25Z"/></g></g></svg>