<svg width="620" height="454" viewBox="0 0 620 454" fill="none" xmlns="http://www.w3.org/2000/svg">
<path d="M562.836 117.219L494.156 134.838L510.865 150.545L426.483 237.014L353.307 142.337L245.365 244.71L144.925 203.011L69.2695 282.372L87.172 298.486L151.141 231.382L250.744 272.735L350.471 178.163L424.313 273.683L528.395 167.049L546.282 183.855L562.836 117.219Z" fill="#68E1FD"/>
<path opacity="0.45" d="M308.543 402.228C430.127 402.228 528.689 392.472 528.689 380.438C528.689 368.403 430.127 358.647 308.543 358.647C186.959 358.647 88.3965 368.403 88.3965 380.438C88.3965 392.472 186.959 402.228 308.543 402.228Z" fill="#E6E6E6"/>
<path d="M468.782 352.066H379.424V374.926H468.782V352.066Z" fill="#E6E6E6"/>
<path opacity="0.43" d="M449.252 329.719H359.895V352.578H449.252V329.719Z" fill="#E6E6E6"/>
<path d="M390.566 66.6802H241.664C233.932 66.6802 227.664 72.9482 227.664 80.6802V360.926C227.664 368.658 233.932 374.926 241.664 374.926H390.566C398.298 374.926 404.566 368.658 404.566 360.926V80.6802C404.566 72.9482 398.298 66.6802 390.566 66.6802Z" fill="#C9C9C9"/>
<path d="M388.724 101.813H242.296V318.74H388.724V101.813Z" fill="white"/>
<path opacity="0.56" d="M316.649 363.345C326.211 363.345 333.963 355.814 333.963 346.524C333.963 337.234 326.211 329.703 316.649 329.703C307.087 329.703 299.336 337.234 299.336 346.524C299.336 355.814 307.087 363.345 316.649 363.345Z" fill="white"/>
<path opacity="0.12" d="M350.75 78.7275H301.15V85.7602H350.75V78.7275Z" fill="black"/>
<path d="M283.185 90.8503C287.645 90.8503 291.26 87.3376 291.26 83.0045C291.26 78.6714 287.645 75.1587 283.185 75.1587C278.725 75.1587 275.109 78.6714 275.109 83.0045C275.109 87.3376 278.725 90.8503 283.185 90.8503Z" fill="white"/>
<path opacity="0.08" d="M262.09 298.486H287.944L290.579 374.926L243.614 375.378L262.09 298.486Z" fill="black"/>
<path d="M316.82 221.94C340.053 221.94 358.887 203.642 358.887 181.07C358.887 158.497 340.053 140.199 316.82 140.199C293.587 140.199 274.753 158.497 274.753 181.07C274.753 203.642 293.587 221.94 316.82 221.94Z" fill="#FFD200"/>
<path opacity="0.08" d="M316.82 221.94C340.053 221.94 358.887 203.642 358.887 181.07C358.887 158.497 340.053 140.199 316.82 140.199C293.587 140.199 274.753 158.497 274.753 181.07C274.753 203.642 293.587 221.94 316.82 221.94Z" fill="black"/>
<path d="M164.3 331.842V349.717C164.3 357.819 187.55 364.355 216.241 364.309C244.931 364.264 268.15 357.653 268.135 349.551V331.661L164.3 331.842Z" fill="#FFD200"/>
<path d="M316.82 209.125C340.053 209.125 358.887 190.826 358.887 168.254C358.887 145.682 340.053 127.384 316.82 127.384C293.587 127.384 274.753 145.682 274.753 168.254C274.753 190.826 293.587 209.125 316.82 209.125Z" fill="#FFD200"/>
<path d="M164.377 353.391V371.267C164.377 379.384 187.627 385.904 216.318 385.859C245.008 385.814 268.227 379.203 268.212 371.101V353.226L164.377 353.391Z" fill="#FFD200"/>
<path opacity="0.08" d="M164.377 353.391V371.267C164.377 379.384 187.627 385.904 216.318 385.859C245.008 385.814 268.227 379.203 268.212 371.101V353.226L164.377 353.391Z" fill="black"/>
<path d="M216.867 367.254C245.279 367.206 268.3 360.654 268.285 352.62C268.271 344.586 245.227 338.112 216.815 338.16C188.403 338.208 165.382 344.76 165.396 352.794C165.411 360.828 188.455 367.302 216.867 367.254Z" fill="#FFD200"/>
<path opacity="0.08" d="M164.3 331.842V349.717C164.3 357.819 187.55 364.355 216.241 364.309C244.931 364.264 268.15 357.653 268.135 349.551V331.661L164.3 331.842Z" fill="black"/>
<path d="M168.082 310.458V328.348C168.082 336.45 191.332 342.986 220.023 342.94C248.713 342.895 271.932 336.284 271.917 328.167V310.292L168.082 310.458Z" fill="#FFD200"/>
<path d="M164.3 288.908V306.813C164.3 314.915 187.55 321.451 216.241 321.406C244.931 321.361 268.15 314.75 268.135 306.648L268.15 288.742L164.3 288.908Z" fill="#FFD200"/>
<path d="M216.813 345.9C245.225 345.852 268.246 339.3 268.231 331.266C268.217 323.232 245.173 316.758 216.761 316.806C188.349 316.854 165.328 323.406 165.343 331.44C165.357 339.475 188.401 345.949 216.813 345.9Z" fill="#FFD200"/>
<path opacity="0.08" d="M168.082 310.458V328.348C168.082 336.45 191.332 342.986 220.023 342.94C248.713 342.895 271.932 336.284 271.917 328.167V310.292L168.082 310.458Z" fill="black"/>
<path d="M220.51 324.706C248.922 324.658 271.943 318.106 271.929 310.072C271.914 302.037 248.87 295.564 220.458 295.612C192.046 295.66 169.025 302.212 169.04 310.246C169.054 318.28 192.099 324.754 220.51 324.706Z" fill="#FFD200"/>
<path opacity="0.08" d="M164.3 288.908V306.813C164.3 314.915 187.55 321.451 216.241 321.406C244.931 321.361 268.15 314.75 268.135 306.648L268.15 288.742L164.3 288.908Z" fill="black"/>
<path opacity="0.08" d="M166.315 389.217C187.605 389.217 204.863 372.449 204.863 351.765C204.863 331.081 187.605 314.313 166.315 314.313C145.025 314.313 127.766 331.081 127.766 351.765C127.766 372.449 145.025 389.217 166.315 389.217Z" fill="black"/>
<path opacity="0.08" d="M191.952 314.343C191.952 314.343 232.252 326.39 225.835 385.678C225.835 385.678 199.485 386.537 187.085 383.419C175.863 380.603 191.952 314.343 191.952 314.343Z" fill="black"/>
<path d="M216.256 303.359C244.942 303.311 268.185 296.758 268.171 288.724C268.156 280.69 244.89 274.216 216.204 274.265C187.518 274.314 164.275 280.866 164.29 288.9C164.304 296.934 187.57 303.408 216.256 303.359Z" fill="#FFD200"/>
<path d="M166.315 389.217C187.605 389.217 204.863 372.449 204.863 351.765C204.863 331.081 187.605 314.313 166.315 314.313C145.025 314.313 127.766 331.081 127.766 351.765C127.766 372.449 145.025 389.217 166.315 389.217Z" fill="#FFD200"/>
<path opacity="0.08" d="M166.315 389.217C187.605 389.217 204.863 372.449 204.863 351.765C204.863 331.081 187.605 314.313 166.315 314.313C145.025 314.313 127.766 331.081 127.766 351.765C127.766 372.449 145.025 389.217 166.315 389.217Z" fill="black"/>
<g opacity="0.08">
<path opacity="0.08" d="M164.439 377.938C185.729 377.938 202.988 361.17 202.988 340.486C202.988 319.802 185.729 303.034 164.439 303.034C143.15 303.034 125.891 319.802 125.891 340.486C125.891 361.17 143.15 377.938 164.439 377.938Z" fill="black"/>
</g>
<path d="M164.439 377.938C185.729 377.938 202.988 361.17 202.988 340.486C202.988 319.802 185.729 303.034 164.439 303.034C143.15 303.034 125.891 319.802 125.891 340.486C125.891 361.17 143.15 377.938 164.439 377.938Z" fill="#FFD200"/>
<path d="M350.3 239.785H286.579C281.281 239.785 276.985 243.959 276.985 249.107V270.446C276.985 275.594 281.281 279.767 286.579 279.767H350.3C355.599 279.767 359.894 275.594 359.894 270.446V249.107C359.894 243.959 355.599 239.785 350.3 239.785Z" fill="#24285B"/>
<path opacity="0.58" d="M494.45 358.015C494.45 358.015 481.26 354.521 478.392 342.579C478.392 342.579 498.837 338.573 499.41 359.069L494.45 358.015Z" fill="#68E1FD"/>
<path opacity="0.73" d="M496.108 356.705C496.108 356.705 486.886 342.534 494.992 329.297C494.992 329.297 510.492 338.89 503.641 356.735L496.108 356.705Z" fill="#68E1FD"/>
<path d="M498.48 356.72C498.48 356.72 503.347 341.751 518.072 338.92C518.072 338.92 520.846 348.633 508.539 356.75L498.48 356.72Z" fill="#68E1FD"/>
<path d="M488.917 356.373L491.583 374.158L508.431 374.233L510.911 356.463L488.917 356.373Z" fill="#24285B"/>
<g clip-path="url(#clip0)">
<path d="M157.278 333.823V353.111H152.832V325.723H156.326L172.446 345.473V325.761H176.932V353.111H173.24L157.278 333.823Z" fill="white"/>
<path d="M148.128 335.307H181.724" stroke="white" stroke-width="2"/>
<path d="M148.128 344.209H181.724" stroke="white" stroke-width="2"/>
</g>
<path opacity="0.16" d="M348.889 245.929H310V257.209H348.889V245.929Z" fill="white"/>
<g clip-path="url(#clip1)">
<path d="M308.461 161.719V181.007H304.014V153.618H307.508L323.628 173.369V153.657H328.114V181.007H324.422L308.461 161.719Z" fill="white"/>
<path d="M299.31 163.202H332.906" stroke="white" stroke-width="2"/>
<path d="M299.31 172.104H332.906" stroke="white" stroke-width="2"/>
</g>
<defs>
<clipPath id="clip0">
<rect width="33.5961" height="68.2484" fill="white" transform="translate(148.128 305.634)"/>
</clipPath>
<clipPath id="clip1">
<rect width="33.5961" height="68.2484" fill="white" transform="translate(299.31 133.529)"/>
</clipPath>
</defs>
</svg>
